<?xml version="1.0" encoding="utf-8"?>
<!-- Generator: Adobe Illustrator 21.1.0, SVG Export Plug-In . SVG Version: 6.00 Build 0)  -->
<svg version="1.1" id="Layer_1" xmlns="http://www.w3.org/2000/svg" xmlns:xlink="http://www.w3.org/1999/xlink" x="0px" y="0px"
	 viewBox="0 0 741.6 208" style="enable-background:new 0 0 741.6 208;" xml:space="preserve">
<style type="text/css">
	.st0{fill:#1072BA;}
	.st1{fill:#FFFFFF;}
	.st2{fill:#FDB913;}
</style>
<g>
	<polyline class="st0" points="356.7,6.6 356.7,204.2 5.9,204.2 5.9,6.6 	"/>
	<path class="st1" d="M17.9,116.8c0,11.5,4.5,21,13.1,27.9c6.1,4.9,13.8,7.9,22.7,11.5l6.7,2.7c10.2,4.3,11.5,9.4,11.5,12.8
		c0,5.9-5,10.1-12.4,10.1c-8.3,0-14.2-4.3-20.7-14.9l-1.3-2L14,181.6l1.1,1.8C25.1,199.7,39.9,208,58.9,208
		c25.2,0,42.3-15.3,42.3-37.9c0-11.7-4.7-21.9-13.1-28.6c-5.6-4.3-12.8-7.4-21.2-10.8l-8.3-3.4c-8.8-4-12.6-7.6-12.6-12.2
		c0-5,4.1-8.5,10.6-8.5c7.2,0,13.5,4,19.2,12l1.3,1.8L99,104.8l-1.1-1.8C89.3,89,75.5,81.4,58,81.4C33.6,80.9,17.9,94.9,17.9,116.8"
		/>
	<path class="st1" d="M138.4,156.9c0.9-4,7-29.1,9.7-40.6c2.7,11.5,8.6,36.7,9.5,40.6C153.9,156.9,142.2,156.9,138.4,156.9
		 M164.8,83.9h-33.6L96.5,204.4H126c0,0,5.2-20.3,6.1-23.2c2.9,0,28.6,0,31.5,0c0.7,2.9,6.1,23.2,6.1,23.2h29.5L164.8,83.9
		L164.8,83.9z"/>
	<path class="st1" d="M236.8,137.2c0,0-2.9,0-4.9,0c0-3.6,0-25.5,0-29.1c2.2,0,4.9,0,4.9,0c15.6,0,20,3.2,20,14.6
		C256.7,133.9,252.4,137.2,236.8,137.2 M269.8,89.5c-9.4-5.2-22.1-5.8-36.9-5.8h-31.5v120.5h30.2c0,0,0-39.2,0-43.2
		c0.5,0,1.3,0,1.3,0c16.9,0,28.2-0.9,36.9-5.8c11.1-6.3,17.3-18,17.3-33.1C287.3,107.5,281,95.8,269.8,89.5L269.8,89.5z"/>
	<path class="st2" d="M309.9,117.6h11.3v86.9h-11.3V117.6L309.9,117.6z M309.9,85.7h11.3v14.4h-11.3V85.7L309.9,85.7z"/>
	<path class="st2" d="M345,120.8l11.9-5.2V135h1.4c10.1-12.9,19.8-19.4,30-19.4c13.8,0,21.2,9.5,21.2,27.9v61h-11.9v-59
		c0-13.8-3.1-19.6-12.6-19.6c-8.6,0-18.5,6.8-28.4,20.7v57.9h-11.9v-83.6"/>
	<path class="st2" d="M426.1,186.3c8.6,6.5,16,10.1,23,10.1c10.8,0,18.2-6.8,18.2-15.6c0-6.3-3.4-9.9-11-12.9l-16.7-6.8
		c-11-4.5-16.5-12.4-16.5-22.5c0-12.9,11.3-22.7,28.2-22.7c7.7,0,15.3,2.3,23.4,6.8l-4.3,10.2c-7.6-4.5-14.4-7-20.5-7
		c-9.9,0-15.8,5-15.8,11.9c0,6.1,3.8,10.4,11.5,13.5l12.9,5c13.5,5.2,20,12.2,20,23.9c0,15.3-11.7,26.8-28.8,26.8
		c-11,0-20.5-3.6-28.6-10.4L426.1,186.3"/>
	<path class="st2" d="M497.9,117.6h11.3v86.9h-11.3V117.6L497.9,117.6z M497.9,85.7h11.3v14.4h-11.3V85.7L497.9,85.7z"/>
	<path class="st2" d="M594.8,200.3V77.1l-11.7,5v52.1h-1.6c-7.7-12.6-16.9-18.7-26.6-18.7c-18.3,0-29.1,16-29.1,45.7
		c0,29.3,11,45.1,29.1,45.1c9.7,0,18.7-6.3,26.6-18.7h1.6v16.9L594.8,200.3 M538.1,161.1c0-22.7,7.7-34.7,20.7-34.7
		c5.2,0,11.3,3.4,15.6,9.4c5.4,7.4,8.6,16.5,8.6,25.5s-3.1,18-8.6,25.5c-4.3,5.8-10.4,9.2-15.6,9.2
		C546.1,195.8,538.1,183.9,538.1,161.1L538.1,161.1z"/>
	<path class="st2" d="M669.8,192.9l-8.6-6.8c-6.3,6.7-12.9,10.1-19.1,10.1c-15.1,0-21.9-10.4-21.9-31.8c0-1.4,0-2.7,0-4.1h52.3
		c0-0.5,0-1.1,0-1.8c0-27.3-12.6-42.6-32-42.6c-19.2,0-32.5,16.2-32.5,45c0,29.9,11.9,46,32.5,46
		C652.2,206.6,662.4,201.9,669.8,192.9 M620.1,150.5c1.3-16.2,8.1-24.3,20.3-24.3c12.4,0,19.2,8.5,19.8,24.3H620.1L620.1,150.5z"/>
	<path class="st2" d="M686.5,120.8l11.9-5v32.9h1.6c13.5-20,25-31.1,35.1-32.9v21.4c-0.4,0-0.7,0-1.1,0c-14,0-25.2,7-35.6,22.1v45.1
		h-11.9L686.5,120.8"/>
</g>
</svg>
