<?xml version="1.0" encoding="utf-8"?>
<!-- Generator: Adobe Illustrator 21.1.0, SVG Export Plug-In . SVG Version: 6.00 Build 0)  -->
<svg version="1.1" id="Layer_1" xmlns="http://www.w3.org/2000/svg" xmlns:xlink="http://www.w3.org/1999/xlink" x="0px" y="0px"
	 viewBox="0 0 250 250" style="enable-background:new 0 0 250 250;" xml:space="preserve">
<style type="text/css">
	.st0{fill:none;stroke:#58595B;stroke-width:7;stroke-miterlimit:10;}
	.st1{fill:#1072BA;}
	.st2{fill:#FFFFFF;stroke:#FFFFFF;stroke-width:3;stroke-miterlimit:10;}
</style>
<circle class="st0" cx="124.9" cy="125" r="111.9"/>
<path class="st1" d="M102,52.9L56.1,70.1V126c0,0,1,48.3,68.7,81.3c67.8-33,68.7-81.3,68.7-81.3V70.1l-45.9-17.2
	C133,47.3,116.7,47.3,102,52.9z"/>
<g>
	<path class="st2" d="M129.6,170.3h-7.2v-9.9c-19.5-1.9-23.7-13.8-25.6-19.3l11.5-2.6c2.3,8.6,7.7,11.6,14,12.2v-21.2
		c-10.5-2.6-22.8-5.6-22.8-20.3c0-18,18-20.4,22.8-20.9v-7.7h7.2v7.7c9.7,0.9,19,7.5,21,16.5l-10.8,2.3c-2.3-6.7-6.6-8.5-10.2-8.9
		v19l5.5,1.4c11.4,2.9,18.1,8.2,18.1,20.1c0,9.9-5.7,15-9,17.2c-5.5,3.5-10.1,4-14.6,4.5V170.3z M122.4,98.2c-6.7,0-11,3.5-11,9.1
		c0,7.1,7.1,8.3,11,8.9V98.2z M129.6,150.7c7.8-0.3,11.9-4.9,11.9-10.5c0-7.7-8.6-9.3-11.9-10V150.7z"/>
</g>
</svg>
