<?xml version="1.0" encoding="utf-8"?>
<!-- Generator: Adobe Illustrator 21.1.0, SVG Export Plug-In . SVG Version: 6.00 Build 0)  -->
<svg version="1.1" id="Layer_1" xmlns="http://www.w3.org/2000/svg" xmlns:xlink="http://www.w3.org/1999/xlink" x="0px" y="0px"
	 viewBox="0 0 648 648" style="enable-background:new 0 0 648 648;" xml:space="preserve">
<style type="text/css">
	.st0{fill:#CCCCCC;}
	.st1{fill:#1072BA;stroke:#FFFFFF;stroke-width:4;stroke-miterlimit:10;}
	.st2{fill:none;}
	.st3{fill:#FFFFFF;}
	.st4{font-family:'Roboto-Medium';}
	.st5{font-size:18px;}
	.st6{font-family:'Roboto-Regular';}
	.st7{enable-background:new    ;}
	.st8{fill:#1072BA;}
</style>
<path class="st0" d="M326,11C153.1,11,13,151.1,13,324s140.1,313,313,313s313-140.1,313-313S498.8,11,326,11z M326,456.9
	c-73.4,0-132.9-59.5-132.9-132.9S252.6,191.1,326,191.1S458.9,250.6,458.9,324S399.4,456.9,326,456.9z"/>
<g>
	<path class="st1" d="M325.9,52c-150.2,0-272,121.8-272,272l76.6-22.2l76.6,22.2c0-65.6,53.2-118.8,118.8-118.8l22.2-76.6L325.9,52z
		"/>
	<path class="st1" d="M598,324c0-150.2-121.8-272-272-272l22.2,76.6L326,205.2c65.6,0,118.8,53.2,118.8,118.8l76.6,22.2L598,324z"/>
	<path class="st1" d="M326.1,596c150.2,0,272-121.8,272-272l-76.6,22.2L444.9,324c0,65.6-53.2,118.8-118.8,118.8l-22.2,76.6
		L326.1,596z"/>
	<path class="st1" d="M54,324c0,150.2,121.8,272,272,272l-22.2-76.6l22.2-76.6c-65.6,0-118.8-53.2-118.8-118.8l-76.6-22.2L54,324z"
		/>
</g>
<g>
	<path d="M48,204.6l2.1-4.8c1.5-3.5,4.4-4.4,8.4-2.6c2.4,1,3.9,2.5,4.1,4.8l10.9,0.9l-1.4,3.2l-10-1.1l-0.8,1.8l8.9,3.9l-1.3,3
		L48,204.6z M58.7,205.7l0.7-1.7c0.9-2.1-0.1-2.9-2.2-3.8c-2.1-0.9-3.4-1.1-4.4,1.1l-0.7,1.5L58.7,205.7z"/>
	<path d="M69.4,196l2,1c0.9,0.5,1.7,0.2,2.1-0.7c0.5-1.1-0.2-1.8-0.8-2.1l1.4-2.9c1.2,0.6,2.1,1.6,2.5,2.7c0.4,1.2,0.4,2.5-0.3,3.8
		c-0.9,1.8-2.4,2.7-4,2.8c-0.9,0-2-0.3-3.2-0.9l-4.8-2.4c-1.2-0.6-2.1-1.2-2.7-2c-0.9-1.3-1.1-3.1-0.2-4.8c1.3-2.7,4.1-3.4,6.7-2.1
		l4,2L69.4,196z M67.1,194.9l1.4-2.9l-1.7-0.8c-1.1-0.5-1.9-0.3-2.4,0.6s-0.1,1.7,1,2.2L67.1,194.9z"/>
	<path d="M71.9,180.6c-1-0.5-1.8-0.1-2.3,0.7c-0.5,0.9-0.1,1.8,0.7,2.2c0.5,0.3,1.1,0.4,2.1-0.4l1.6-1.3c2-1.7,3.9-1.5,5.5-0.6
		c2.4,1.3,3.3,4.1,2,6.6c-1.2,2.2-3.7,3.3-6.6,1.9l1.5-2.7c0.8,0.3,1.9,0.4,2.4-0.7c0.4-0.8,0.3-1.9-0.7-2.4
		c-0.8-0.4-1.5-0.4-2.5,0.5l-1.3,1.1c-1.6,1.4-3.6,1.8-5.5,0.7c-2.4-1.3-3.1-4.2-1.9-6.5c1.3-2.3,4-3,6.4-1.8L71.9,180.6z"/>
	<path d="M80.3,175.6l1.9,1.1c0.9,0.5,1.7,0.3,2.2-0.5c0.6-1.1,0-1.8-0.6-2.2l1.7-2.8c1.2,0.7,2,1.7,2.3,2.9s0.2,2.5-0.6,3.8
		c-1,1.7-2.6,2.5-4.2,2.4c-0.9,0-2-0.5-3.1-1.2l-4.6-2.7c-1.1-0.7-2-1.4-2.5-2.2c-0.8-1.4-0.8-3.1,0.2-4.8c1.5-2.6,4.4-3,6.8-1.6
		l3.8,2.3L80.3,175.6z M78.1,174.3l1.6-2.7l-1.6-1c-1-0.6-1.9-0.4-2.4,0.4c-0.5,0.8-0.3,1.7,0.8,2.3L78.1,174.3z"/>
	<path d="M92.6,165.8L92.6,165.8c0.5,1.4,0.7,2.4-0.2,3.7c-0.8,1.3-2.5,2.5-5.5,0.6c-3.1-2-4-3.9-1.8-7.3c0.2-0.4,0.5-0.7,0.9-1.3
		l-1.4-0.9c-0.9-0.6-1.8-0.7-2.5,0.3c-0.5,0.7-0.4,1.7,0.3,2.4l-1.7,2.6c-1.2-0.9-1.9-2-2.1-3.2s0-2.5,0.8-3.7
		c1.5-2.3,4.1-3.1,7-1.3l9.4,6.2l-1.8,2.7L92.6,165.8z M88.2,162.8c-0.2,0.3-0.4,0.5-0.6,0.7c-0.8,1.2-0.9,2.4,0.5,3.4
		c1,0.7,2.1,0.6,2.7-0.3c0.6-0.9,0.3-1.9-0.8-2.6L88.2,162.8z"/>
	<path d="M83.9,152.7l1.9-2.6l1.4,1c-0.2-1.8-0.2-3.1,0.9-4.6l2.8,2c-0.3,0.2-0.5,0.4-0.7,0.7c-0.8,1.1-1.2,3.2,0.9,4.7l7.8,5.6
		l-1.9,2.6L83.9,152.7z"/>
	<path d="M100.3,149.9c0.8,0.6,1.6,0.5,2.2-0.3c0.8-1,0.2-1.8-0.3-2.3l2-2.6c1.1,0.8,1.8,2,1.9,3.1c0.2,1.2-0.1,2.5-1,3.7
		c-1.2,1.6-2.9,2.2-4.4,1.9c-0.9-0.2-1.9-0.7-3-1.5l-4.2-3.3c-1-0.8-1.9-1.6-2.2-2.5c-0.7-1.5-0.5-3.2,0.7-4.8
		c1.8-2.4,4.7-2.5,7.1-0.7l-2,2.6c-1-0.8-1.9-0.7-2.5,0.1s-0.5,1.7,0.5,2.4L100.3,149.9z"/>
	<path d="M91.2,132l2.1-2.5l6.2,5.2l0,0c-0.4-1.2-0.3-2.3,0.6-3.5c1-1.2,3-1.9,5.2,0l9.5,8l-2.1,2.5l-8.6-7.2
		c-0.9-0.8-1.8-0.8-2.5,0c-0.8,0.9-0.4,1.8,0.7,2.7l8.4,7l-2.1,2.5L91.2,132z"/>
	<path d="M125.3,125.4c0,1.8-0.4,3.2-1.6,4.4c-1.8,1.9-4.8,1.9-7-0.3c-1.8-1.7-2.2-4-2.1-6.4c-2-0.3-3.8-0.9-5.1-2.2
		c-1.7-1.7-2.1-4.1-0.1-6.3c1.9-2,4.3-1.8,6-0.2c1.5,1.5,1.9,4,1.8,6.4c1.5,0.3,3.6,0.8,5.5,1.2l-0.5-2.9l2.4-0.5l0.6,3.9l4.5,0.9
		l-2.3,2.3L125.3,125.4z M114.7,120.4c0-1.1-0.1-2.8-1.2-3.9c-0.6-0.6-1.6-0.7-2.3,0c-0.7,0.7-0.5,1.8,0.3,2.5
		C112.1,119.7,113.3,120.1,114.7,120.4z M122.2,127.7c0.7-0.7,0.8-1.9,0.7-2.7l-5.8-1.2c0,1.4,0.3,2.7,1.3,3.7
		C119.6,128.5,121.3,128.7,122.2,127.7z"/>
	<path d="M120,101.2l7.2-6.5l2.1,2.3l-4.8,4.3l4.5,5l4.2-3.8l2.1,2.3l-4.2,3.8l4.5,5l4.8-4.3l2.2,2.4l-7.2,6.5L120,101.2z"/>
	<path d="M148.2,106.9l-2.2,1.8l-13.6-9.8l2.6-2.2l8.3,6.6l0,0l-4.9-9.4l2.6-2.2L148.2,106.9z"/>
	<path d="M156,98.6L156,98.6c0,1.5-0.2,2.5-1.4,3.4s-3.2,1.5-5.4-1.3c-2.2-3-2.5-5,0.7-7.5c0.4-0.3,0.7-0.5,1.3-0.9l-1-1.3
		c-0.7-0.9-1.5-1.3-2.5-0.5c-0.7,0.5-1,1.5-0.5,2.4l-2.5,1.9c-0.8-1.2-1.1-2.5-1-3.7c0.2-1.2,0.8-2.3,2-3.2c2.2-1.6,4.9-1.6,7,1.1
		l6.8,9l-2.6,2L156,98.6z M152.8,94.4c-0.3,0.2-0.5,0.3-0.8,0.5c-1.1,0.8-1.7,2-0.6,3.4c0.8,1,1.8,1.3,2.6,0.6
		c0.9-0.7,0.9-1.7,0.1-2.7L152.8,94.4z"/>
	<path d="M148,78.3l2.6-1.9l10.6,14.8c0.7,1,1.2,1.1,2.3,0.5l1.8,2.5c-2.4,1.7-4.4,2.2-6.6-0.9L148,78.3z"/>
	<path d="M174.2,88l-2.7,1.8l-0.9-1.3h-0.1c0,1.2-0.3,2.3-1.6,3.2c-1.4,0.9-3.4,1-5-1.5L157,79.8l2.7-1.8l6.2,9.4
		c0.7,1,1.5,1.3,2.4,0.7c1-0.7,0.9-1.6,0.1-2.8l-6-9.1l2.7-1.8L174.2,88z"/>
	<path d="M180.6,82.1L180.6,82.1c-0.2,1.5-0.4,2.4-1.8,3.2c-1.3,0.8-3.4,1.2-5.2-1.9c-1.9-3.2-1.9-5.3,1.5-7.4
		c0.4-0.2,0.8-0.4,1.4-0.7l-0.9-1.5c-0.6-0.9-1.3-1.4-2.4-0.8c-0.7,0.4-1.1,1.3-0.7,2.4l-2.7,1.6c-0.7-1.3-0.9-2.6-0.6-3.8
		c0.3-1.2,1.1-2.2,2.3-3c2.3-1.4,5.1-1,6.8,1.9l5.8,9.7l-2.8,1.7L180.6,82.1z M177.9,77.5c-0.3,0.1-0.6,0.2-0.8,0.4
		c-1.2,0.7-1.9,1.8-1,3.3c0.6,1.1,1.6,1.5,2.5,0.9s1.1-1.6,0.4-2.7L177.9,77.5z"/>
	<path d="M175.9,62.3l2.8-1.6l2.4,4.3l1.8-1l1.2,2.2l-1.8,1l4.4,7.8c0.7,1.3,1.3,1.1,2.5,0.4l1.5,2.7l-1.2,0.7
		c-2.6,1.4-4.4,0.1-5.3-1.4l-4.8-8.6l-1.4,0.8l-1.3-2.2l1.4-0.8L175.9,62.3z"/>
	<path d="M181.1,57.5L184,56l1.5,2.9l-2.9,1.5L181.1,57.5z M184.2,63.3l2.9-1.5l7.6,14.3l-2.9,1.5L184.2,63.3z"/>
	<path d="M191.9,65.4c-0.6-1.2-0.9-2.3-0.9-3.2c0.1-1.6,1-3.1,2.8-4s3.5-0.7,4.8,0.2c0.8,0.6,1.4,1.5,2,2.7l2.4,4.8
		c0.6,1.2,0.9,2.3,0.9,3.2c-0.1,1.6-1,3.1-2.8,4s-3.5,0.7-4.8-0.2c-0.8-0.6-1.4-1.5-2-2.7L191.9,65.4z M197.4,69.2
		c0.5,1.1,1.4,1.4,2.2,1c0.9-0.4,1.1-1.3,0.6-2.4l-2.8-5.7c-0.5-1.1-1.4-1.4-2.2-1c-0.9,0.4-1.1,1.3-0.6,2.4L197.4,69.2z"/>
	<path d="M200.8,55l3-1.3l0.6,1.4h0.1c0.2-1.2,0.7-2.2,2.1-2.8c1.5-0.7,3.5-0.4,4.7,2.3l5,11.4l-3,1.3L208.7,57
		c-0.5-1.1-1.3-1.5-2.2-1.1c-1.1,0.5-1.2,1.4-0.6,2.7l4.4,10l-3,1.3L200.8,55z"/>
</g>
<g>
	<path d="M506.3,78.8l3.9,2.9c1.4,1.1,2.2,2.2,2.4,3.8s-0.4,3-2,5.2c-1.2,1.6-2.1,2.6-3.5,3.1c-1.6,0.6-3.3,0.5-5.2-0.9l-1.3-1
		l-5.3,7.1l-2.6-1.9L506.3,78.8z M502.4,89.4l1.2,0.9c2.1,1.6,3.1,0.3,4.4-1.5c1.3-1.7,2.3-3.1,0.3-4.7l-1.4-1L502.4,89.4z"/>
	<path d="M510.2,110.8l-2.5-2.1l1-1.2l0,0c-1.2,0.4-2.3,0.4-3.5-0.6c-1.3-1-1.9-2.9-0.1-5.2l7.9-9.6l2.5,2.1l-7.1,8.7
		c-0.8,0.9-0.8,1.8,0,2.5c0.9,0.8,1.8,0.4,2.7-0.7l6.9-8.4l2.5,2.1L510.2,110.8z"/>
	<path d="M522.8,100.2l2.4,2.2l-1.1,1.3c1.8,0,3.1,0.2,4.5,1.4l-2.3,2.6c-0.2-0.3-0.3-0.6-0.6-0.8c-1-0.9-3.1-1.5-4.8,0.4l-6.4,7.2
		l-2.4-2.2L522.8,100.2z"/>
	<path d="M523.9,116.9c-0.7,0.7-0.7,1.6,0.1,2.3c0.9,0.9,1.7,0.4,2.3-0.1l2.4,2.2c-0.9,1-2.1,1.5-3.3,1.6s-2.5-0.4-3.6-1.4
		c-1.4-1.4-1.9-3.1-1.5-4.6c0.2-0.9,0.9-1.9,1.8-2.8l3.7-3.9c0.9-1,1.8-1.7,2.7-2c1.5-0.5,3.2-0.1,4.7,1.2c2.2,2.1,2,4.9-0.1,7.1
		l-2.4-2.2c0.9-1,0.9-1.8,0.2-2.5s-1.6-0.6-2.4,0.2L523.9,116.9z"/>
	<path d="M542.7,109.8l2.3,2.3l-5.8,5.6l0,0c1.2-0.2,2.3-0.1,3.4,1c1.1,1.2,1.6,3.1-0.5,5.2l-8.9,8.7l-2.3-2.3l8.1-7.8
		c0.9-0.8,1-1.7,0.3-2.5c-0.8-0.9-1.7-0.6-2.7,0.4l-7.8,7.6l-2.3-2.3L542.7,109.8z"/>
	<path d="M540,137.9L540,137.9c-1.5,0.1-2.5,0-3.5-1.2c-1-1.1-1.8-3.1,0.9-5.5c2.8-2.5,4.8-2.9,7.5,0.2c0.3,0.3,0.5,0.7,1,1.2
		l1.3-1.1c0.8-0.7,1.2-1.6,0.4-2.5c-0.5-0.6-1.5-0.9-2.4-0.3l-2.1-2.4c1.1-0.9,2.4-1.3,3.6-1.2c1.2,0.1,2.4,0.6,3.4,1.7
		c1.8,2,1.9,4.8-0.6,7l-8.5,7.5l-2.2-2.4L540,137.9z M544,134.4c-0.2-0.3-0.3-0.5-0.5-0.7c-0.9-1-2.1-1.5-3.4-0.4
		c-0.9,0.8-1.1,1.9-0.4,2.6c0.7,0.8,1.7,0.8,2.7-0.1L544,134.4z"/>
	<path d="M555.1,140.3c0.8-0.7,0.8-1.7,0.2-2.3c-0.6-0.8-1.6-0.7-2.3-0.2c-0.5,0.4-0.8,0.9-0.4,2.1l0.6,2c0.8,2.5,0,4.1-1.5,5.4
		c-2.1,1.7-5.1,1.5-6.9-0.7c-1.6-2-1.7-4.7,0.7-6.8l1.9,2.4c-0.6,0.7-1.1,1.6-0.3,2.5c0.6,0.7,1.7,1,2.5,0.3
		c0.7-0.6,0.9-1.2,0.5-2.5l-0.5-1.6c-0.7-2.1-0.3-4,1.4-5.4c2.1-1.7,5-1.3,6.7,0.7s1.3,4.8-0.8,6.5L555.1,140.3z"/>
	<path d="M556.5,149.9l-1.8,1.3c-0.8,0.6-0.9,1.4-0.3,2.2c0.7,1,1.7,0.7,2.3,0.3l1.9,2.6c-1.1,0.8-2.4,1.2-3.5,1
		c-1.2-0.2-2.4-0.8-3.3-2c-1.2-1.6-1.3-3.3-0.7-4.8c0.4-0.9,1.2-1.7,2.3-2.5l4.3-3.2c1-0.8,2.1-1.3,3-1.5c1.6-0.2,3.2,0.4,4.4,2
		c1.8,2.4,1.1,5.2-1.1,6.9l-3.6,2.7L556.5,149.9z M558.6,148.4l1.9,2.5l1.5-1.1c1-0.7,1.1-1.6,0.5-2.4c-0.6-0.8-1.5-0.9-2.4-0.2
		L558.6,148.4z"/>
</g>
<g>
	<path d="M588.6,474.9l-1.6,2.8l-19.8-11.3l1.6-2.8L588.6,474.9z"/>
	<path d="M579.7,477.5l-1.7,2.7l-1.3-0.8v0.1c0.5,1.1,0.7,2.3-0.2,3.5c-0.8,1.2-1.9,1.5-2.9,1.6c0.3,1.2,0.5,2.3-0.4,3.7
		c-0.9,1.4-2.8,2.4-5.2,0.9l-10.5-6.7l1.7-2.7l9.5,6c1,0.6,1.9,0.5,2.5-0.3c0.6-1,0.2-1.8-1-2.6l-9.2-5.8l1.7-2.7l9.5,6
		c1,0.6,1.9,0.5,2.5-0.3c0.6-1,0.2-1.8-1-2.6l-9.2-5.8l1.7-2.7L579.7,477.5z"/>
	<path d="M569.1,493.9l-1.9,2.6l-1.2-0.9c0.3,1.2,0.5,2.2-0.4,3.5c-0.8,1.1-1.7,1.6-2.9,1.4c-0.8-0.1-1.7-0.5-3.2-1.6l-5-3.6
		c-1.9-1.4-2.6-2-2.9-2.7c-0.4-0.9-0.4-1.9,0.5-3.2c0.7-1,1.8-1.5,3.1-1.5v-0.1l-6.5-4.7l1.9-2.6L569.1,493.9z M561.1,496
		c1.1,0.8,2.1,0.9,2.7,0c0.6-0.8,0.3-1.8-0.7-2.5l-5.1-3.7c-0.8-0.6-1.8-0.5-2.4,0.3c-0.7,1-0.2,1.8,0.6,2.4L561.1,496z"/>
	<path d="M566.9,508l-2,2.6l-14.4-11.1c-1-0.7-1.5-0.7-2.3,0.2l-2.4-1.9c1.8-2.4,3.6-3.4,6.6-1.1L566.9,508z"/>
	<path d="M548.7,505.5l-1.7-1.4c-0.8-0.6-1.6-0.5-2.2,0.2c-0.8,1-0.3,1.8,0.3,2.3l-2.1,2.5c-1-0.9-1.7-2-1.8-3.2s0.2-2.5,1.1-3.6
		c1.3-1.5,2.9-2.1,4.5-1.8c0.9,0.2,1.9,0.8,2.9,1.6l4.1,3.4c1,0.8,1.8,1.7,2.2,2.6c0.6,1.5,0.4,3.2-0.9,4.8c-1.9,2.3-4.8,2.3-7,0.5
		l-3.5-2.8L548.7,505.5z M550.7,507.1l-2,2.5l1.4,1.2c0.9,0.8,1.8,0.7,2.4-0.1c0.6-0.8,0.5-1.6-0.4-2.4L550.7,507.1z"/>
	<path d="M549.9,518.7l-2.2,2.4l-1.2-1.1l0,0c0.3,1.2,0.2,2.3-0.8,3.4c-0.9,1-2.2,1.2-3.2,1c0.1,1.2,0.1,2.3-1.1,3.6
		c-1.1,1.2-3.2,1.9-5.3-0.1l-9.2-8.4l2.2-2.4l8.3,7.6c0.9,0.8,1.8,0.9,2.5,0.1c0.8-0.9,0.5-1.7-0.6-2.7l-8-7.4l2.2-2.4l8.3,7.6
		c0.9,0.8,1.8,0.9,2.5,0.1c0.8-0.9,0.5-1.7-0.6-2.7l-8-7.4l2.2-2.4L549.9,518.7z"/>
	<path d="M528,528.3l-1.5-1.6c-0.7-0.7-1.6-0.7-2.3,0c-0.9,0.9-0.4,1.7,0,2.3l-2.3,2.3c-0.9-1-1.5-2.2-1.5-3.4s0.5-2.5,1.5-3.5
		c1.4-1.4,3.1-1.8,4.7-1.3c0.9,0.3,1.8,1,2.7,1.9l3.7,3.8c0.9,0.9,1.6,1.9,1.9,2.8c0.4,1.5,0,3.3-1.4,4.6c-2.1,2.1-5,1.8-7-0.2
		l-3.1-3.2L528,528.3z M529.8,530.2l-2.3,2.2l1.3,1.3c0.9,0.9,1.7,0.9,2.4,0.2s0.7-1.6-0.2-2.4L529.8,530.2z"/>
	<path d="M527.9,541.5l-2.4,2.2l-1-1.2l0,0c0.2,1.2,0,2.4-1.1,3.4c-1.2,1.1-3.2,1.4-5.1-0.7l-8.3-9.3l2.4-2.2l7.5,8.4
		c0.8,0.9,1.7,1,2.5,0.4c0.9-0.8,0.7-1.7-0.3-2.8l-7.3-8.1l2.4-2.2L527.9,541.5z"/>
	<path d="M521.5,553.7l-2.5,2.1l-3.2-3.8l-1.5,1.3l-1.6-2l1.5-1.3l-5.8-6.9c-1-1.2-1.5-0.9-2.6,0.1l-2-2.4l1-0.9
		c2.2-1.9,4.3-0.9,5.4,0.4l6.3,7.6l1.2-1l1.6,2l-1.2,1L521.5,553.7z"/>
	<path d="M499.2,546.6L499.2,546.6c0-1.5,0.1-2.5,1.4-3.4c1.2-0.9,3.2-1.6,5.4,1.2c2.3,2.9,2.6,5-0.6,7.5c-0.4,0.3-0.7,0.5-1.3,0.9
		l1,1.3c0.7,0.9,1.5,1.3,2.5,0.5c0.7-0.5,0.9-1.5,0.4-2.4l2.5-1.9c0.8,1.2,1.2,2.5,1,3.7s-0.8,2.4-1.9,3.3c-2.1,1.7-4.9,1.6-7-1
		l-7-8.9l2.6-2L499.2,546.6z M502.5,550.8c0.3-0.2,0.5-0.3,0.8-0.5c1.1-0.9,1.7-2,0.6-3.4c-0.8-1-1.8-1.2-2.6-0.6
		c-0.9,0.7-0.9,1.7-0.1,2.7L502.5,550.8z"/>
	<path d="M506.3,565.7l-2.6,1.9l-2.9-4l-1.6,1.2l-1.5-2.1l1.6-1.2l-5.3-7.3c-0.9-1.2-1.4-1-2.6-0.1l-1.8-2.5l1.1-0.8
		c2.4-1.7,4.4-0.6,5.4,0.8l5.8,8l1.3-1l1.5,2.1l-1.3,1L506.3,565.7z"/>
	<path d="M498,565.7l-2.7,1.9l-9.3-13.3l2.7-1.9L498,565.7z M501.7,571l-2.7,1.9l-1.9-2.7l2.7-1.9L501.7,571z"/>
	<path d="M490.1,564.5c0.7,1.1,1.2,2.2,1.3,3.1c0.1,1.6-0.6,3.2-2.3,4.3c-1.7,1.1-3.4,1.1-4.8,0.4c-0.8-0.5-1.6-1.3-2.3-2.4
		l-2.9-4.5c-0.7-1.1-1.2-2.2-1.3-3.1c-0.1-1.6,0.6-3.2,2.3-4.3c1.7-1.1,3.4-1.1,4.8-0.4c0.8,0.5,1.6,1.3,2.3,2.4L490.1,564.5z
		 M484.2,561.4c-0.7-1-1.5-1.2-2.3-0.7s-1,1.4-0.3,2.4l3.5,5.3c0.7,1,1.5,1.2,2.3,0.7s1-1.4,0.3-2.4L484.2,561.4z"/>
	<path d="M482.5,575.9l-2.8,1.7l-0.8-1.3h-0.1c-0.1,1.2-0.4,2.3-1.7,3.1c-1.4,0.8-3.4,0.8-4.9-1.7l-6.3-10.7l2.8-1.7l5.7,9.7
		c0.6,1,1.5,1.4,2.3,0.8c1-0.6,1-1.5,0.3-2.8l-5.6-9.4l2.8-1.7L482.5,575.9z"/>
</g>
<g>
	<path d="M289.4,623l-3.1-0.4l-2.6-12.5h-0.1l-5.6,11.5l-3.1-0.4l2.8-22.6l3.2,0.4l-1.7,13.7h0.1l4.4-9.3l1.6,0.2l1.9,10.1h0.1
		L289,600l3.2,0.4L289.4,623z"/>
	<path d="M268.8,598.6L268.8,598.6c1.1-1,1.9-1.5,3.5-1.3c1.5,0.3,3.3,1.3,2.7,4.9c-0.7,3.7-2,5.2-6,4.5c-0.4-0.1-0.9-0.2-1.5-0.4
		l-0.3,1.7c-0.2,1.1,0.1,2,1.3,2.2c0.8,0.1,1.7-0.3,2.1-1.3l3.1,0.6c-0.3,1.4-1.1,2.5-2.1,3.2s-2.3,1-3.7,0.7
		c-2.7-0.5-4.5-2.6-3.9-5.9l2-11.1l3.2,0.6L268.8,598.6z M267.8,603.9c0.3,0.1,0.6,0.2,0.9,0.3c1.4,0.2,2.6-0.1,2.9-1.8
		c0.2-1.2-0.3-2.2-1.3-2.3c-1.1-0.2-1.9,0.4-2.1,1.7L267.8,603.9z"/>
	<path d="M258.9,618.2l-3.2-0.7l0.7-3.2l3.2,0.7L258.9,618.2z M260.3,611.8l-3.2-0.7l3.4-15.9l3.2,0.7L260.3,611.8z"/>
	<path d="M254.1,610.5l-3.2-0.8l0.4-1.5h-0.1c-0.9,0.8-1.9,1.3-3.4,1c-1.6-0.4-3-1.8-2.3-4.7l3-12.1l3.2,0.8l-2.7,10.9
		c-0.3,1.1,0.1,2,1.1,2.2c1.2,0.3,1.8-0.4,2.1-1.8l2.6-10.6l3.2,0.8L254.1,610.5z"/>
	<path d="M240.4,612l-3.1-0.9l1.4-4.7l-1.9-0.6l0.7-2.5l1.9,0.6l2.5-8.6c0.4-1.4-0.1-1.7-1.5-2.1l0.8-3l1.3,0.4
		c2.8,0.8,3.2,3.1,2.7,4.7l-2.7,9.5l1.6,0.4l-0.7,2.5l-1.6-0.4L240.4,612z"/>
	<path d="M235.3,595.6l0.7-2.1c0.3-1-0.1-1.7-1-2c-1.2-0.4-1.7,0.4-2,1.1l-3.1-1c0.4-1.3,1.3-2.3,2.3-2.9c1.1-0.6,2.4-0.7,3.8-0.3
		c1.9,0.6,3,2,3.3,3.5c0.2,0.9,0,2.1-0.4,3.3l-1.6,5.1c-0.4,1.2-0.9,2.3-1.6,2.9c-1.2,1.1-2.9,1.5-4.7,0.9c-2.8-0.9-3.9-3.6-3.1-6.3
		l1.4-4.3L235.3,595.6z M234.5,598l-3-1l-0.6,1.8c-0.4,1.2,0,2,0.9,2.3s1.7-0.1,2.1-1.3L234.5,598z"/>
	<path d="M223.5,601.6l-3-1.1l0.5-1.5h-0.1c-1,0.7-2.1,1.1-3.5,0.6c-1.5-0.6-2.8-2.2-1.7-4.9L220,583l3,1.1l-3.9,10.5
		c-0.4,1.1-0.1,2,0.8,2.4c1.1,0.4,1.8-0.2,2.3-1.5l3.8-10.2l3,1.1L223.5,601.6z"/>
	<path d="M211.5,581.2L211.5,581.2c1.3-0.7,2.2-1.1,3.7-0.5c1.4,0.6,2.9,2,1.5,5.3c-1.4,3.4-3.1,4.7-6.9,3.1
		c-0.4-0.2-0.8-0.4-1.4-0.7l-0.7,1.6c-0.4,1-0.4,1.9,0.7,2.4c0.8,0.3,1.7,0.1,2.3-0.8l2.9,1.2c-0.6,1.3-1.6,2.2-2.7,2.7
		c-1.1,0.5-2.4,0.5-3.8-0.1c-2.5-1.1-3.8-3.5-2.5-6.6l4.4-10.4l3,1.3L211.5,581.2z M209.5,586.1c0.3,0.2,0.5,0.3,0.8,0.4
		c1.3,0.5,2.6,0.5,3.2-1.1c0.5-1.1,0.2-2.2-0.7-2.6c-1-0.4-1.9,0-2.4,1.2L209.5,586.1z"/>
	<path d="M200.3,592.2l-2.9-1.4l0.7-1.4H198c-1,0.6-2.2,0.9-3.5,0.3c-1.5-0.7-2.6-2.4-1.3-5l5.4-11.2l2.9,1.4l-4.8,10.1
		c-0.5,1.1-0.3,2,0.6,2.4c1.1,0.5,1.8,0,2.4-1.3l4.7-9.9l2.9,1.4L200.3,592.2z"/>
	<path d="M191.1,574.8c0.5-0.9,0.2-1.7-0.7-2.2c-1.1-0.6-1.8,0.1-2.2,0.7l-2.9-1.5c0.6-1.2,1.6-2.1,2.8-2.4c1.2-0.4,2.5-0.3,3.8,0.4
		c1.7,0.9,2.6,2.4,2.6,4.1c0,0.9-0.4,2-1,3.2l-2.5,4.7c-0.6,1.2-1.3,2.1-2.1,2.6c-1.3,0.9-3.1,1-4.8,0.1c-2.6-1.4-3.3-4.2-1.8-6.9
		l2.9,1.5c-0.6,1.2-0.4,2,0.5,2.4c0.9,0.5,1.7,0.2,2.3-0.9L191.1,574.8z"/>
	<path d="M180.1,571.2l1.1-1.9c0.5-0.9,0.3-1.7-0.6-2.2c-1.1-0.6-1.8,0-2.2,0.6l-2.8-1.6c0.7-1.2,1.7-2,2.9-2.3s2.5-0.2,3.8,0.5
		c1.7,1,2.5,2.6,2.5,4.2c0,0.9-0.5,2-1.1,3.1l-2.7,4.6c-0.7,1.1-1.4,2-2.2,2.5c-1.4,0.8-3.1,0.9-4.8-0.1c-2.6-1.5-3.1-4.4-1.6-6.8
		l2.3-3.9L180.1,571.2z M178.8,573.4l-2.7-1.6l-0.9,1.6c-0.6,1-0.4,1.9,0.4,2.4c0.9,0.5,1.7,0.3,2.3-0.8L178.8,573.4z"/>
	<path d="M174.4,563.6l-2.7-1.7l1.7-2.8l4-0.3L174.4,563.6z"/>
	<path d="M154.8,552.5c1.7-2.4,5-3,7.4-1.3s2.9,5,1.2,7.4L153.1,573l-2.6-1.9l10.1-14.1c0.9-1.3,0.7-2.4-0.3-3.1
		c-0.9-0.7-2.1-0.5-3,0.8l-10.1,14.1l-2.6-1.9L154.8,552.5z"/>
	<path d="M145.6,559.5l-2.6-2l0.9-1.2c-1.2,0.2-2.2,0.4-3.5-0.6c-1-0.8-1.5-1.8-1.3-3c0.1-0.8,0.6-1.7,1.7-3.1l3.8-4.9
		c1.4-1.8,2.1-2.5,2.8-2.8c1-0.3,2-0.3,3.2,0.6c1,0.8,1.4,1.9,1.3,3.2h0.1l5-6.3l2.6,2L145.6,559.5z M143.8,551.4
		c-0.8,1-1,2-0.1,2.7c0.8,0.6,1.8,0.4,2.5-0.6l3.9-5c0.6-0.8,0.5-1.8-0.2-2.4c-1-0.8-1.8-0.3-2.4,0.5L143.8,551.4z"/>
	<path d="M144.9,535.7c0.5-0.6,0.6-1.6-0.3-2.3c-0.8-0.7-1.6-0.4-2.3,0.4l-2.1,2.4l0,0c1.2-0.3,2.4-0.1,3.4,0.7c1,0.9,1.4,1.8,1.1,3
		c-0.2,0.8-0.7,1.6-1.9,3l-4,4.7c-1.5,1.8-2.2,2.4-3,2.6c-1,0.3-2,0.2-3.2-0.8s-1.2-2-1.2-3.3l-1,1.1l-2.5-2.1l11.9-13.8
		c1.4-1.7,4.2-2.7,6.8-0.4c1.5,1.3,2.6,3.8,0.5,6.8L144.9,535.7z M140.4,540.9c0.7-0.8,1-1.7,0-2.5c-0.7-0.6-1.7-0.5-2.4,0.3
		l-4.1,4.8c-0.8,0.9-0.8,1.9-0.1,2.6c0.8,0.7,1.8,0.4,2.6-0.6L140.4,540.9z"/>
	<path d="M125.9,543.1l-2.4-2.2l1.2-1.3c-1.8,0-3.1-0.2-4.5-1.5l2.4-2.5c0.1,0.3,0.3,0.6,0.6,0.8c1,0.9,3,1.6,4.8-0.3l6.6-7.1
		l2.4,2.2L125.9,543.1z"/>
	<path d="M125.3,522.2L125.3,522.2c1.5-0.2,2.5-0.2,3.6,0.9c1.1,1.1,2,3-0.6,5.5c-2.6,2.6-4.6,3.1-7.5,0.3c-0.3-0.3-0.6-0.7-1-1.2
		l-1.2,1.2c-0.8,0.8-1.1,1.6-0.2,2.5c0.6,0.6,1.6,0.8,2.5,0.2l2.2,2.2c-1.1,1-2.3,1.4-3.5,1.5c-1.2,0-2.4-0.5-3.5-1.5
		c-1.9-1.9-2.2-4.7,0.2-7.1l8-8l2.3,2.3L125.3,522.2z M121.5,526c0.2,0.3,0.4,0.5,0.6,0.7c1,1,2.2,1.4,3.4,0.2
		c0.9-0.9,1-1.9,0.3-2.7c-0.8-0.8-1.8-0.7-2.7,0.2L121.5,526z"/>
	<path d="M117.2,513.4c1.2,0,2.2,0,3.3,1.2c0.9,1,1.2,2,0.8,3.1c-0.3,0.8-0.9,1.5-2.2,2.8l-4.6,4.2c-1.7,1.6-2.5,2.1-3.2,2.3
		c-1,0.2-2,0-3-1.1c-0.9-0.9-1.1-2.1-0.8-3.3l0,0l-5.9,5.4l-2.2-2.4l16.8-15.4l2.2,2.4L117.2,513.4z M116.6,518.4
		c1-0.9,1.3-1.8,0.6-2.7c-0.7-0.7-1.7-0.6-2.6,0.2l-4.6,4.3c-0.8,0.7-0.8,1.7-0.2,2.4c0.8,0.9,1.7,0.6,2.5-0.1L116.6,518.4z"/>
	<path d="M107.3,510.4l1.7-1.4c0.8-0.7,0.8-1.5,0.2-2.2c-0.8-1-1.7-0.6-2.3-0.2l-2.1-2.5c1-0.9,2.3-1.3,3.5-1.2
		c1.2,0.1,2.4,0.6,3.4,1.8c1.3,1.5,1.5,3.3,0.9,4.7c-0.3,0.9-1.1,1.7-2.1,2.6l-4.1,3.4c-1,0.8-2,1.5-2.9,1.7
		c-1.6,0.3-3.2-0.2-4.5-1.7c-1.9-2.3-1.4-5.1,0.8-7l3.4-2.9L107.3,510.4z M105.3,512l-2-2.4l-1.4,1.2c-0.9,0.8-1,1.7-0.4,2.4
		c0.6,0.8,1.5,0.8,2.4,0L105.3,512z"/>
	<path d="M104.5,501.3l-2-2.6l2.6-2l3.9,1.1L104.5,501.3z"/>
	<path d="M91.4,496.5c-1.1,0.8-2.1,1.3-3,1.4c-1.6,0.2-3.2-0.5-4.4-2.1c-1.1-1.6-1.2-3.4-0.5-4.8c0.4-0.8,1.3-1.6,2.3-2.4l4.4-3.1
		c1.1-0.8,2.1-1.3,3-1.4c1.6-0.2,3.2,0.5,4.4,2.1c1.1,1.6,1.2,3.4,0.5,4.8c-0.4,0.8-1.3,1.6-2.3,2.4L91.4,496.5z M94.3,490.5
		c1-0.7,1.2-1.6,0.6-2.4s-1.4-0.9-2.4-0.2l-5.2,3.7c-1,0.7-1.2,1.6-0.6,2.4s1.4,0.9,2.4,0.2L94.3,490.5z"/>
	<path d="M79.8,489.4l-1.8-2.7l1.4-0.9c-1.7-0.5-2.9-1-4-2.6l2.9-1.9c0.1,0.3,0.2,0.6,0.4,0.9c0.7,1.1,2.5,2.3,4.8,0.9l8.1-5.3
		l1.8,2.7L79.8,489.4z"/>
	<path d="M70.5,477c-3.2,1.8-6.2,0.3-7.5-2c-1.3-2.3-1.1-5.7,2.2-7.5l10.5-5.9c3.2-1.8,6.2-0.3,7.5,2s1.1,5.7-2.2,7.5L70.5,477z
		 M79.4,468.2c1.4-0.8,1.5-2,0.9-3s-1.7-1.5-3.1-0.8l-10.5,5.9c-1.4,0.8-1.5,2-0.9,3s1.7,1.5,3.1,0.8L79.4,468.2z"/>
	<path d="M64.7,464.1l-1.5-2.9l1.3-0.7c-1.2-0.3-2.1-0.6-2.9-2c-0.6-1.2-0.6-2.2,0.1-3.2c0.5-0.7,1.3-1.2,2.9-2.1l5.5-2.8
		c2.1-1.1,3-1.4,3.7-1.3c1,0.1,1.9,0.5,2.6,1.9c0.6,1.1,0.5,2.3-0.1,3.4v0.1l7.2-3.6l1.5,2.9L64.7,464.1z M66.5,455.9
		c-1.2,0.6-1.8,1.4-1.3,2.4c0.4,0.9,1.5,1.1,2.5,0.5l5.6-2.8c0.9-0.5,1.3-1.4,0.8-2.2c-0.6-1.1-1.5-1-2.4-0.6L66.5,455.9z"/>
	<path d="M54.6,454.7l-1.4-2.9l4.5-2.1l-0.8-1.8l2.3-1.1l0.8,1.8l8.2-3.8c1.4-0.6,1.2-1.2,0.6-2.5l2.8-1.3l0.6,1.2
		c1.2,2.7-0.2,4.4-1.8,5.2l-8.9,4.1L62,453l-2.3,1.1l-0.7-1.5L54.6,454.7z"/>
	<path d="M50.2,449.1l-1.3-3l3-1.3l1.3,3L50.2,449.1z M56.2,446.5l-1.3-3l14.9-6.5l1.3,3L56.2,446.5z"/>
	<path d="M53.6,440.7l-1.2-3l1.5-0.6V437c-1.2-0.3-2.2-0.8-2.7-2.2c-0.5-1.3-0.1-2.5,0.5-3.3c-1.1-0.4-2.1-1-2.7-2.6
		c-0.6-1.5-0.3-3.7,2.4-4.7l11.6-4.5l1.2,3l-10.5,4c-1.1,0.4-1.6,1.2-1.2,2.2c0.4,1.1,1.3,1.2,2.7,0.7l10.2-3.9l1.2,3l-10.5,4
		c-1.1,0.4-1.6,1.2-1.2,2.2c0.4,1.1,1.3,1.2,2.7,0.7l10.2-3.9l1.2,3L53.6,440.7z"/>
	<path d="M40.6,424.6l-1-3.1l3.1-1l1,3.1L40.6,424.6z M46.9,422.6l-1-3.1l15.4-5.1l1,3.1L46.9,422.6z"/>
	<path d="M58.2,413.4l-11.8-1.9l1.4,4.6L45,417l-2.5-8.2L45,408l11.6,2l-1.5-5l2.9-0.9l2.6,8.6L58.2,413.4z"/>
	<path d="M54.4,397L54.4,397c1.4,0.6,2.2,1.1,2.6,2.6c0.4,1.4,0.2,3.6-3.3,4.5c-3.6,0.9-5.6,0.4-6.6-3.6c-0.1-0.4-0.2-0.9-0.3-1.5
		l-1.6,0.4c-1.1,0.3-1.8,0.9-1.4,2.1c0.2,0.8,1,1.5,2,1.4l0.8,3.1c-1.4,0.3-2.7,0.1-3.8-0.5s-1.9-1.7-2.2-3.1
		c-0.7-2.6,0.4-5.2,3.7-6l10.9-2.8l0.8,3.1L54.4,397z M49.3,398.3c0,0.4,0.1,0.6,0.1,0.9c0.4,1.4,1.2,2.3,2.9,1.9
		c1.2-0.3,1.9-1.1,1.6-2.2c-0.3-1-1.2-1.5-2.5-1.2L49.3,398.3z"/>
	<path d="M34.1,395.9l-0.7-3.2l4.8-1.1l-0.4-2l2.5-0.6l0.4,2l8.8-2c1.5-0.3,1.4-0.9,1.1-2.3l3-0.7l0.3,1.3c0.6,2.9-1.2,4.3-2.9,4.7
		l-9.6,2.2l0.4,1.6l-2.5,0.6l-0.4-1.6L34.1,395.9z"/>
	<path d="M31.1,389.5l-0.6-3.2l3.2-0.6l0.6,3.2L31.1,389.5z M37.5,388.3l-0.6-3.2l15.9-3.2l0.6,3.2L37.5,388.3z"/>
	<path d="M41.7,381.5c-1.3,0.2-2.5,0.3-3.4,0c-1.5-0.5-2.7-1.8-3-3.8c-0.3-1.9,0.3-3.6,1.6-4.6c0.7-0.6,1.9-0.9,3.1-1.1l5.3-0.9
		c1.3-0.2,2.5-0.3,3.4,0c1.5,0.5,2.7,1.8,3,3.8c0.3,1.9-0.3,3.6-1.6,4.6c-0.7,0.6-1.9,0.9-3.1,1.1L41.7,381.5z M46.9,377.3
		c1.2-0.2,1.7-0.9,1.6-1.9c-0.2-1-0.9-1.5-2.1-1.3l-6.3,1.1c-1.2,0.2-1.7,0.9-1.6,1.9c0.2,1,0.9,1.5,2.1,1.3L46.9,377.3z"/>
	<path d="M34.3,370l-0.4-3.2l1.6-0.2v-0.1c-1.1-0.5-1.9-1.3-2.1-2.8c-0.2-1.6,0.6-3.4,3.5-3.8l12.4-1.5l0.4,3.2L38.4,363
		c-1.2,0.1-1.8,0.8-1.7,1.8c0.2,1.2,1,1.5,2.4,1.3l10.8-1.4l0.4,3.2L34.3,370z"/>
</g>
<rect x="235" y="110.4" class="st2" width="89" height="17.5"/>
<text transform="matrix(1 0 0 1 248.5713 123.8586)" class="st3 st4 st5">Articles</text>
<rect x="89.6" y="261.8" class="st2" width="89" height="17.5"/>
<text transform="matrix(1 0 0 1 96.5858 275.2516)" class="st3 st6 st5">Webinars</text>
<rect x="93.9" y="186.1" class="st2" width="210" height="17.5"/>
<text transform="matrix(1 0 0 1 117.0827 199.5551)" class="st3 st4 st5">Events/Conferences</text>
<rect x="79.1" y="223.9" class="st2" width="164.6" height="17.5"/>
<text transform="matrix(1 0 0 1 108.688 237.4034)" class="st3 st4 st5">Case Studies</text>
<rect x="167.1" y="148.2" class="st2" width="147" height="17.5"/>
<text transform="matrix(1 0 0 1 187.0151 161.7069)" class="st3 st4 st5">White Papers</text>
<rect x="357.4" y="141.4" class="st2" width="152.7" height="17.5"/>
<text transform="matrix(1 0 0 1 371.3986 154.8586)" class="st3 st4 st5">Product Demos</text>
<rect x="379.1" y="199.1" class="st2" width="192.2" height="17.5"/>
<text transform="matrix(1 0 0 1 393.4536 212.5941)" class="st3 st4 st5">Events/Conferences</text>
<rect x="433.8" y="253.2" class="st2" width="152.7" height="17.5"/>
<text transform="matrix(1 0 0 1 442.694 266.6541)" class="st3 st4 st5">Product Reviews</text>
<rect x="194.2" y="505.7" class="st2" width="89" height="17.5"/>
<text transform="matrix(1 0 0 1 200.9365 519.1999)" class="st3 st4 st5">Webinars</text>
<rect x="84.6" y="359.8" class="st2" width="89" height="17.5"/>
<text transform="matrix(1 0 0 1 106.2723 373.2516)" class="st3 st4 st5">Blogs</text>
<rect x="129.1" y="432.7" class="st2" width="89" height="17.5"/>
<text transform="matrix(1 0 0 1 145.8197 446.2258)" class="st3 st4 st5">Videos</text>
<rect x="474.6" y="373.7" class="st2" width="89" height="17.5"/>
<text transform="matrix(1 0 0 1 491.3196 387.2484)" class="st3 st4 st5">Videos</text>
<rect x="357.4" y="505.7" class="st2" width="89" height="17.5"/>
<text transform="matrix(1 0 0 1 379.0827 519.1999)" class="st3 st4 st5">Blogs</text>
<rect x="418.7" y="417.7" class="st2" width="152.7" height="17.5"/>
<text transform="matrix(1 0 0 1 434.2396 431.2322)" class="st3 st4 st5">Hands-on Labs</text>
<rect x="370.1" y="461.7" class="st2" width="152.7" height="17.5"/>
<text transform="matrix(1 0 0 1 400.5816 475.2161)" class="st3 st4 st5">Online Q&amp;A</text>
<rect x="244.8" y="263.7" class="st2" width="164" height="125.2"/>
<g class="st7">
	<path d="M285,270.3h-3.3v-0.7c0-1.5-0.6-2.8-2.3-2.8c-1.8,0-2.2,1.4-2.2,2.9c0,1.8,0.2,2.4,1.9,3l2.5,1c2.9,1.1,3.4,2.9,3.4,6.2
		c0,3.8-1.4,6.7-5.6,6.7c-3.2,0-5.6-2.3-5.6-5.4V280h3.3v1c0,1.2,0.6,2.3,2.3,2.3c2.2,0,2.4-1.3,2.4-3.4c0-2.4-0.3-2.8-1.9-3.5
		l-2.3-1c-2.8-1.2-3.6-3-3.6-5.9c0-3.5,1.9-6.2,5.6-6.2c3.3,0,5.4,2.6,5.4,5.2V270.3z"/>
	<path d="M291,263.7h2.7l5.1,22.8h-3.3l-1-4.9h-4.4l-1,4.9h-3.3L291,263.7z M292.4,270.3L292.4,270.3l-1.7,8.3h3.3L292.4,270.3z"/>
	<path d="M300.4,263.7h4.9c1.8,0,3.1,0.4,4.2,1.6s1.5,2.6,1.5,5.3c0,2-0.2,3.3-0.9,4.6c-0.9,1.5-2.3,2.4-4.7,2.4h-1.7v8.9h-3.3
		V263.7z M303.7,274.5h1.6c2.7,0,2.7-1.6,2.7-3.8c0-2.1,0-3.9-2.6-3.9h-1.7V274.5z"/>
	<path d="M313.3,263.7h3.3v3.3h-3.3V263.7z M313.3,270.3h3.3v16.2h-3.3V270.3z"/>
	<path d="M319.2,270.3h3.3v1.6h0.1c0.7-1,1.6-1.8,3.1-1.8c1.6,0,3.4,1.1,3.4,4v12.4h-3.3v-11.2c0-1.2-0.6-1.9-1.6-1.9
		c-1.2,0-1.6,0.8-1.6,2.2v10.9h-3.3V270.3z"/>
	<path d="M337.6,274.8c0-1.1-0.8-1.7-1.7-1.7c-1,0-1.6,0.8-1.6,1.6c0,0.6,0.2,1.2,1.4,1.7l1.9,0.8c2.4,0.9,3.2,2.7,3.2,4.6
		c0,2.7-2,4.9-4.9,4.9c-2.6,0-4.7-1.7-4.9-4.9h3.1c0.1,0.9,0.5,1.8,1.8,1.8c0.9,0,1.8-0.7,1.8-1.8c0-0.9-0.4-1.5-1.6-2l-1.6-0.6
		c-2-0.8-3.3-2.3-3.3-4.5c0-2.8,2.2-4.7,4.8-4.7c2.7,0,4.6,2,4.6,4.7H337.6z"/>
	<path d="M342.9,263.7h3.3v3.3h-3.3V263.7z M342.9,270.3h3.3v16.2h-3.3V270.3z"/>
	<path d="M355.4,285c-0.8,0.9-1.5,1.7-3.1,1.7c-1.3,0-2.3-0.5-2.8-1.5c-0.4-0.7-0.5-1.7-0.5-3.5v-6.2c0-2.3,0.1-3.3,0.5-3.9
		c0.5-0.9,1.3-1.5,2.9-1.5c1.3,0,2.3,0.6,3,1.7h0.1v-8h3.3v22.8h-3.3V285z M352.2,281.2c0,1.3,0.5,2.2,1.6,2.2c1,0,1.6-0.8,1.6-2
		v-6.3c0-1-0.7-1.8-1.6-1.8c-1.2,0-1.6,0.9-1.6,1.9V281.2z"/>
	<path d="M364.3,279.6v2.2c0,1,0.6,1.6,1.6,1.6c1.2,0,1.5-0.9,1.6-1.6h3.3c0,1.3-0.5,2.6-1.3,3.5c-0.9,0.9-2,1.4-3.6,1.4
		c-2,0-3.5-0.9-4.3-2.3c-0.4-0.8-0.6-2-0.6-3.3v-5.3c0-1.3,0.2-2.5,0.6-3.3c0.8-1.4,2.3-2.3,4.3-2.3c3,0,4.9,2.2,4.9,5.1v4.5H364.3z
		 M364.3,277h3.2v-1.9c0-1.2-0.6-1.9-1.6-1.9c-1,0-1.6,0.6-1.6,1.9V277z"/>
	<path d="M373.2,270.3h3.3v1.7c1.3-1.2,2.4-1.9,4.3-1.9v3.5c-0.3-0.1-0.6-0.2-1-0.2c-1.4,0-3.3,0.9-3.3,3.5v9.6h-3.3V270.3z"/>
</g>
<g class="st7">
	<path d="M286,296.7h2.7l5.1,22.8h-3.3l-1-4.9h-4.4l-1,4.9H281L286,296.7z M287.4,303.3L287.4,303.3l-1.7,8.3h3.3L287.4,303.3z"/>
	<path d="M305,319.5h-3.3v-1.6h-0.1c-0.7,1-1.6,1.8-3.1,1.8c-1.6,0-3.4-1.1-3.4-4v-12.4h3.3v11.2c0,1.2,0.6,1.9,1.6,1.9
		c1.2,0,1.6-0.8,1.6-2.2v-10.9h3.3V319.5z"/>
	<path d="M314.2,318c-0.8,0.9-1.5,1.7-3.1,1.7c-1.3,0-2.3-0.5-2.8-1.5c-0.4-0.7-0.5-1.7-0.5-3.5v-6.2c0-2.3,0.1-3.3,0.5-3.9
		c0.5-0.9,1.3-1.5,2.9-1.5c1.3,0,2.3,0.6,3,1.7h0.1v-8h3.3v22.8h-3.3V318z M311,314.2c0,1.3,0.5,2.2,1.6,2.2c1,0,1.6-0.8,1.6-2v-6.3
		c0-1-0.7-1.8-1.6-1.8c-1.2,0-1.6,0.9-1.6,1.9V314.2z"/>
	<path d="M320.2,296.7h3.3v3.3h-3.3V296.7z M320.2,303.3h3.3v16.2h-3.3V303.3z"/>
	<path d="M329.1,312.6v2.2c0,1,0.6,1.6,1.6,1.6c1.2,0,1.5-0.9,1.6-1.6h3.3c0,1.3-0.5,2.6-1.3,3.5c-0.9,0.9-2,1.4-3.6,1.4
		c-2,0-3.5-0.9-4.3-2.3c-0.4-0.8-0.6-2-0.6-3.3v-5.3c0-1.3,0.2-2.5,0.6-3.3c0.8-1.4,2.3-2.3,4.3-2.3c3,0,4.9,2.2,4.9,5.1v4.5H329.1z
		 M329.1,310h3.2v-1.9c0-1.2-0.6-1.9-1.6-1.9c-1,0-1.6,0.6-1.6,1.9V310z"/>
	<path d="M337.9,303.3h3.3v1.6h0.1c0.7-1,1.6-1.8,3.1-1.8c1.6,0,3.4,1.1,3.4,4v12.4h-3.3v-11.2c0-1.2-0.6-1.9-1.6-1.9
		c-1.2,0-1.6,0.8-1.6,2.2v10.9h-3.3V303.3z"/>
	<path d="M353.8,314.8c0,1,0.6,1.6,1.6,1.6c1.2,0,1.5-0.9,1.6-1.6h3.3c0,1.3-0.5,2.6-1.3,3.5c-0.9,0.9-2,1.4-3.6,1.4
		c-2,0-3.5-0.9-4.3-2.3c-0.4-0.8-0.6-2-0.6-3.3v-5.3c0-1.3,0.2-2.5,0.6-3.3c0.8-1.4,2.3-2.3,4.3-2.3c3,0,4.9,2.2,4.9,5.2H357
		c0-1.3-0.6-1.9-1.6-1.9s-1.6,0.6-1.6,1.9V314.8z"/>
	<path d="M365.2,312.6v2.2c0,1,0.6,1.6,1.6,1.6c1.2,0,1.5-0.9,1.6-1.6h3.3c0,1.3-0.5,2.6-1.3,3.5c-0.9,0.9-2,1.4-3.6,1.4
		c-2,0-3.5-0.9-4.3-2.3c-0.4-0.8-0.6-2-0.6-3.3v-5.3c0-1.3,0.2-2.5,0.6-3.3c0.8-1.4,2.3-2.3,4.3-2.3c3,0,4.9,2.2,4.9,5.1v4.5H365.2z
		 M365.2,310h3.2v-1.9c0-1.2-0.6-1.9-1.6-1.9c-1,0-1.6,0.6-1.6,1.9V310z"/>
</g>
<g class="st7">
	<path d="M274.1,347.4c0,2.8-2.3,5.3-5.2,5.3c-2.5,0-5.4-1.2-5.4-5.4v-12.5c0-3,2.1-5.2,5.3-5.2c3,0,5.2,2.3,5.2,5.4v1.3h-3.3v-1.1
		c0-1.3-0.8-2.4-2-2.4c-1.6,0-2,1.1-2,2.7v11.6c0,1.3,0.5,2.3,2,2.3c0.9,0,2-0.5,2-2.3V346h3.3V347.4z"/>
	<path d="M276.3,341.7c0-1.3,0.2-2.5,0.6-3.3c0.8-1.4,2.3-2.3,4.3-2.3s3.5,0.9,4.3,2.3c0.4,0.8,0.6,2,0.6,3.3v5.3
		c0,1.3-0.2,2.5-0.6,3.3c-0.8,1.4-2.3,2.3-4.3,2.3s-3.5-0.9-4.3-2.3c-0.4-0.8-0.6-2-0.6-3.3V341.7z M279.5,347.6
		c0,1.2,0.6,1.9,1.6,1.9c1,0,1.6-0.6,1.6-1.9v-6.4c0-1.2-0.6-1.9-1.6-1.9c-1,0-1.6,0.6-1.6,1.9V347.6z"/>
	<path d="M288.4,336.3h3.3v1.6h0.1c0.7-1,1.6-1.8,3.1-1.8c1.6,0,3.4,1.1,3.4,4v12.4h-3.3v-11.2c0-1.2-0.6-1.9-1.6-1.9
		c-1.2,0-1.6,0.8-1.6,2.2v10.9h-3.3V336.3z"/>
	<path d="M306.8,340.8c0-1.1-0.8-1.7-1.7-1.7c-1,0-1.6,0.8-1.6,1.6c0,0.6,0.2,1.2,1.4,1.7l1.9,0.8c2.4,0.9,3.2,2.7,3.2,4.6
		c0,2.7-2,4.9-4.9,4.9c-2.6,0-4.7-1.7-4.9-4.9h3.1c0.1,0.9,0.5,1.8,1.8,1.8c0.9,0,1.8-0.7,1.8-1.8c0-0.9-0.4-1.5-1.6-2l-1.6-0.6
		c-2-0.8-3.3-2.3-3.3-4.5c0-2.8,2.2-4.7,4.8-4.7c2.7,0,4.6,2,4.6,4.7H306.8z"/>
	<path d="M321.9,352.5h-3.3v-1.6h-0.1c-0.7,1-1.6,1.8-3.1,1.8c-1.6,0-3.4-1.1-3.4-4v-12.4h3.3v11.2c0,1.2,0.6,1.9,1.6,1.9
		c1.2,0,1.6-0.8,1.6-2.2v-10.9h3.3V352.5z"/>
	<path d="M324.6,336.3h3.3v1.6h0.1c0.7-1,1.6-1.8,3.1-1.8c1.4,0,2.3,0.8,2.9,1.6c0.8-0.9,1.7-1.6,3.4-1.6c1.6,0,3.6,1.1,3.6,4v12.4
		h-3.3v-11.2c0-1.2-0.6-1.9-1.6-1.9c-1.2,0-1.6,0.8-1.6,2.2v10.9h-3.3v-11.2c0-1.2-0.6-1.9-1.6-1.9c-1.2,0-1.6,0.8-1.6,2.2v10.9
		h-3.3V336.3z"/>
	<path d="M343.5,336.3h3.3v1.5c0.8-0.9,1.5-1.7,3.1-1.7c1.3,0,2.3,0.5,2.8,1.5c0.4,0.7,0.5,1.7,0.5,3.5v6.2c0,2.3-0.1,3.3-0.5,3.9
		c-0.5,0.9-1.3,1.5-2.9,1.5c-1.3,0-2.3-0.6-3-1.7h-0.1v8h-3.3V336.3z M350,341.5c0-1.3-0.5-2.2-1.6-2.2c-1,0-1.6,0.8-1.6,2v6.3
		c0,1,0.7,1.8,1.6,1.8c1.2,0,1.6-0.9,1.6-1.9V341.5z"/>
	<path d="M355.9,331.3h3.3v4.9h2v2.6h-2v9c0,1.5,0.6,1.6,2,1.6v3.1h-1.3c-2.9,0-3.9-2.1-3.9-3.8v-9.9h-1.6v-2.6h1.6V331.3z"/>
	<path d="M362.5,329.7h3.3v3.3h-3.3V329.7z M362.5,336.3h3.3v16.2h-3.3V336.3z"/>
	<path d="M368.1,341.7c0-1.3,0.2-2.5,0.6-3.3c0.8-1.4,2.3-2.3,4.3-2.3c2,0,3.5,0.9,4.3,2.3c0.4,0.8,0.6,2,0.6,3.3v5.3
		c0,1.3-0.2,2.5-0.6,3.3c-0.8,1.4-2.3,2.3-4.3,2.3c-2,0-3.5-0.9-4.3-2.3c-0.4-0.8-0.6-2-0.6-3.3V341.7z M371.4,347.6
		c0,1.2,0.6,1.9,1.6,1.9c1,0,1.6-0.6,1.6-1.9v-6.4c0-1.2-0.6-1.9-1.6-1.9c-1,0-1.6,0.6-1.6,1.9V347.6z"/>
	<path d="M380.3,336.3h3.3v1.6h0.1c0.7-1,1.6-1.8,3.1-1.8c1.6,0,3.4,1.1,3.4,4v12.4h-3.3v-11.2c0-1.2-0.6-1.9-1.6-1.9
		c-1.2,0-1.6,0.8-1.6,2.2v10.9h-3.3V336.3z"/>
</g>
<g class="st7">
	<path d="M297.5,362.7h3.3v9.8h4v-9.8h3.3v22.8h-3.3v-10.1h-4v10.1h-3.3V362.7z"/>
	<path d="M317.1,383.8L317.1,383.8c-0.9,1.2-1.6,1.9-3.2,1.9c-1.5,0-3.5-0.7-3.5-4.3c0-3.7,1.1-5.5,5.2-5.5c0.4,0,0.9,0.1,1.6,0.1
		v-1.7c0-1.1-0.4-1.9-1.6-1.9c-0.8,0-1.7,0.6-1.9,1.6h-3.2c0.1-1.4,0.6-2.7,1.5-3.5c0.9-0.9,2.1-1.4,3.6-1.4c2.7,0,4.9,1.7,4.9,5.1
		v11.3h-3.3V383.8z M317.1,378.5c-0.4-0.1-0.6-0.1-0.9-0.1c-1.4,0-2.6,0.6-2.6,2.3c0,1.2,0.6,2.1,1.7,2.1c1.1,0,1.8-0.8,1.8-2.1
		V378.5z"/>
	<path d="M322.8,362.7h3.3v8h0.1c0.7-1.1,1.7-1.7,3-1.7c1.6,0,2.4,0.6,2.9,1.5c0.4,0.7,0.5,1.6,0.5,3.9v6.2c0,1.8-0.2,2.8-0.5,3.5
		c-0.6,1.1-1.5,1.5-2.8,1.5c-1.6,0-2.3-0.7-3.1-1.7v1.5h-3.3V362.7z M329.3,374.2c0-1-0.4-1.9-1.6-1.9c-0.9,0-1.6,0.7-1.6,1.8v6.3
		c0,1.2,0.6,2,1.6,2c1.1,0,1.6-0.9,1.6-2.2V374.2z"/>
	<path d="M335.3,362.7h3.3v3.3h-3.3V362.7z M335.3,369.3h3.3v16.2h-3.3V369.3z"/>
	<path d="M341.2,364.3h3.3v4.9h2v2.6h-2v9c0,1.5,0.6,1.6,2,1.6v3.1h-1.3c-2.9,0-3.9-2.1-3.9-3.8v-9.9h-1.6v-2.6h1.6V364.3z"/>
	<path d="M353.7,373.8c0-1.1-0.8-1.7-1.7-1.7c-1,0-1.6,0.8-1.6,1.6c0,0.6,0.2,1.2,1.4,1.7l1.9,0.8c2.4,0.9,3.2,2.7,3.2,4.6
		c0,2.7-2,4.9-4.9,4.9c-2.6,0-4.7-1.7-4.9-4.9h3.1c0.1,0.9,0.5,1.8,1.8,1.8c0.9,0,1.8-0.7,1.8-1.8c0-0.9-0.4-1.5-1.6-2l-1.6-0.6
		c-2-0.8-3.3-2.3-3.3-4.5c0-2.8,2.2-4.7,4.8-4.7c2.7,0,4.6,2,4.6,4.7H353.7z"/>
</g>
<g>
	<polygon class="st8" points="258.5,254 258.6,234.1 238.5,254.2 	"/>
	<polygon class="st8" points="395.1,254 415.1,254.2 395,234.1 	"/>
</g>
<g>
	<polygon class="st8" points="395.1,394.6 395,414.5 415.1,394.5 	"/>
	<polygon class="st8" points="258.5,394.6 238.5,394.5 258.6,414.5 	"/>
</g>
</svg>
