<?xml version="1.0" encoding="utf-8"?>
<!-- Generator: Adobe Illustrator 21.1.0, SVG Export Plug-In . SVG Version: 6.00 Build 0)  -->
<svg version="1.1" id="Layer_1" xmlns="http://www.w3.org/2000/svg" xmlns:xlink="http://www.w3.org/1999/xlink" x="0px" y="0px"
	 viewBox="0 0 59 58.3" style="enable-background:new 0 0 59 58.3;" xml:space="preserve">
<style type="text/css">
	.st0{fill:#FABB30;}
	.st1{fill:#FFFFFF;}
</style>
<path class="st0" d="M38.8,33.4c0.2-1.3,0.3-2.8,0.3-4.2s-0.1-2.9-0.3-4.2h7.1c0.3,1.3,0.5,2.8,0.5,4.2c0,1.4-0.2,2.9-0.5,4.2H38.8z
	 M33.6,45.5c2.3-2,4-5.7,4.9-10.2h6.7C43.3,40.3,38.9,44.2,33.6,45.5 M30.5,45.1v-9.9h6C35.5,40.5,33.2,44.4,30.5,45.1 M30.5,24.9
	h6.3c0.2,1.3,0.3,2.8,0.3,4.2S37,32,36.8,33.4h-6.3V24.9z M30.5,13.2c2.7,0.8,5,4.7,6,9.9h-6V13.2z M45.2,23h-6.7
	c-0.8-4.6-2.6-8.2-4.9-10.2C38.9,14.1,43.3,18,45.2,23 M28.6,23h-6c1-5.2,3.3-9.1,6-9.9V23z M28.6,33.4h-6.3
	c-0.2-1.3-0.3-2.8-0.3-4.2s0.1-2.9,0.3-4.2h6.3V33.4z M28.6,45.1c-2.7-0.8-5-4.7-6-9.9h6V45.1z M13.8,35.3h6.7
	c0.8,4.6,2.6,8.2,4.9,10.2C20.1,44.2,15.8,40.3,13.8,35.3 M12.6,29.1c0-1.5,0.2-2.9,0.5-4.2h7.1c-0.2,1.3-0.3,2.8-0.3,4.2
	s0.1,2.9,0.3,4.2h-7.1C12.8,32,12.6,30.6,12.6,29.1 M25.4,12.8c-2.3,2-4,5.7-4.9,10.2h-6.7C15.8,18,20.1,14.1,25.4,12.8 M29.5,9.4
	c-10.9,0-19.8,8.9-19.8,19.8c0,10.9,8.9,19.8,19.8,19.8S49.3,40,49.3,29.1C49.3,18.2,40.4,9.4,29.5,9.4"/>
<path class="st1" d="M25.7,54.2h2.9v3.9h1.9v-3.9h2.9l-3.9-3.9L25.7,54.2z M9.1,44.2l2,2l-2.7,2.7l1.4,1.4l2.7-2.7l2,2v-5.5H9.1z
	 M44.5,44.2v5.5l2-2l2.7,2.7l1.4-1.4l-2.7-2.7l2-2H44.5z M4.4,28.2H0.6v1.9h3.9V33l3.9-3.9l-3.9-3.9V28.2z M50.7,29.2l3.9,3.9v-2.9
	h3.9v-1.9h-3.9v-2.9L50.7,29.2z M8.4,9.4l2.7,2.7l-2,2h5.5V8.7l-2,2L9.7,8L8.4,9.4z M46.6,10.7l-2-2l0,5.5H50l-2-2l2.7-2.7L49.3,8
	L46.6,10.7z M28.6,0.2v3.9h-2.9l3.9,3.9l3.9-3.9h-2.9V0.2H28.6z"/>
</svg>
