<?xml version="1.0" encoding="utf-8"?>
<!-- Generator: Adobe Illustrator 21.1.0, SVG Export Plug-In . SVG Version: 6.00 Build 0)  -->
<svg version="1.1" id="Layer_1" xmlns="http://www.w3.org/2000/svg" xmlns:xlink="http://www.w3.org/1999/xlink" x="0px" y="0px"
	 viewBox="0 0 65.5 50.8" style="enable-background:new 0 0 65.5 50.8;" xml:space="preserve">
<style type="text/css">
	.st0{fill:#FABB30;}
	.st1{fill:#FFFFFF;}
</style>
<g>
	<path class="st0" d="M57.8,28.7c-1-0.5-2.5-1.6-5.5-3.9c-2.8-2.1-6.7-5.1-8.5-6c-3.4-1.6-8.5-4.3-10.3-5.3c-2.7,0-5.6,0.1-7.2,0.2
		c-0.1,0.1-0.1,0.2-0.2,0.3c-1.2,2.3-2.9,5.7-5.8,6.8c-1,0.4-2.2,0.6-3.4,0.6c-1.9,0-3.3-0.6-4.1-1.6c-0.6-0.7-0.8-1.6-0.6-2.5
		c0.3-2.5,0.9-7.4,2.5-10.7c-1.4-0.6-3.6-1.7-5.3-2.6C8,3.2,7,3.9,7,3.9C6.3,4.3,6,5.2,6,5.2L1,19.3c0,0-0.4,1.4-0.3,2.2
		c0.1,0.6,0.2,1.2,1.3,2c1.3,1,3.1,2.4,4.1,3.7c0.8,1,1,2.3,1.4,3.7c1-1.2,2.4-2,4.1-2c0.3,0,0.7,0,1,0.1c1.7,0.4,3,1.7,3.6,3.2
		c0.6-0.2,1.2-0.3,1.8-0.3c0.9,0,1.7,0.2,2.4,0.7c1,0.6,1.7,1.5,2.1,2.6c0.3-0.1,0.7-0.1,1-0.1c1,0,1.9,0.3,2.8,0.8
		c1.6,1,2.4,2.8,2.2,5c0.8,0,1.5,0.2,2.1,0.6c2.1,1.3,2.6,4.6,2,7.1l0,0.1l0,0.1c0.3,0.3,0.7,0.6,1,0.7c4.3,1.8,6.7-2,6.1-3.8
		c1.5,1.1,4.6,0.5,6-1c1.5-1.5,0.7-4.2,0.7-4.2s4,2.3,6.9-0.6c1.9-1.9,0.4-4.2,0.4-4.2s3.8,1.5,5.6-1C61,32.3,59.9,30.4,57.8,28.7"
		/>
	<path class="st1" d="M28.3,49.7c-0.5,0-1-0.2-1.4-0.5c-1.4-0.9-1.7-2.5-0.8-3.8l0.3-0.5c0.9-1.4,3-1.9,4-1.3
		c0.8,0.5,1.2,2.5,0.8,4.1L31.1,48C30.2,49.7,29.3,49.8,28.3,49.7"/>
	<path class="st1" d="M14.9,17.7c0,0,0.9-9.4,3.2-11.5c2.3-2.1,4.1-2.6,7.3-3.2c3.1-0.5,10-2.8,12.3-2.1c2.3,0.7,6.2,1.7,8.6,2.2
		c2.3,0.5,5.1,2.2,6.5,2.3c0.8,0.1,2.7-0.9,4.3-1.6c0.8-0.4,1.5-0.1,2,0.2c0.8,0.5,1,1.4,1,1.4L64.7,20c0,0,0.2,0.8,0.2,1.5
		c-0.1,0.5-0.2,1-1.1,1.6c-1.7,1.1-4,2.7-4.3,3.2C59,27,49,18.2,44.9,16.4s-10.8-5.6-10.8-5.6s-8.7,0.2-9.3,0.2
		c-0.7,0.1-2.5,6.1-5.5,7.3C17.5,19,14.5,18.8,14.9,17.7"/>
	<path class="st1" d="M11,38.9c-0.1,0-0.3,0-0.4-0.1C9,38.5,8,36.9,8.4,35.3l0.2-0.8c0.4-1.6,1.9-3.4,3.4-3.1c1.6,0.4,2.4,2.6,2,4.2
		l-0.2,1.1C13.5,38.2,12.5,39,11,38.9"/>
	<path class="st1" d="M16,42.9c-0.4,0-0.7,0-1.2-0.2c-1.4-0.8-2-2.8-1.2-4.2l1.4-2c0.8-1.4,2.7-2.5,4.1-1.7c1.4,0.8,1.1,2.8,0.5,4.2
		l-1.1,2.3C17.9,42.3,17.1,42.9,16,42.9"/>
	<path class="st1" d="M22.7,46.2c-0.5,0-0.9-0.2-1.3-0.4c-1.4-0.8-1.8-2.7-1-4.1l1.8-2.6c0.8-1.4,2.4-2,3.8-1.1
		c1.4,0.8,0.9,3.3,0.3,4.8l-0.9,2C24.9,45.8,23.8,46.3,22.7,46.2"/>
</g>
</svg>
