<?xml version="1.0" encoding="utf-8"?>
<!-- Generator: Adobe Illustrator 21.1.0, SVG Export Plug-In . SVG Version: 6.00 Build 0)  -->
<svg version="1.1" id="Layer_1" xmlns="http://www.w3.org/2000/svg" xmlns:xlink="http://www.w3.org/1999/xlink" x="0px" y="0px"
	 viewBox="0 0 250 250" style="enable-background:new 0 0 250 250;" xml:space="preserve">
<style type="text/css">
	.st0{fill:none;stroke:#58595B;stroke-width:7;stroke-miterlimit:10;}
	.st1{fill:#1072BA;}
	.st2{fill:none;stroke:#1072BA;stroke-width:5;stroke-linecap:round;stroke-miterlimit:10;}
</style>
<circle class="st0" cx="124.9" cy="125" r="111.9"/>
<g>
	<path class="st1" d="M158.3,67.9c6.3,0,12.3,2.5,16.8,6.9c9.2,9.2,9.2,24.3,0,33.5l-29.9,29.9l-33.5-33.5l29.9-29.9
		C146,70.4,151.9,67.9,158.3,67.9 M158.3,62.9c-7.3,0-14.7,2.8-20.3,8.4l-33.4,33.4l40.6,40.6l33.4-33.4c11.2-11.2,11.2-29.4,0-40.6
		l0,0C172.9,65.7,165.6,62.9,158.3,62.9L158.3,62.9z"/>
</g>
<g>
	<path class="st1" d="M104.6,104.7l40.6,40.6l-33.4,33.4c-11.2,11.2-29.4,11.2-40.6,0l0,0c-11.2-11.2-11.2-29.4,0-40.6L104.6,104.7z
		"/>
</g>
<path class="st2" d="M125.1,101l17.8-17.8c8.5-8.5,20.6-10.1,27.1-3.6l0,0"/>
</svg>
