<?xml version="1.0" encoding="utf-8"?>
<!-- Generator: Adobe Illustrator 21.1.0, SVG Export Plug-In . SVG Version: 6.00 Build 0)  -->
<svg version="1.1" id="Layer_1" xmlns="http://www.w3.org/2000/svg" xmlns:xlink="http://www.w3.org/1999/xlink" x="0px" y="0px"
	 viewBox="0 0 250 250" style="enable-background:new 0 0 250 250;" xml:space="preserve">
<style type="text/css">
	.st0{fill:none;stroke:#58595B;stroke-width:6;stroke-miterlimit:10;}
	.st1{fill:#1072BA;}
</style>
<circle class="st0" cx="124.9" cy="125" r="111.9"/>
<g>
	<path class="st1" d="M127.1,207.6c0,0-30.8,1.3-45.1-19.1S75,140,86.3,122.6s46-67.2,40.8-82c0,0,27.3,55.1,34.3,72
		c6.9,16.9,14.3,30.8,14.3,50.3s-15.8,39.5-33.1,42.9c0,0,16.5-17.3,9.6-36.1c-7.5-20.7-28.1-26.1-20.4-53.9
		c0,0-19.2,21.1-14.7,36.1c4.2,14.1,15.5,21.9,15.5,21.9s-21.6,5.5-26.7-20.3C105.7,153.6,92.4,184.7,127.1,207.6z"/>
</g>
</svg>
