<?xml version="1.0" encoding="utf-8"?>
<!-- Generator: Adobe Illustrator 21.1.0, SVG Export Plug-In . SVG Version: 6.00 Build 0)  -->
<svg version="1.1" id="Layer_1" xmlns="http://www.w3.org/2000/svg" xmlns:xlink="http://www.w3.org/1999/xlink" x="0px" y="0px"
	 viewBox="0 0 63.3 58.6" style="enable-background:new 0 0 63.3 58.6;" xml:space="preserve">
<style type="text/css">
	.st0{fill:#FFFFFF;}
	.st1{fill:#FDB813;}
	.st2{fill:none;stroke:#FDB813;stroke-width:5;stroke-linecap:round;stroke-linejoin:round;stroke-miterlimit:10;}
	.st3{fill:none;stroke:#FDB813;stroke-width:3.5;stroke-linecap:round;stroke-linejoin:round;stroke-miterlimit:10;}
</style>
<path class="st0" d="M17.4,52.8l4-6.8l-9-9l-6.8,4L3.9,51.5c-0.5,0.1-0.9,0.3-1.3,0.7c-1,1-1,2.5,0,3.5c1,1,2.5,1,3.5,0
	c0.4-0.4,0.6-0.8,0.7-1.3L17.4,52.8z M11.5,48.2L6.7,53c-0.1-0.3-0.3-0.6-0.5-0.8c-0.2-0.2-0.5-0.4-0.8-0.5l4.8-4.8
	c-0.2-0.7,0-1.4,0.5-1.9c0.8-0.8,2-0.8,2.8,0c0.8,0.8,0.8,2,0,2.8C12.9,48.2,12.2,48.4,11.5,48.2z"/>
<polygon class="st0" points="34.9,35.3 23.1,23.5 14.1,35.3 23,44.3 "/>
<path class="st1" d="M24.9,21.7l11.8,11.8l17.9-17.9c3.3-3.3,3.3-8.5,0-11.8l0,0c-3.3-3.3-8.5-3.3-11.8,0L24.9,21.7z"/>
<path class="st2" d="M51.9,13.9l3.4,3.4c1.6,1.6,1.6,4.3,0,5.9L42.3,36.1"/>
<path class="st3" d="M22.4,54.9c0,0,3.4,2.2,5.4-0.9c2-3.1,3.5-7.3,5.3-7.6c1.8-0.3,1.5,3,1.5,4.2c0,1.2,0.6,4.8,3.2,4.7
	c2-0.2,2.7-2,3.2-3.6c0.4-1.6,2.4-4.2,3.3-1.3c0.9,2.8,1.9,4.9,3.2,4.9c1.3,0,2.6-1.4,3.1-3.2c0.5-1.8,1.3-2.5,2.1-2
	c0.6,0.1,0.4,3.2,1.3,4.3c0.9,1,2.9,1.6,5.8,0.2"/>
</svg>
