<?xml version="1.0" encoding="utf-8"?>
<!-- Generator: Adobe Illustrator 21.1.0, SVG Export Plug-In . SVG Version: 6.00 Build 0)  -->
<svg version="1.1" id="Layer_1" xmlns="http://www.w3.org/2000/svg" xmlns:xlink="http://www.w3.org/1999/xlink" x="0px" y="0px"
	 viewBox="0 0 250 250" style="enable-background:new 0 0 250 250;" xml:space="preserve">
<style type="text/css">
	.st0{fill:none;stroke:#58595B;stroke-width:6;stroke-miterlimit:10;}
	.st1{fill:none;stroke:#1072BA;stroke-width:8;stroke-miterlimit:10;}
	.st2{fill:none;stroke:#1072BA;stroke-width:4;stroke-miterlimit:10;}
	.st3{fill-rule:evenodd;clip-rule:evenodd;fill:none;stroke:#1072BA;stroke-width:4;stroke-miterlimit:10;}
	.st4{fill:#1072BA;}
</style>
<circle class="st0" cx="124.9" cy="125" r="111.9"/>
<g>
	<path class="st1" d="M168.3,119.1H81.7c0-23.9,19.4-43.3,43.3-43.3S168.3,95.1,168.3,119.1z"/>
	<g>
		<line class="st2" x1="124.9" y1="71.8" x2="124.9" y2="50.4"/>
	</g>
	<polygon class="st3" points="140.8,56.3 124.9,49.9 124.9,62.7 	"/>
	<path class="st4" d="M182.6,169.4v-30.8V124v-6H67.1v6v14.7v30.8h-10v17.7h135.8v-17.7H182.6z M86.4,169.4l0.1-30.8
		c0.2-3.3,3-5.9,6.3-5.9c3.4,0,6.1,2.6,6.3,5.9l0,30.8H86.4z M131.3,169.4h-12.8l0.1-30.8c0.2-3.3,3-5.9,6.3-5.9
		c3.4,0,6.1,2.6,6.3,5.9L131.3,169.4z M163.3,169.4h-12.8l0.1-30.8c0.2-3.3,3-5.9,6.3-5.9c3.4,0,6.1,2.6,6.3,5.9L163.3,169.4z"/>
</g>
</svg>
