<?xml version="1.0" encoding="utf-8"?>
<!-- Generator: Adobe Illustrator 21.1.0, SVG Export Plug-In . SVG Version: 6.00 Build 0)  -->
<svg version="1.1" id="Layer_1" xmlns="http://www.w3.org/2000/svg" xmlns:xlink="http://www.w3.org/1999/xlink" x="0px" y="0px"
	 viewBox="0 0 250 250" style="enable-background:new 0 0 250 250;" xml:space="preserve">
<style type="text/css">
	.st0{fill:none;stroke:#1072BA;stroke-width:7;stroke-miterlimit:10;}
	.st1{fill:none;stroke:#58595B;stroke-width:7;stroke-miterlimit:10;}
</style>
<path class="st0" d="M97.8,233.1v-83c0-9.9-8.1-18-18-18H61.1"/>
<path class="st0" d="M113.5,236.9V119.6c0-9.9-8.1-18-18-18H15.4"/>
<path class="st0" d="M128,237.2V89.9c0-9.9-8.1-18-18-18H89.9"/>
<circle class="st0" cx="78" cy="71.9" r="13.6"/>
<circle class="st0" cx="48.2" cy="132.1" r="13.6"/>
<path class="st0" d="M143.6,236.6v-77c0-9.9,8.1-18,18-18h18.7"/>
<circle class="st0" cx="193.3" cy="141.6" r="13.6"/>
<path class="st0" d="M143.6,13.4v55c0,9.9,8.1,18,18,18h18.7"/>
<circle class="st0" cx="193.3" cy="86.4" r="13.6"/>
<circle class="st1" cx="124.9" cy="125" r="111.9"/>
</svg>
