<?xml version="1.0" encoding="utf-8"?>
<!-- Generator: Adobe Illustrator 21.1.0, SVG Export Plug-In . SVG Version: 6.00 Build 0)  -->
<svg version="1.1" id="Layer_1" xmlns="http://www.w3.org/2000/svg" xmlns:xlink="http://www.w3.org/1999/xlink" x="0px" y="0px"
	 viewBox="0 0 57.9 29" style="enable-background:new 0 0 57.9 29;" xml:space="preserve">
<style type="text/css">
	.st0{fill:#FDB813;}
</style>
<path class="st0" d="M54.6,0.3H3.3c-1.6,0-2.9,1.3-2.9,2.9v17.6c0,1.6,1.3,2.9,2.9,2.9h3.6L5.5,28c-0.1,0.4,0.3,0.8,0.7,0.6l9.3-4.9
	h39c1.6,0,2.9-1.3,2.9-2.9V3.2C57.5,1.6,56.2,0.3,54.6,0.3z M11.9,10.9l-2,2c-0.1,0.1-0.1,0.2-0.1,0.3l0.5,2.8
	c0.1,0.3-0.2,0.5-0.5,0.3l-2.5-1.3c-0.1-0.1-0.2-0.1-0.3,0l-2.5,1.4C4.2,16.4,3.9,16.3,4,16l0.5-2.8c0-0.1,0-0.2-0.1-0.3l-2-2
	c-0.2-0.2-0.1-0.5,0.2-0.5l2.8-0.4c0.1,0,0.2-0.1,0.3-0.2l1.2-2.6c0.1-0.3,0.5-0.3,0.6,0l1.2,2.6c0.1,0.1,0.2,0.2,0.3,0.2l2.8,0.4
	C12,10.4,12.1,10.7,11.9,10.9z M22.8,10.9l-2,2c-0.1,0.1-0.1,0.2-0.1,0.3l0.5,2.8c0.1,0.3-0.2,0.5-0.5,0.3l-2.5-1.3
	c-0.1-0.1-0.2-0.1-0.3,0l-2.5,1.4c-0.2,0.1-0.5-0.1-0.5-0.3l0.5-2.8c0-0.1,0-0.2-0.1-0.3l-2-2c-0.2-0.2-0.1-0.5,0.2-0.5l2.8-0.4
	c0.1,0,0.2-0.1,0.3-0.2l1.2-2.6c0.1-0.3,0.5-0.3,0.6,0l1.2,2.6c0.1,0.1,0.2,0.2,0.3,0.2l2.8,0.4C22.9,10.4,23,10.7,22.8,10.9z
	 M33.7,10.9l-2,2c-0.1,0.1-0.1,0.2-0.1,0.3l0.5,2.8c0.1,0.3-0.2,0.5-0.5,0.3L29,14.9c-0.1-0.1-0.2-0.1-0.3,0l-2.5,1.4
	c-0.2,0.1-0.5-0.1-0.5-0.3l0.5-2.8c0-0.1,0-0.2-0.1-0.3l-2-2c-0.2-0.2-0.1-0.5,0.2-0.5l2.8-0.4c0.1,0,0.2-0.1,0.3-0.2l1.2-2.6
	c0.1-0.3,0.5-0.3,0.6,0l1.2,2.6c0.1,0.1,0.2,0.2,0.3,0.2l2.8,0.4C33.8,10.4,33.9,10.7,33.7,10.9z M44.6,10.9l-2,2
	c-0.1,0.1-0.1,0.2-0.1,0.3l0.5,2.8c0.1,0.3-0.2,0.5-0.5,0.3l-2.5-1.3c-0.1-0.1-0.2-0.1-0.3,0l-2.5,1.4c-0.2,0.1-0.5-0.1-0.5-0.3
	l0.5-2.8c0-0.1,0-0.2-0.1-0.3l-2-2c-0.2-0.2-0.1-0.5,0.2-0.5L38,9.9c0.1,0,0.2-0.1,0.3-0.2l1.2-2.6c0.1-0.3,0.5-0.3,0.6,0l1.2,2.6
	c0.1,0.1,0.2,0.2,0.3,0.2l2.8,0.4C44.7,10.4,44.8,10.7,44.6,10.9z M55.5,10.9l-2,2c-0.1,0.1-0.1,0.2-0.1,0.3l0.5,2.8
	c0.1,0.3-0.2,0.5-0.5,0.3l-2.5-1.3c-0.1-0.1-0.2-0.1-0.3,0l-2.5,1.4c-0.2,0.1-0.5-0.1-0.5-0.3l0.5-2.8c0-0.1,0-0.2-0.1-0.3l-2-2
	c-0.2-0.2-0.1-0.5,0.2-0.5l2.8-0.4c0.1,0,0.2-0.1,0.3-0.2l1.2-2.6c0.1-0.3,0.5-0.3,0.6,0l1.2,2.6c0.1,0.1,0.2,0.2,0.3,0.2l2.8,0.4
	C55.6,10.4,55.7,10.7,55.5,10.9z"/>
</svg>
