<?xml version="1.0" encoding="utf-8"?>
<!-- Generator: Adobe Illustrator 21.1.0, SVG Export Plug-In . SVG Version: 6.00 Build 0)  -->
<svg version="1.1" id="Layer_1" xmlns="http://www.w3.org/2000/svg" xmlns:xlink="http://www.w3.org/1999/xlink" x="0px" y="0px"
	 viewBox="0 0 57.9 29" style="enable-background:new 0 0 57.9 29;" xml:space="preserve">
<style type="text/css">
	.st0{fill:#FDB813;}
	.st1{fill:#FFFFFF;}
</style>
<path class="st0" d="M54.6,0.3H3.3c-1.6,0-2.9,1.3-2.9,2.9v17.6c0,1.6,1.3,2.9,2.9,2.9h3.6L5.5,28c-0.1,0.4,0.3,0.8,0.7,0.6l9.3-4.9
	h39c1.6,0,2.9-1.3,2.9-2.9V3.2C57.5,1.6,56.2,0.3,54.6,0.3z"/>
<path class="st1" d="M29.5,3.6l2.3,4.8c0.1,0.2,0.3,0.3,0.5,0.3l5.3,0.8c0.5,0.1,0.7,0.7,0.3,1l-3.8,3.7c-0.1,0.1-0.2,0.3-0.2,0.5
	l0.9,5.2c0.1,0.5-0.4,0.9-0.9,0.6l-4.7-2.5c-0.2-0.1-0.4-0.1-0.6,0L24,20.6c-0.4,0.2-1-0.1-0.9-0.6l0.9-5.2c0-0.2,0-0.4-0.2-0.5
	L20,10.5c-0.4-0.4-0.2-1,0.3-1l5.3-0.8c0.2,0,0.4-0.2,0.5-0.3l2.3-4.8C28.6,3.1,29.3,3.1,29.5,3.6z"/>
</svg>
