<?xml version="1.0" encoding="utf-8"?>
<!-- Generator: Adobe Illustrator 21.1.0, SVG Export Plug-In . SVG Version: 6.00 Build 0)  -->
<svg version="1.1" id="Layer_1" xmlns="http://www.w3.org/2000/svg" xmlns:xlink="http://www.w3.org/1999/xlink" x="0px" y="0px"
	 viewBox="0 0 57.9 29" style="enable-background:new 0 0 57.9 29;" xml:space="preserve">
<style type="text/css">
	.st0{fill:#FDB813;}
</style>
<path class="st0" d="M54.6,0.3H3.3c-1.6,0-2.9,1.3-2.9,2.9v17.6c0,1.6,1.3,2.9,2.9,2.9h3.6L5.5,28c-0.1,0.4,0.3,0.8,0.7,0.6l9.3-4.9
	h39c1.6,0,2.9-1.3,2.9-2.9V3.2C57.5,1.6,56.2,0.3,54.6,0.3z M17.7,11.1l-2.4,2.4c-0.1,0.1-0.2,0.3-0.2,0.5l0.6,3.4
	c0.1,0.5-0.4,0.8-0.8,0.6l-3-1.6c-0.2-0.1-0.4-0.1-0.5,0l-3,1.6c-0.4,0.2-0.9-0.1-0.8-0.6L7.9,14c0-0.2,0-0.4-0.2-0.5l-2.4-2.4
	c-0.3-0.3-0.2-0.9,0.3-1L9,9.7c0.2,0,0.4-0.1,0.4-0.3L11,6.3c0.2-0.4,0.8-0.4,1,0l1.5,3.1c0.1,0.2,0.2,0.3,0.4,0.3l3.4,0.5
	C17.8,10.2,18,10.8,17.7,11.1z M35.1,11.1l-2.4,2.4c-0.1,0.1-0.2,0.3-0.2,0.5l0.6,3.4c0.1,0.5-0.4,0.8-0.8,0.6l-3-1.6
	c-0.2-0.1-0.4-0.1-0.5,0l-3,1.6c-0.4,0.2-0.9-0.1-0.8-0.6l0.6-3.4c0-0.2,0-0.4-0.2-0.5l-2.4-2.4c-0.3-0.3-0.2-0.9,0.3-1l3.4-0.5
	c0.2,0,0.4-0.1,0.4-0.3l1.5-3.1c0.2-0.4,0.8-0.4,1,0L31,9.3c0.1,0.2,0.2,0.3,0.4,0.3l3.4,0.5C35.3,10.2,35.5,10.8,35.1,11.1z
	 M52.6,11.1l-2.4,2.4c-0.1,0.1-0.2,0.3-0.2,0.5l0.6,3.4c0.1,0.5-0.4,0.8-0.8,0.6l-3-1.6c-0.2-0.1-0.4-0.1-0.5,0l-3,1.6
	c-0.4,0.2-0.9-0.1-0.8-0.6l0.6-3.4c0-0.2,0-0.4-0.2-0.5l-2.4-2.4c-0.3-0.3-0.2-0.9,0.3-1l3.4-0.5c0.2,0,0.4-0.1,0.4-0.3l1.5-3.1
	c0.2-0.4,0.8-0.4,1,0l1.5,3.1c0.1,0.2,0.2,0.3,0.4,0.3l3.4,0.5C52.7,10.2,52.9,10.8,52.6,11.1z"/>
</svg>
