<?xml version="1.0" encoding="utf-8"?>
<!-- Generator: Adobe Illustrator 21.1.0, SVG Export Plug-In . SVG Version: 6.00 Build 0)  -->
<svg version="1.1" id="Layer_1" xmlns="http://www.w3.org/2000/svg" xmlns:xlink="http://www.w3.org/1999/xlink" x="0px" y="0px"
	 viewBox="0 0 173.4 173.4" style="enable-background:new 0 0 173.4 173.4;" xml:space="preserve">
<style type="text/css">
	.st0{display:none;}
	.st1{display:inline;}
	.st2{fill:#34A7FF;}
	.st3{fill:#FFFFFF;}
	.st4{fill:#CCCCCC;}
	.st5{fill:none;}
	.st6{display:inline;fill:#FFFFFF;}
	.st7{display:inline;fill:none;}
	.st8{display:inline;fill:#FDB813;}
	.st9{fill:#FDB813;}
	.st10{display:inline;fill:none;stroke:#FDB813;stroke-width:3;stroke-miterlimit:10;}
	.st11{fill:#6D6E71;}
	.st12{display:inline;fill:#6D6E71;}
</style>
<g id="Branding_B" class="st0">
	<g class="st1">
		<path class="st2" d="M47.9,97.1L63.8,89l-3.9-7.5c-13.2,8.3-17.7,26.7-10.5,43.1l10-5.1L47.9,97.1z"/>
		<path class="st2" d="M70.5,96.2l-8.8,4.5l5.9,11.5l9.5-4.9c3.3-1.7,4.9-4.7,2.7-8.8C77.5,93.8,73.8,94.4,70.5,96.2z"/>
		<path class="st2" d="M68.1,86.7c8.2-4.2,15.2-4,20,5.2c0.4,0.8,0.7,1.5,0.9,2.3l6.9-9.2c-9.4-7.5-21.4-10-31.8-5.7l3.9,7.5
			L68.1,86.7z"/>
		<path class="st2" d="M73.3,146.4l-11.5-22.3l-10,5.1c9.2,15.4,26.8,22.4,41.2,16.5l-3.9-7.5L73.3,146.4z"/>
		<path class="st2" d="M86.7,2.4C40.1,2.4,2.4,40.1,2.4,86.7S40.2,171,86.7,171c46.6,0,84.3-37.8,84.3-84.3
			C171,40.1,133.3,2.4,86.7,2.4z M83.9,40.8c0.5-3.3,2.2-6.2,4.9-8.2c1.2-0.9,2.9-0.7,3.8,0.5s0.7,2.9-0.5,3.8
			c-3.1,2.4-3.8,6.8-1.4,9.9c4.1,5.5,3,13.3-2.5,17.5c-0.5,0.4-1.1,0.5-1.6,0.5c-0.8,0-1.6-0.4-2.2-1.1c-0.9-1.2-0.7-2.9,0.5-3.8
			c3.1-2.4,3.8-6.8,1.4-9.9C84.3,47.4,83.5,44.1,83.9,40.8z M57.7,29.8c0.9-1.2,2.6-1.4,3.8-0.5s1.4,2.6,0.5,3.8
			c-1.3,1.7-1.9,3.9-1.7,6c0.3,2.2,1.4,4.1,3.1,5.4c5.9,4.6,7,13.1,2.4,19c-0.5,0.7-1.3,1-2.1,1c-0.6,0-1.2-0.2-1.7-0.6
			c-1.2-0.9-1.4-2.6-0.5-3.8c1.3-1.7,1.9-3.9,1.7-6c-0.3-2.2-1.4-4.1-3.1-5.4c-2.9-2.2-4.7-5.4-5.1-9C54.5,36.2,55.5,32.7,57.7,29.8
			z M36.2,64.6c-6.6-1.9-10.4-8.8-8.5-15.5c0.4-1.4,1.9-2.3,3.3-1.8c1.4,0.4,2.3,1.9,1.8,3.3c-1.1,3.8,1.1,7.7,4.9,8.8
			c6.6,1.9,10.4,8.8,8.5,15.5c-0.3,1.2-1.4,1.9-2.6,1.9c-0.2,0-0.5,0-0.7-0.1c-1.4-0.4-2.3-1.9-1.8-3.3C42.1,69.6,40,65.6,36.2,64.6
			z M140.5,46.4l-13.6,13.9c-1.5,1.5-4,1.7-6.2,0.7l-17.9,23.8c3.1,3.2,5.8,6.9,8,11.1c10.5,20.4,4.7,44.5-13.1,53.6
			c-17.7,9.1-40.7,0-51.3-20.5s-4.7-44.5,13.1-53.6C72,69,87.2,71.8,98.8,81.2l17.5-23.3c-1.8-2-2.3-4.7-1.1-6.6l10.2-16.6
			c2.6-4.2,8.1-5.5,12.1-2.4l2.4,1.9C143.8,37.1,143.9,42.8,140.5,46.4z"/>
		<path class="st2" d="M87.8,104.6C87.8,104.6,87.8,104.7,87.8,104.6l17.4-8.9c-1.6-2.6-3.4-5-5.4-7.1L87.8,104.6z"/>
		<path class="st2" d="M81.7,114.3l-10.3,5.3l7,13.5l10.1-5.2c3.7-1.9,6.2-5,3.6-10.1C89.5,112.8,85.7,112.3,81.7,114.3z"/>
		<path class="st2" d="M101.8,113.7c5.2,10,0,18.1-7.8,22.1l-0.7,0.4l3.9,7.5c13.2-8.3,17.7-26.7,10.5-43.1l-12,6.2
			C98.1,108.2,100.2,110.6,101.8,113.7z"/>
		<path class="st3" d="M139.9,34.1l-2.4-1.9c-3.9-3.1-9.5-1.8-12.1,2.4l-10.2,16.6c-1.2,1.9-0.6,4.6,1.1,6.6L98.8,81.2
			C87.2,71.8,72,69,59.5,75.5c-17.7,9.1-23.6,33.2-13.1,53.6s33.5,29.6,51.3,20.5c17.7-9.1,23.6-33.2,13.1-53.6
			c-2.2-4.2-4.9-7.9-8-11.1L120.6,61c2.2,1,4.8,0.8,6.2-0.7l13.6-13.9C143.9,42.8,143.8,37.1,139.9,34.1z M95.9,85L89,94.2
			c-0.3-0.7-0.5-1.5-0.9-2.3c-4.7-9.2-11.8-9.4-20-5.2L68,86.8l-3.9-7.5C74.5,75,86.5,77.5,95.9,85z M77.1,107.3l-9.5,4.9l-5.9-11.5
			l8.8-4.5c3.4-1.7,7-2.4,9.4,2.3C82,102.6,80.4,105.6,77.1,107.3z M59.9,81.4l3.9,7.5l-15.9,8.2l11.5,22.3l-10,5.1
			C42.2,108.1,46.7,89.7,59.9,81.4z M51.8,129.3l10-5.1l11.5,22.3l15.9-8.2l3.9,7.5C78.6,151.7,61,144.7,51.8,129.3z M88.5,128
			l-10.1,5.2l-7-13.5l10.3-5.3c4-2.1,7.8-1.5,10.4,3.6C94.7,123,92.2,126,88.5,128z M97.2,143.6l-3.9-7.5l0.7-0.4
			c7.7-4,12.9-12.1,7.8-22.1c-1.6-3.1-3.7-5.5-6.1-6.9l12-6.2C114.9,117,110.4,135.3,97.2,143.6z M105.2,95.8l-17.5,9
			c0,0,0-0.1,0.1-0.1l12-16C101.8,90.8,103.7,93.1,105.2,95.8z"/>
		<path class="st3" d="M84.9,60c-1.2,0.9-1.4,2.6-0.5,3.8c0.5,0.7,1.3,1.1,2.2,1.1c0.6,0,1.1-0.2,1.6-0.5c5.5-4.1,6.6-12,2.5-17.5
			c-2.4-3.1-1.7-7.6,1.4-9.9c1.2-0.9,1.4-2.6,0.5-3.8s-2.6-1.4-3.8-0.5c-2.7,2-4.4,4.9-4.9,8.2s0.4,6.6,2.4,9.3
			C88.7,53.2,88,57.7,84.9,60z"/>
		<path class="st3" d="M60.1,48.8c1.7,1.3,2.8,3.3,3.1,5.4c0.3,2.2-0.3,4.3-1.7,6c-0.9,1.2-0.7,2.9,0.5,3.8c0.5,0.4,1.1,0.6,1.7,0.6
			c0.8,0,1.6-0.4,2.1-1c4.6-5.9,3.5-14.4-2.4-19c-1.7-1.3-2.8-3.3-3.1-5.4c-0.3-2.2,0.3-4.3,1.7-6c0.9-1.2,0.7-2.9-0.5-3.8
			s-2.9-0.7-3.8,0.5c-2.2,2.9-3.2,6.4-2.8,10C55.4,43.4,57.2,46.6,60.1,48.8z"/>
		<path class="st3" d="M42.9,76.7c0.2,0.1,0.5,0.1,0.7,0.1c1.2,0,2.2-0.8,2.6-1.9c1.9-6.6-1.9-13.5-8.5-15.5c-3.8-1.1-5.9-5-4.9-8.8
			c0.4-1.4-0.4-2.9-1.8-3.3c-1.4-0.4-2.9,0.4-3.3,1.8c-1.9,6.6,1.9,13.5,8.5,15.5c3.8,1.1,5.9,5,4.9,8.8
			C40.6,74.8,41.5,76.3,42.9,76.7z"/>
	</g>
</g>
<g id="Traffic_B" class="st0">
	<g class="st1">
		<g>
			<path class="st2" d="M86.7,2.4C40.1,2.4,2.4,40.1,2.4,86.7S40.2,171,86.7,171c46.6,0,84.3-37.8,84.3-84.3
				C171,40.1,133.3,2.4,86.7,2.4z M121.5,75.9c2.2,0,3.3,3,1.7,4.8L114,91.3V114h7.5c2.2,0,3.3,3,1.7,4.8l-9.3,10.6v11.1
				c0,3-2.5,5.5-5.5,5.5H64.9c-3,0-5.5-2.5-5.5-5.5v-11.1l-9.3-10.6c-1.5-1.8-0.5-4.8,1.7-4.8h7.5V91.3L50,80.7
				c-1.5-1.8-0.5-4.8,1.7-4.8h7.5V53.2l-9.3-10.6c-1.5-1.8-0.5-4.8,1.7-4.8h7.5v-4.9c0-3,2.5-5.5,5.5-5.5h43.6c3,0,5.5,2.5,5.5,5.5
				v4.9h7.5c2.2,0,3.3,3,1.7,4.8L114,53.2v22.7H121.5z"/>
		</g>
		<g>
			<circle class="st2" cx="86.7" cy="50.5" r="12.5"/>
		</g>
		<g>
			<circle class="st2" cx="86.7" cy="88.6" r="12.5"/>
		</g>
		<g>
			<circle class="st2" cx="86.7" cy="126.7" r="12.5"/>
		</g>
		<g>
			<path class="st3" d="M123.3,42.6c1.5-1.8,0.5-4.8-1.7-4.8H114v-4.9c0-3-2.5-5.5-5.5-5.5H64.9c-3,0-5.5,2.5-5.5,5.5v4.9h-7.5
				c-2.2,0-3.3,3-1.7,4.8l9.3,10.6v22.7H52c-2.2,0-3.3,3-1.7,4.8l9.3,10.6V114h-7.5c-2.2,0-3.3,3-1.7,4.8l9.3,10.6v11.1
				c0,3,2.5,5.5,5.5,5.5h43.6c3,0,5.5-2.5,5.5-5.5v-11.1l9.3-10.6c1.5-1.8,0.5-4.8-1.7-4.8H114V91.3l9.3-10.6
				c1.5-1.8,0.5-4.8-1.7-4.8H114V53.2L123.3,42.6z M86.7,139.2c-6.9,0-12.5-5.6-12.5-12.5c0-6.9,5.6-12.5,12.5-12.5
				s12.5,5.6,12.5,12.5C99.2,133.6,93.6,139.2,86.7,139.2z M86.7,101.1c-6.9,0-12.5-5.6-12.5-12.5s5.6-12.5,12.5-12.5
				s12.5,5.6,12.5,12.5S93.6,101.1,86.7,101.1z M86.7,63c-6.9,0-12.5-5.6-12.5-12.5S79.8,38,86.7,38s12.5,5.6,12.5,12.5
				S93.6,63,86.7,63z"/>
		</g>
	</g>
</g>
<g id="Lead_Gen_B" class="st0">
	<g class="st1">
		<path class="st2" d="M86.7,2.4C40.1,2.4,2.4,40.1,2.4,86.7S40.2,171,86.7,171c46.6,0,84.3-37.8,84.3-84.3
			C171,40.1,133.3,2.4,86.7,2.4z M26.6,41.6L36,36l5.6-9.4c0.6-0.6,1.3-0.8,2-0.8c1.4,0,2.8,1.1,2.8,2.8V39l2.8-4.8
			c0.6-0.6,1.3-0.8,2-0.8c1.4,0,2.8,1.1,2.8,2.8v10.9l26.5,26.5l1,0.5l2.3-6.4l3-8.3L92,74.1l14.1-6.7l-6.7,14.1l14.7,5.2l-14.7,5.2
			L106,106l-14.1-6.7L86.7,114l-5.2-14.7L67.3,106L74,91.9l-14.7-5.2l8.3-3l6.4-2.3l-0.5-1L47.1,54H36.2c-2.5,0-3.7-3-2-4.8l4.8-2.8
			H28.5C26,46.3,24.8,43.3,26.6,41.6z M86.7,142.6c-30.8,0-55.9-25.1-55.9-55.9c0-9.5,2.4-18.4,6.6-26.2h7l7.4,7.4
			c-3,5.6-4.8,12-4.8,18.8c0,21.9,17.8,39.7,39.7,39.7s39.7-17.8,39.7-39.7S108.6,47,86.7,47c-6.8,0-13.2,1.7-18.8,4.8l-7.4-7.4v-7
			c7.8-4.2,16.8-6.6,26.2-6.6c30.8,0,55.9,25.1,55.9,55.9S117.5,142.6,86.7,142.6z"/>
		<path class="st3" d="M86.7,30.8c-9.5,0-18.4,2.4-26.2,6.6v7l7.4,7.4c5.6-3,12-4.8,18.8-4.8c21.9,0,39.7,17.8,39.7,39.7
			s-17.8,39.7-39.7,39.7S47,108.6,47,86.7c0-6.8,1.7-13.2,4.8-18.8l-7.4-7.4h-7c-4.2,7.8-6.6,16.8-6.6,26.2
			c0,30.8,25.1,55.9,55.9,55.9s55.9-25.1,55.9-55.9S117.5,30.8,86.7,30.8z"/>
		<path class="st3" d="M34.2,49.2c-1.8,1.8-0.5,4.8,2,4.8h10.9l26.5,26.5l0.5,1l-6.4,2.3l-8.3,3L74.1,92l-6.8,14l14.1-6.7l5.2,14.7
			l5.2-14.7L106,106l-6.7-14.1l14.7-5.2l-14.7-5.2l6.7-14.1l-14.1,6.7l-5.2-14.7l-3,8.3l-2.3,6.4l-1-0.5L54,47.1V36.2
			c0-1.7-1.4-2.8-2.8-2.8c-0.7,0-1.4,0.3-2,0.8L46.3,39V28.5c0-1.7-1.4-2.8-2.8-2.8c-0.7,0-1.4,0.3-2,0.8L36,36l-9.4,5.6
			c-1.8,1.8-0.5,4.8,2,4.8H39L34.2,49.2z"/>
	</g>
</g>
<g id="Thought_Lead_B" class="st0">
	<g class="st1">
		<g>
			<circle class="st2" cx="86.7" cy="86.7" r="84.3"/>
		</g>
		<g>
			<g>
				<path class="st3" d="M86.7,31.1L86.7,31.1L86.7,31.1L86.7,31.1L86.7,31.1c-20.7,0-37.5,16.8-37.5,37.5c0,27,22.9,34.2,22.9,48.2
					h14.6h0.1h14.6c0-14,22.9-21.2,22.9-48.2C124.1,47.9,107.4,31.1,86.7,31.1z"/>
			</g>
			<g>
				<path class="st3" d="M101.3,125.5H72.1v6.4c0,2.9,2.3,5.2,5.2,5.2l0,0c1.4,0,2.6,1.2,2.6,2.6l0,0c0,2.2,1.8,4,4,4h5.6
					c2.2,0,4-1.8,4-4l0,0c0-1.4,1.2-2.6,2.6-2.6l0,0c2.9,0,5.2-2.3,5.2-5.2L101.3,125.5L101.3,125.5z"/>
			</g>
		</g>
	</g>
</g>
<g id="Social_B" class="st0">
	<g class="st1">
		<path class="st2" d="M86.7,2.4C40.1,2.4,2.4,40.1,2.4,86.7S40.2,171,86.7,171S171,133.3,171,86.7S133.3,2.4,86.7,2.4z M42.2,79
			H24.4c-0.9,0-1.7-0.7-1.7-1.7V76c0-2.8,1.7-6.1,4.3-8.3c1.7-1.5,3.9-2.6,6.2-2.7c0.1,0,0.2,0,0.3,0s0.1,0,0.2,0
			c1.9,0,3.7-1.3,4.5-2.6c0.5-0.9,0.6-1.7-0.1-2c-0.1-0.1-0.2-0.1-0.2-0.2c-0.4-0.2-0.7-0.4-1.1-0.7c-2-1.3-3.6-3.2-4.5-5.4
			c-0.6-1.4-0.9-3-0.9-4.6v-5.3c0-6.6,5.4-12,12-12s12,5.4,12,12v5.3c0,1.6-0.3,3.2-0.9,4.6c-0.9,2.2-2.5,4.1-4.5,5.4
			c-0.4,0.2-0.7,0.5-1.1,0.7c0,0.1-0.1,0.1-0.2,0.2C47,61.2,49.9,65,53.1,65c0.1,0,0.2,0,0.3,0c2.4,0.1,4.7,1.1,6.5,2.7
			c2.6,2.2,4.3,5.5,4.3,8.3v1.3c0,0.9-0.7,1.7-1.7,1.7h-14h-5.1H42.2z M48.5,84.4h3.3L70,113.8c-0.5,1.6-0.7,3.3-0.7,5v2.5v1.5
			L45.5,84.4H48.5z M66,150.5c0-2.8,1.7-6.1,4.3-8.3c1.7-1.5,3.9-2.6,6.2-2.7c0.2,0,0.3,0,0.5,0c0.8,0,1.6-0.2,2.3-0.6
			c2.1-1.1,3.4-3.4,2.1-4c-0.1-0.1-0.2-0.1-0.2-0.2c-3.9-2-6.5-6-6.5-10.6v-2.8v-2.5c0-6.6,5.4-12,12-12s12,5.4,12,12v2.5v2.8
			c0,4.6-2.7,8.6-6.5,10.6c0,0.1-0.1,0.1-0.2,0.2c-1.3,0.6,0.1,2.9,2.1,4c0.7,0.4,1.5,0.6,2.3,0.6c0.1,0,0.2,0,0.3,0
			c2.4,0.1,4.7,1.1,6.5,2.7c2.6,2.2,4.3,5.5,4.3,8.3v1.3c0,0.9-0.7,1.7-1.7,1.7h-19h-19c-0.9,0-1.7-0.7-1.7-1.7v-1.3H66z
			 M104.1,122.8v-1.5v-2.5c0-1.7-0.3-3.4-0.7-5l18.2-29.4h3.3h3L104.1,122.8z M129.9,79h-5.1h-14c-0.9,0-1.7-0.7-1.7-1.7V76
			c0-2.8,1.7-6.1,4.3-8.3c1.7-1.5,3.9-2.6,6.2-2.7c0.2,0,0.3,0,0.5,0c3.2,0,6.2-3.8,4.4-4.7c-0.1-0.1-0.2-0.1-0.2-0.2
			c-0.4-0.2-0.7-0.4-1.1-0.7c-2-1.3-3.6-3.2-4.5-5.4c-0.6-1.4-0.9-3-0.9-4.6v-5.3c0-6.6,5.4-12,12-12c6.6,0,12,5.4,12,12v5.3
			c0,1.6-0.3,3.2-0.9,4.6c-0.9,2.2-2.5,4.1-4.5,5.4c-0.4,0.2-0.7,0.5-1.1,0.7c0,0.1-0.1,0.1-0.2,0.2c-0.7,0.3-0.6,1.2-0.1,2
			c0.8,1.3,2.6,2.6,4.5,2.6c0.1,0,0.1,0,0.2,0c0,0,0,0,0.1,0c2.4,0.1,4.7,1.1,6.5,2.7c2.6,2.2,4.3,5.5,4.3,8.3v1.3
			c0,0.9-0.7,1.7-1.7,1.7h-17.8L129.9,79L129.9,79z M113.2,54.1c0.2,0.7,0.4,1.4,0.7,2.1c0.5,1.2,1.1,2.3,1.9,3.3H57.6
			c0.7-1,1.4-2.1,1.9-3.3c0.3-0.7,0.5-1.4,0.7-2.1H113.2z"/>
		<path class="st3" d="M59.4,56.2c-0.5,1.2-1.1,2.3-1.9,3.3h58.3c-0.7-1-1.4-2.1-1.9-3.3c-0.3-0.7-0.5-1.4-0.7-2.1h-53
			C60,54.9,59.7,55.6,59.4,56.2z"/>
		<path class="st3" d="M69.3,121.2v-2.5c0-1.7,0.3-3.4,0.7-5L51.9,84.4h-3.3h-3l23.8,38.4L69.3,121.2L69.3,121.2z"/>
		<path class="st3" d="M124.8,84.4h-3.3l-18.2,29.4c0.5,1.6,0.7,3.3,0.7,5v2.5v1.5l23.8-38.4H124.8z"/>
		<path class="st3" d="M67.6,153.5h19h19c0.9,0,1.7-0.7,1.7-1.7v-1.3c0-2.8-1.7-6.1-4.3-8.3c-1.8-1.6-4-2.6-6.5-2.7
			c-0.1,0-0.2,0-0.3,0c-0.8,0-1.6-0.2-2.3-0.6c-2.1-1.1-3.4-3.4-2.1-4c0.1-0.1,0.2-0.1,0.2-0.2c3.9-2,6.5-6,6.5-10.6v-2.8v-2.5
			c0-6.6-5.4-12-12-12s-12,5.4-12,12v2.5v2.8c0,4.6,2.7,8.6,6.5,10.6c0,0.1,0.1,0.1,0.2,0.2c1.3,0.6-0.1,2.9-2.1,4
			c-0.7,0.4-1.5,0.6-2.3,0.6c-0.2,0-0.3,0-0.5,0c-2.3,0.1-4.5,1.2-6.2,2.7c-2.6,2.2-4.3,5.5-4.3,8.3v1.3
			C66,152.7,66.7,153.5,67.6,153.5z"/>
		<path class="st3" d="M62.5,79c0.9,0,1.7-0.7,1.7-1.7V76c0-2.8-1.7-6.1-4.3-8.3c-1.8-1.6-4-2.6-6.5-2.7c-0.1,0-0.2,0-0.3,0
			c-3.2,0-6.2-3.8-4.4-4.7c0.1-0.1,0.2-0.1,0.2-0.2c0.4-0.2,0.7-0.4,1.1-0.7c2-1.3,3.6-3.2,4.5-5.4c0.6-1.4,0.9-3,0.9-4.6v-5.3
			c0-6.6-5.4-12-12-12s-12,5.4-12,12v5.3c0,1.6,0.3,3.2,0.9,4.6c0.9,2.2,2.5,4.1,4.5,5.4c0.4,0.2,0.7,0.5,1.1,0.7
			c0,0.1,0.1,0.1,0.2,0.2c0.7,0.3,0.6,1.2,0.1,2c-0.8,1.3-2.6,2.6-4.5,2.6c-0.1,0-0.1,0-0.2,0c-0.1,0-0.2,0-0.3,0
			c-2.3,0.1-4.5,1.2-6.2,2.7c-2.6,2.2-4.3,5.5-4.3,8.3v1.3c0,0.9,0.7,1.7,1.7,1.7h17.8h1.2h5.1L62.5,79L62.5,79z"/>
		<path class="st3" d="M150.7,77.3V76c0-2.8-1.7-6.1-4.3-8.3c-1.8-1.6-4-2.6-6.5-2.7c0,0,0,0-0.1,0s-0.1,0-0.2,0
			c-1.9,0-3.7-1.3-4.5-2.6c-0.5-0.9-0.6-1.7,0.1-2c0.1-0.1,0.2-0.1,0.2-0.2c0.4-0.2,0.7-0.4,1.1-0.7c2-1.3,3.6-3.2,4.5-5.4
			c0.6-1.4,0.9-3,0.9-4.6v-5.3c0-6.6-5.4-12-12-12c-6.6,0-12,5.4-12,12v5.3c0,1.6,0.3,3.2,0.9,4.6c0.9,2.2,2.5,4.1,4.5,5.4
			c0.4,0.2,0.7,0.5,1.1,0.7c0,0.1,0.1,0.1,0.2,0.2c1.7,0.8-1.2,4.7-4.4,4.7c-0.2,0-0.3,0-0.5,0c-2.3,0.1-4.5,1.2-6.2,2.7
			c-2.6,2.2-4.3,5.5-4.3,8.3v1.3c0,0.9,0.7,1.7,1.7,1.7h14h5.1h1.2H149C149.9,79,150.7,78.2,150.7,77.3z"/>
	</g>
</g>
<g id="Content_Mark_B" class="st0">
	<g class="st1">
		<path class="st2" d="M86.7,2.4C40.1,2.4,2.4,40.1,2.4,86.7S40.2,171,86.7,171c46.6,0,84.3-37.8,84.3-84.3
			C171,40.1,133.3,2.4,86.7,2.4z M119.5,108l-26.9,26.9h-0.1v-19c0-4.4,3.5-7.9,7.9-7.9L119.5,108L119.5,108z M53.8,127V46.4
			c0-4.4,3.5-7.9,7.9-7.9h49.9c4.4,0,7.9,3.5,7.9,7.9v55.1h-19.1c-7.9,0-14.4,6.5-14.4,14.4v19H61.8C57.4,134.9,53.8,131.3,53.8,127
			z"/>
		<path class="st3" d="M92.5,115.9v19h0.1l26.9-26.9l0,0h-19.1C96.1,108,92.5,111.5,92.5,115.9z"/>
		<path class="st3" d="M86,115.9c0-7.9,6.5-14.4,14.4-14.4h19.1V46.4c0-4.4-3.5-7.9-7.9-7.9H61.8c-4.4,0-7.9,3.5-7.9,7.9V127
			c0,4.4,3.5,7.9,7.9,7.9H86V115.9z M65.4,51.9H108c1.8,0,3.2,1.5,3.2,3.2c0,1.8-1.5,3.2-3.2,3.2H65.4c-1.8,0-3.2-1.5-3.2-3.2
			C62.2,53.3,63.6,51.9,65.4,51.9z M65.4,68.5H108c1.8,0,3.2,1.5,3.2,3.2c0,1.8-1.5,3.2-3.2,3.2H65.4c-1.8,0-3.2-1.5-3.2-3.2
			S63.6,68.5,65.4,68.5z M62.2,88.4c0-1.8,1.5-3.2,3.2-3.2h21.3c1.8,0,3.2,1.5,3.2,3.2c0,1.8-1.5,3.2-3.2,3.2H65.4
			C63.6,91.6,62.2,90.2,62.2,88.4z"/>
		<path class="st2" d="M65.4,58.4H108c1.8,0,3.2-1.5,3.2-3.2c0-1.8-1.5-3.2-3.2-3.2H65.4c-1.8,0-3.2,1.5-3.2,3.2
			S63.6,58.4,65.4,58.4z"/>
		<path class="st2" d="M65.4,75H108c1.8,0,3.2-1.5,3.2-3.2c0-1.8-1.5-3.2-3.2-3.2H65.4c-1.8,0-3.2,1.5-3.2,3.2
			C62.2,73.6,63.6,75,65.4,75z"/>
		<path class="st2" d="M86.7,91.6c1.8,0,3.2-1.5,3.2-3.2c0-1.8-1.5-3.2-3.2-3.2H65.4c-1.8,0-3.2,1.5-3.2,3.2c0,1.8,1.5,3.2,3.2,3.2
			H86.7z"/>
	</g>
</g>
<g id="Branding_G" class="st0">
	<g class="st1">
		<path class="st4" d="M47.9,97.1L63.8,89l-3.9-7.5c-13.2,8.3-17.7,26.7-10.5,43.1l10-5.1L47.9,97.1z"/>
		<path class="st4" d="M68.1,86.7c8.2-4.2,15.2-4,20,5.2c0.4,0.8,0.7,1.5,0.9,2.3l6.9-9.2c-9.4-7.5-21.4-10-31.8-5.7l3.9,7.5
			L68.1,86.7z"/>
		<path class="st4" d="M70.5,96.2l-8.8,4.5l5.9,11.5l9.5-4.9c3.3-1.7,4.9-4.7,2.7-8.8C77.5,93.8,73.8,94.4,70.5,96.2z"/>
		<path class="st4" d="M87.8,104.6C87.8,104.6,87.8,104.7,87.8,104.6l17.4-8.9c-1.6-2.6-3.4-5-5.4-7.1L87.8,104.6z"/>
		<path class="st4" d="M86.7,2.4C40.1,2.4,2.4,40.1,2.4,86.7S40.1,171,86.7,171S171,133.3,171,86.7S133.3,2.4,86.7,2.4z M83.9,40.8
			c0.5-3.3,2.2-6.2,4.9-8.2c1.2-0.9,2.9-0.7,3.8,0.5s0.7,2.9-0.5,3.8c-1.5,1.1-2.5,2.8-2.8,4.7s0.2,3.7,1.4,5.3c2,2.7,2.9,6,2.4,9.3
			s-2.2,6.2-4.9,8.2c-0.5,0.4-1.1,0.5-1.6,0.5c-0.8,0-1.6-0.4-2.2-1.1c-0.9-1.2-0.7-2.9,0.5-3.8c1.5-1.1,2.5-2.8,2.8-4.7
			s-0.2-3.7-1.4-5.3C84.3,47.4,83.5,44.1,83.9,40.8z M57.7,29.8c0.9-1.2,2.6-1.4,3.8-0.5s1.4,2.6,0.5,3.8c-2.8,3.6-2.1,8.7,1.4,11.5
			c2.9,2.2,4.7,5.4,5.1,9s-0.5,7.1-2.8,10c-0.5,0.7-1.3,1-2.1,1c-0.6,0-1.2-0.2-1.7-0.6c-1.2-0.9-1.4-2.6-0.5-3.8
			c1.3-1.7,1.9-3.9,1.7-6c-0.3-2.2-1.4-4.1-3.1-5.4C54.2,44.2,53.1,35.7,57.7,29.8z M36.2,64.6c-3.2-0.9-5.9-3-7.5-6
			c-1.6-2.9-2-6.3-1.1-9.5c0.4-1.4,1.9-2.3,3.3-1.8c1.4,0.4,2.3,1.9,1.8,3.3c-0.5,1.8-0.3,3.7,0.6,5.4c0.9,1.7,2.4,2.9,4.3,3.4
			c6.6,1.9,10.4,8.8,8.5,15.5c-0.3,1.2-1.4,1.9-2.6,1.9c-0.2,0-0.5,0-0.7-0.1c-1.4-0.4-2.3-1.9-1.8-3.3C42.1,69.6,40,65.6,36.2,64.6
			z M140.5,46.4l-13.6,13.9c-1.5,1.5-4,1.7-6.2,0.7l-17.9,23.8c3.1,3.2,5.8,6.9,8,11.1c10.5,20.4,4.7,44.5-13.1,53.6
			c-17.7,9.1-40.7,0-51.3-20.5c-10.5-20.4-4.7-44.5,13.1-53.6C72,69,87.2,71.8,98.8,81.2l17.5-23.3c-1.8-2-2.3-4.7-1.1-6.6
			l10.2-16.6c2.6-4.2,8.1-5.5,12.1-2.4l2.4,1.9C143.8,37.1,143.9,42.8,140.5,46.4z"/>
		<path class="st4" d="M73.3,146.4l-11.5-22.3l-10,5.1c9.2,15.4,26.8,22.4,41.2,16.5l-3.9-7.5L73.3,146.4z"/>
		<path class="st4" d="M101.8,113.7c5.2,10,0,18.1-7.8,22.1l-0.7,0.4l3.9,7.5c13.2-8.3,17.7-26.7,10.5-43.1l-12,6.2
			C98.1,108.2,100.2,110.6,101.8,113.7z"/>
		<path class="st4" d="M81.7,114.3l-10.3,5.3l7,13.5l10.1-5.2c3.7-1.9,6.2-5,3.6-10.1C89.5,112.8,85.7,112.3,81.7,114.3z"/>
		<path class="st3" d="M139.9,34.1l-2.4-1.9c-3.9-3.1-9.5-1.8-12.1,2.4l-10.2,16.6c-1.2,1.9-0.6,4.6,1.1,6.6L98.8,81.2
			C87.2,71.8,72,69,59.5,75.5c-17.7,9.1-23.6,33.2-13.1,53.6s33.5,29.6,51.3,20.5c17.7-9.1,23.6-33.2,13.1-53.6
			c-2.2-4.2-4.9-7.9-8-11.1L120.6,61c2.2,1,4.8,0.8,6.2-0.7l13.6-13.9C143.9,42.8,143.8,37.1,139.9,34.1z M95.9,85L89,94.2
			c-0.3-0.7-0.5-1.5-0.9-2.3c-4.7-9.2-11.8-9.4-20-5.2L68,86.8l-3.9-7.5C74.5,75,86.5,77.5,95.9,85z M77.1,107.3l-9.5,4.9l-5.9-11.5
			l8.8-4.5c3.4-1.7,7-2.4,9.4,2.3C82,102.6,80.4,105.6,77.1,107.3z M59.9,81.4l3.9,7.5l-15.9,8.2l11.5,22.3l-10,5.1
			C42.2,108.1,46.7,89.7,59.9,81.4z M51.8,129.3l10-5.1l11.5,22.3l15.9-8.2l3.9,7.5C78.6,151.7,61,144.7,51.8,129.3z M88.5,128
			l-10.1,5.2l-7-13.5l10.3-5.3c4-2.1,7.8-1.5,10.4,3.6C94.7,123,92.2,126,88.5,128z M97.2,143.6l-3.9-7.5l0.7-0.4
			c7.7-4,12.9-12.1,7.8-22.1c-1.6-3.1-3.7-5.5-6.1-6.9l12-6.2C114.9,117,110.4,135.3,97.2,143.6z M105.2,95.8l-17.5,9
			c0,0,0-0.1,0.1-0.1l12-16C101.8,90.8,103.7,93.1,105.2,95.8z"/>
		<path class="st3" d="M87.7,55.4c-0.3,1.9-1.2,3.5-2.8,4.7c-1.2,0.9-1.4,2.6-0.5,3.8c0.5,0.7,1.3,1.1,2.2,1.1
			c0.6,0,1.1-0.2,1.6-0.5c2.7-2,4.4-4.9,4.9-8.2s-0.4-6.6-2.4-9.3c-1.1-1.5-1.6-3.4-1.4-5.3c0.3-1.9,1.2-3.5,2.8-4.7
			c1.2-0.9,1.4-2.6,0.5-3.8s-2.6-1.4-3.8-0.5c-2.7,2-4.4,4.9-4.9,8.2s0.4,6.6,2.4,9.2C87.4,51.6,87.9,53.5,87.7,55.4z"/>
		<path class="st3" d="M60.1,48.8c1.7,1.3,2.8,3.3,3.1,5.4c0.3,2.2-0.3,4.3-1.7,6c-0.9,1.2-0.7,2.9,0.5,3.8c0.5,0.4,1.1,0.6,1.7,0.6
			c0.8,0,1.6-0.4,2.1-1c2.2-2.9,3.2-6.4,2.8-10c-0.4-3.6-2.3-6.8-5.1-9c-3.6-2.8-4.2-7.9-1.4-11.5c0.9-1.2,0.7-2.9-0.5-3.8
			s-2.9-0.7-3.8,0.5C53.1,35.7,54.2,44.2,60.1,48.8z"/>
		<path class="st3" d="M42.9,76.7c0.2,0.1,0.5,0.1,0.7,0.1c1.2,0,2.2-0.8,2.6-1.9c1.9-6.6-1.9-13.5-8.5-15.5
			c-1.8-0.5-3.3-1.7-4.3-3.4c-0.9-1.7-1.1-3.6-0.6-5.4c0.4-1.4-0.4-2.9-1.8-3.3c-1.4-0.4-2.9,0.4-3.3,1.8c-0.9,3.2-0.5,6.6,1.1,9.5
			s4.3,5,7.5,6c3.8,1.1,5.9,5,4.9,8.8C40.6,74.8,41.5,76.3,42.9,76.7z"/>
	</g>
</g>
<g id="Traffic_G" class="st0">
	<g class="st1">
		<g>
			<path class="st4" d="M86.7,2.4C40.1,2.4,2.4,40.1,2.4,86.7S40.2,171,86.7,171c46.6,0,84.3-37.8,84.3-84.3
				C171,40.1,133.3,2.4,86.7,2.4z M121.5,75.9c2.2,0,3.3,3,1.7,4.8L114,91.3V114h7.5c2.2,0,3.3,3,1.7,4.8l-9.3,10.6v11.1
				c0,3-2.5,5.5-5.5,5.5H64.9c-3,0-5.5-2.5-5.5-5.5v-11.1l-9.3-10.6c-1.5-1.8-0.5-4.8,1.7-4.8h7.5V91.3L50,80.7
				c-1.5-1.8-0.5-4.8,1.7-4.8h7.5V53.2l-9.3-10.6c-1.5-1.8-0.5-4.8,1.7-4.8h7.5v-4.9c0-3,2.5-5.5,5.5-5.5h43.6c3,0,5.5,2.5,5.5,5.5
				v4.9h7.5c2.2,0,3.3,3,1.7,4.8L114,53.2v22.7H121.5z"/>
		</g>
		<g>
			<circle class="st4" cx="86.7" cy="50.5" r="12.5"/>
			<circle class="st4" cx="86.7" cy="88.6" r="12.5"/>
			<circle class="st4" cx="86.7" cy="126.7" r="12.5"/>
			<path class="st3" d="M123.3,80.7c1.5-1.8,0.5-4.8-1.7-4.8H114V53.2l9.3-10.6c1.5-1.8,0.5-4.8-1.7-4.8H114v-4.9
				c0-3-2.5-5.5-5.5-5.5H64.9c-3,0-5.5,2.5-5.5,5.5v4.9h-7.5c-2.2,0-3.3,3-1.7,4.8l9.3,10.6v22.7H52c-2.2,0-3.3,3-1.7,4.8l9.3,10.6
				V114h-7.5c-2.2,0-3.3,3-1.7,4.8l9.3,10.6v11.1c0,3,2.5,5.5,5.5,5.5h43.6c3,0,5.5-2.5,5.5-5.5v-11.1l9.3-10.6
				c1.5-1.8,0.5-4.8-1.7-4.8H114V91.3L123.3,80.7z M86.7,139.2c-6.9,0-12.5-5.6-12.5-12.5c0-6.9,5.6-12.5,12.5-12.5
				s12.5,5.6,12.5,12.5C99.2,133.6,93.6,139.2,86.7,139.2z M86.7,101.1c-6.9,0-12.5-5.6-12.5-12.5s5.6-12.5,12.5-12.5
				s12.5,5.6,12.5,12.5S93.6,101.1,86.7,101.1z M86.7,63c-6.9,0-12.5-5.6-12.5-12.5S79.8,38,86.7,38s12.5,5.6,12.5,12.5
				S93.6,63,86.7,63z"/>
		</g>
	</g>
</g>
<g id="Lead_Gen_G" class="st0">
	<g class="st1">
		<path class="st4" d="M86.7,2.4C40.1,2.4,2.4,40.1,2.4,86.7S40.2,171,86.7,171c46.6,0,84.3-37.8,84.3-84.3
			C171,40.1,133.3,2.4,86.7,2.4z M114,86.7l-14.7,5.2L106,106l-14.1-6.7L86.7,114l-5.2-14.7L67.3,106L74,91.9l-14.7-5.2L74,81.5
			l-0.5-1L47.1,54H36.2c-2.5,0-3.7-3-2-4.8l4.8-2.8H28.5c-2.5,0-3.7-3-2-4.8L36,36l5.6-9.4c0.6-0.6,1.3-0.8,2-0.8
			c1.4,0,2.8,1.1,2.8,2.8V39l2.8-4.8c0.6-0.6,1.3-0.8,2-0.8c1.4,0,2.8,1.1,2.8,2.8v10.9l26.5,26.5l1,0.5l5.2-14.7l5.2,14.7l14.1-6.7
			l-6.7,14.1L114,86.7z M43.5,19.2L43.5,19.2L43.5,19.2z M86.7,142.6c-30.8,0-55.9-25.1-55.9-55.9c0-9.5,2.4-18.4,6.6-26.2h7
			l7.4,7.4c-3,5.6-4.8,12-4.8,18.8c0,21.9,17.8,39.7,39.7,39.7s39.7-17.8,39.7-39.7S108.6,47,86.7,47c-6.8,0-13.2,1.7-18.8,4.8
			l-7.4-7.4v-7c7.8-4.2,16.8-6.6,26.2-6.6c30.8,0,55.9,25.1,55.9,55.9S117.5,142.6,86.7,142.6z"/>
		<path class="st3" d="M86.7,30.8c-9.5,0-18.4,2.4-26.2,6.6v7l7.4,7.4c5.6-3,12-4.8,18.8-4.8c21.9,0,39.7,17.8,39.7,39.7
			s-17.8,39.7-39.7,39.7S47,108.6,47,86.7c0-6.8,1.7-13.2,4.8-18.8l-7.4-7.4h-7c-4.2,7.8-6.6,16.8-6.6,26.2
			c0,30.8,25.1,55.9,55.9,55.9s55.9-25.1,55.9-55.9S117.5,30.8,86.7,30.8z"/>
		<line class="st5" x1="43.5" y1="19.2" x2="43.5" y2="19.2"/>
		<path class="st3" d="M91.9,74.1l-5.2-14.7l-5.2,14.7l-1-0.5L54,47.1V36.2c0-1.7-1.4-2.8-2.8-2.8c-0.7,0-1.4,0.3-2,0.8L46.3,39
			V28.5c0-1.7-1.4-2.8-2.8-2.8c-0.7,0-1.4,0.3-2,0.8L36,36l-9.4,5.6c-1.8,1.8-0.5,4.8,2,4.8H39l-4.8,2.8c-1.8,1.8-0.5,4.8,2,4.8
			h10.9l26.5,26.5l0.5,1l-14.7,5.2l14.7,5.2L67.3,106l14.1-6.7l5.2,14.7l5.2-14.7L106,106l-6.7-14.1l14.7-5.2l-14.7-5.2l6.7-14.1
			L91.9,74.1z"/>
	</g>
</g>
<g id="Thought_Lead_G" class="st0">
	<g class="st1">
		<path class="st4" d="M86.7,2.4C40.1,2.4,2.4,40.1,2.4,86.7S40.1,171,86.7,171S171,133.3,171,86.7S133.3,2.4,86.7,2.4z M86.7,31.1
			L86.7,31.1L86.7,31.1L86.7,31.1L86.7,31.1c20.7,0,37.5,16.8,37.5,37.5c0,27-22.9,34.2-22.9,48.2H86.7h-0.1H72.1
			c0-14-22.9-21.2-22.9-48.2C49.2,47.9,66,31.1,86.7,31.1z M96.1,137c-1.4,0-2.6,1.2-2.6,2.6l0,0c0,2.2-1.8,4-4,4h-5.6
			c-2.2,0-4-1.8-4-4l0,0c0-1.4-1.2-2.6-2.6-2.6c-2.9,0-5.2-2.3-5.2-5.2v-6.4h29.2v6.4C101.3,134.7,98.9,137,96.1,137z"/>
		<path class="st3" d="M72.1,116.7h14.6h0.1h14.6c0-14,22.9-21.2,22.9-48.2c0-20.7-16.8-37.5-37.4-37.5l0,0l0,0l0,0l0,0
			c-20.7,0-37.4,16.8-37.4,37.5C49.2,95.5,72.1,102.8,72.1,116.7z"/>
		<path class="st3" d="M101.3,125.5H72.1v6.4c0,2.9,2.3,5.2,5.2,5.2c1.4,0,2.6,1.2,2.6,2.6l0,0c0,2.2,1.8,4,4,4h5.6c2.2,0,4-1.8,4-4
			l0,0c0-1.4,1.2-2.6,2.6-2.6c2.9,0,5.2-2.3,5.2-5.2L101.3,125.5L101.3,125.5z"/>
	</g>
</g>
<g id="Social_G" class="st0">
	<g class="st1">
		<path class="st4" d="M86.7,2.4C40.1,2.4,2.4,40.1,2.4,86.7S40.2,171,86.7,171c46.6,0,84.3-37.8,84.3-84.3
			C171,40.1,133.3,2.4,86.7,2.4z M24.4,79c-0.9,0-1.7-0.7-1.7-1.7V76c0-2.8,1.7-6.1,4.3-8.3c1.7-1.5,3.9-2.6,6.2-2.7
			c0.2,0,0.3,0,0.5,0c3.2,0,6.2-3.8,4.4-4.7c-0.1-0.1-0.2-0.1-0.2-0.2c-3.9-2-6.5-6-6.5-10.6v-5.3c0-6.6,5.4-12,12-12s12,5.4,12,12
			v5.3c0,4.6-2.7,8.6-6.5,10.6c0,0.1-0.1,0.1-0.2,0.2C47,61.2,49.9,65,53.1,65c0.1,0,0.2,0,0.3,0c2.4,0.1,4.7,1.1,6.5,2.7
			c2.6,2.2,4.3,5.5,4.3,8.3v1.3c0,0.9-0.7,1.7-1.7,1.7h-19H24.4z M51.9,84.4l18.2,29.4c-0.5,1.6-0.7,3.3-0.7,5v4L45.5,84.4H51.9z
			 M66,151.8v-1.3c0-2.8,1.7-6.1,4.3-8.3c1.7-1.5,3.9-2.6,6.2-2.7c0.2,0,0.3,0,0.5,0c3.2,0,6.2-3.8,4.4-4.7
			c-0.1-0.1-0.2-0.1-0.2-0.2c-3.9-2-6.5-6-6.5-10.6v-5.3c0-6.6,5.4-12,12-12s12,5.4,12,12v5.3c0,4.6-2.7,8.6-6.5,10.6
			c0,0.1-0.1,0.1-0.2,0.2c-1.7,0.8,1.2,4.7,4.4,4.7c0.1,0,0.2,0,0.3,0c2.4,0.1,4.7,1.1,6.5,2.7c2.6,2.2,4.3,5.5,4.3,8.3v1.3
			c0,0.9-0.7,1.7-1.7,1.7h-19h-19C66.7,153.5,66,152.7,66,151.8z M104.1,122.8v-4c0-1.7-0.3-3.4-0.7-5l18.2-29.4h6.3L104.1,122.8z
			 M129.9,79h-19c-0.9,0-1.7-0.7-1.7-1.7V76c0-2.8,1.7-6.1,4.3-8.3c1.7-1.5,3.9-2.6,6.2-2.7c0.2,0,0.3,0,0.5,0
			c3.2,0,6.2-3.8,4.4-4.7c-0.1-0.1-0.2-0.1-0.2-0.2c-3.9-2-6.5-6-6.5-10.6v-5.3c0-6.6,5.4-12,12-12c6.6,0,12,5.4,12,12v5.3
			c0,4.6-2.7,8.6-6.5,10.6c0,0.1-0.1,0.1-0.2,0.2c-1.7,0.8,1.2,4.7,4.4,4.7c0.1,0,0.2,0,0.3,0c2.4,0.1,4.7,1.1,6.5,2.7
			c2.6,2.2,4.3,5.5,4.3,8.3v1.3c0,0.9-0.7,1.7-1.7,1.7H129.9z M113.2,54.1c0.5,1.9,1.4,3.8,2.6,5.4H57.6c1.2-1.6,2-3.4,2.6-5.4
			H113.2z"/>
		<path class="st3" d="M121.5,84.4l-18.2,29.4c0.5,1.6,0.7,3.3,0.7,5v4l23.8-38.4H121.5z"/>
		<path class="st3" d="M69.3,118.7c0-1.7,0.3-3.4,0.7-5L51.9,84.4h-6.3l23.8,38.4L69.3,118.7L69.3,118.7z"/>
		<path class="st3" d="M57.6,59.5h58.2c-1.2-1.6-2-3.4-2.6-5.4H60.1C59.6,56.1,58.7,57.9,57.6,59.5z"/>
		<path class="st3" d="M86.7,153.5h19c0.9,0,1.7-0.7,1.7-1.7v-1.3c0-2.8-1.7-6.1-4.3-8.3c-1.8-1.6-4-2.6-6.5-2.7c-0.1,0-0.2,0-0.3,0
			c-3.2,0-6.2-3.8-4.4-4.7c0.1-0.1,0.2-0.1,0.2-0.2c3.9-2,6.5-6,6.5-10.6v-5.3c0-6.6-5.4-12-12-12s-12,5.4-12,12v5.3
			c0,4.6,2.7,8.6,6.5,10.6c0,0.1,0.1,0.1,0.2,0.2c1.7,0.8-1.2,4.7-4.4,4.7c-0.2,0-0.3,0-0.5,0c-2.3,0.1-4.5,1.2-6.2,2.7
			c-2.6,2.2-4.3,5.5-4.3,8.3v1.3c0,0.9,0.7,1.7,1.7,1.7H86.7z"/>
		<path class="st3" d="M62.5,79c0.9,0,1.7-0.7,1.7-1.7V76c0-2.8-1.7-6.1-4.3-8.3c-1.8-1.6-4-2.6-6.5-2.7c-0.1,0-0.2,0-0.3,0
			c-3.2,0-6.2-3.8-4.4-4.7c0.1-0.1,0.2-0.1,0.2-0.2c3.9-2,6.5-6,6.5-10.6v-5.3c0-6.6-5.4-12-12-12s-12,5.4-12,12v5.3
			c0,4.6,2.7,8.6,6.5,10.6c0,0.1,0.1,0.1,0.2,0.2c1.7,0.8-1.2,4.7-4.4,4.7c-0.2,0-0.3,0-0.5,0c-2.3,0.1-4.5,1.2-6.2,2.7
			c-2.6,2.2-4.3,5.5-4.3,8.3v1.3c0,0.9,0.7,1.7,1.7,1.7h19H62.5z"/>
		<path class="st3" d="M150.7,77.3V76c0-2.8-1.7-6.1-4.3-8.3c-1.8-1.6-4-2.6-6.5-2.7c-0.1,0-0.2,0-0.3,0c-3.2,0-6.2-3.8-4.4-4.7
			c0.1-0.1,0.2-0.1,0.2-0.2c3.9-2,6.5-6,6.5-10.6v-5.3c0-6.6-5.4-12-12-12c-6.6,0-12,5.4-12,12v5.3c0,4.6,2.7,8.6,6.5,10.6
			c0,0.1,0.1,0.1,0.2,0.2c1.7,0.8-1.2,4.7-4.4,4.7c-0.2,0-0.3,0-0.5,0c-2.3,0.1-4.5,1.2-6.2,2.7c-2.6,2.2-4.3,5.5-4.3,8.3v1.3
			c0,0.9,0.7,1.7,1.7,1.7h19h19C149.9,79,150.7,78.2,150.7,77.3z"/>
	</g>
</g>
<g id="Content_Mark_G" class="st0">
	<g class="st1">
		<circle class="st4" cx="86.7" cy="86.7" r="84.3"/>
	</g>
	<g class="st1">
		<path class="st5" d="M119.5,107.9h-19.1c-4.4,0-7.9,3.5-7.9,7.9v19.1L119.5,107.9z"/>
		<g>
			<polygon class="st5" points="92.5,134.9 92.7,134.8 92.5,134.8 			"/>
			<polygon class="st5" points="119.5,108 119.5,107.9 119.5,107.9 			"/>
			<path class="st3" d="M100.4,107.9c-4.4,0-7.9,3.5-7.9,7.9v19h0.1l26.9-26.9l0,0H100.4z"/>
			<path class="st3" d="M100.4,101.4h19.1V46.3c0-4.4-3.5-7.9-7.9-7.9H61.8c-4.4,0-7.9,3.5-7.9,7.9v80.6c0,4.4,3.5,7.9,7.9,7.9H86
				v-19C86,107.9,92.5,101.4,100.4,101.4z"/>
		</g>
		<path class="st4" d="M65.4,58.3H108c1.8,0,3.2-1.5,3.2-3.2c0-1.8-1.5-3.2-3.2-3.2H65.4c-1.8,0-3.2,1.5-3.2,3.2
			C62.1,56.9,63.6,58.3,65.4,58.3z"/>
		<path class="st4" d="M65.4,74.9H108c1.8,0,3.2-1.5,3.2-3.2c0-1.8-1.5-3.2-3.2-3.2H65.4c-1.8,0-3.2,1.5-3.2,3.2
			C62.1,73.5,63.6,74.9,65.4,74.9z"/>
		<path class="st4" d="M89.9,88.3c0-1.8-1.5-3.2-3.2-3.2H65.4c-1.8,0-3.2,1.5-3.2,3.2c0,1.8,1.5,3.2,3.2,3.2h21.3
			C88.5,91.6,89.9,90.1,89.9,88.3z"/>
	</g>
</g>
<g id="Branding_white" class="st0">
	<path class="st6" d="M47.1,97.8L63,89.6l-4-7.5c-13.2,8.3-17.7,26.7-10.5,43.1l10-5.1L47.1,97.8z"/>
	<path class="st6" d="M67.2,87.4c8.2-4.2,15.2-4,20,5.2c0.4,0.8,0.7,1.5,0.9,2.3l6.9-9.2c-9.4-7.5-21.4-10-31.8-5.7l3.9,7.5
		L67.2,87.4z"/>
	<path class="st6" d="M69.6,96.8l-8.8,4.5l5.9,11.5l9.5-4.9c3.3-1.7,4.9-4.7,2.7-8.8C76.6,94.5,73,95.1,69.6,96.8z"/>
	<path class="st6" d="M87,105.3C87,105.3,87,105.4,87,105.3l17.4-8.9c-1.6-2.6-3.4-5-5.4-7.1L87,105.3z"/>
	<path class="st6" d="M85.8,3C39.2,3,1.5,40.8,1.5,87.4s37.8,84.3,84.3,84.3s84.3-37.8,84.3-84.3S132.4,3,85.8,3z M83.1,41.5
		c0.5-3.3,2.2-6.2,4.9-8.2c1.2-0.9,2.9-0.7,3.8,0.5s0.7,2.9-0.5,3.8c-1.5,1.1-2.5,2.8-2.8,4.7s0.2,3.7,1.4,5.3c2,2.7,2.9,6,2.4,9.3
		s-2.2,6.2-4.9,8.2c-0.5,0.4-1.1,0.5-1.6,0.5c-0.8,0-1.6-0.4-2.2-1.1c-0.9-1.2-0.7-2.9,0.5-3.8c1.5-1.1,2.5-2.8,2.8-4.7
		s-0.2-3.7-1.4-5.3C83.4,48.1,82.6,44.8,83.1,41.5z M56.8,30.5c0.9-1.2,2.6-1.4,3.8-0.5s1.4,2.6,0.5,3.8c-2.8,3.6-2.1,8.7,1.4,11.5
		c2.9,2.2,4.7,5.4,5.1,9s-0.5,7.1-2.8,10c-0.5,0.7-1.3,1-2.1,1c-0.6,0-1.2-0.2-1.7-0.6c-1.2-0.9-1.4-2.6-0.5-3.8
		c1.3-1.7,1.9-3.9,1.7-6c-0.3-2.2-1.4-4.1-3.1-5.4C53.3,44.9,52.3,36.4,56.8,30.5z M35.3,65.3c-3.2-0.9-5.9-3-7.5-6
		c-1.6-2.9-2-6.3-1.1-9.5c0.4-1.4,1.9-2.3,3.3-1.8c1.4,0.4,2.3,1.9,1.8,3.3c-0.5,1.8-0.3,3.7,0.6,5.4c0.9,1.7,2.4,2.9,4.3,3.4
		c6.6,1.9,10.4,8.8,8.5,15.5c-0.3,1.2-1.4,1.9-2.6,1.9c-0.2,0-0.5,0-0.7-0.1c-1.4-0.4-2.3-1.9-1.8-3.3
		C41.3,70.3,39.1,66.3,35.3,65.3z M139.6,47L126,61c-1.5,1.5-4,1.7-6.2,0.7l-17.9,23.8c3.1,3.2,5.8,6.9,8,11.1
		c10.5,20.4,4.7,44.5-13.1,53.6c-17.7,9.1-40.7,0-51.3-20.5C35,109.4,40.8,85.3,58.6,76.2c12.6-6.5,27.8-3.7,39.3,5.7l17.5-23.3
		c-1.8-2-2.3-4.7-1.1-6.6l10.2-16.6c2.6-4.2,8.1-5.5,12.1-2.4l2.4,1.9C142.9,37.8,143,43.5,139.6,47z"/>
	<path class="st6" d="M72.4,147.1L61,124.9L51,130c9.2,15.4,26.8,22.4,41.2,16.5l-3.9-7.5L72.4,147.1z"/>
	<path class="st6" d="M100.9,114.4c5.2,10,0,18.1-7.8,22.1l-0.7,0.4l3.9,7.5c13.2-8.3,17.7-26.7,10.5-43.1l-12,6.2
		C97.3,108.9,99.3,111.2,100.9,114.4z"/>
	<path class="st6" d="M80.8,115l-10.3,5.3l7,13.5l10.1-5.2c3.7-1.9,6.2-5,3.6-10.1C88.6,113.5,84.8,113,80.8,115z"/>
	<path class="st7" d="M139,34.8l-2.4-1.9c-3.9-3.1-9.5-1.8-12.1,2.4l-10.2,16.6c-1.2,1.9-0.6,4.6,1.1,6.6L97.9,81.9
		c-11.5-9.4-26.7-12.2-39.3-5.7c-17.7,9.1-23.6,33.2-13.1,53.6s33.5,29.6,51.3,20.5c17.7-9.1,23.6-33.2,13.1-53.6
		c-2.2-4.2-4.9-7.9-8-11.1l17.9-23.8c2.2,1,4.8,0.8,6.2-0.7L139.6,47C143,43.5,142.9,37.8,139,34.8z M95,85.7l-6.9,9.2
		c-0.3-0.7-0.5-1.5-0.9-2.3c-4.7-9.2-11.8-9.4-20-5.2l-0.1,0.1L63.2,80C73.6,75.7,85.6,78.2,95,85.7z M76.3,108l-9.5,4.9l-5.9-11.5
		l8.8-4.5c3.4-1.7,7-2.4,9.4,2.3C81.1,103.3,79.6,106.3,76.3,108z M59,82.1l3.9,7.5L47,97.8l11.5,22.3l-10,5.1
		C41.4,108.8,45.8,90.4,59,82.1z M51,130l10-5.1l11.5,22.3l15.9-8.2l3.9,7.5C77.8,152.4,60.2,145.4,51,130z M87.6,128.7l-10.1,5.2
		l-7-13.5l10.3-5.3c4-2.1,7.8-1.5,10.4,3.6C93.8,123.7,91.3,126.7,87.6,128.7z M96.3,144.3l-3.9-7.5l0.7-0.4
		c7.7-4,12.9-12.1,7.8-22.1c-1.6-3.1-3.7-5.5-6.1-6.9l12-6.2C114,117.6,109.5,136,96.3,144.3z M104.4,96.5l-17.5,9
		c0,0,0-0.1,0.1-0.1l12-16C101,91.5,102.8,93.8,104.4,96.5z"/>
	<path class="st7" d="M86.8,56.1c-0.3,1.9-1.2,3.5-2.8,4.7c-1.2,0.9-1.4,2.6-0.5,3.8c0.5,0.7,1.3,1.1,2.2,1.1c0.6,0,1.1-0.2,1.6-0.5
		c2.7-2,4.4-4.9,4.9-8.2s-0.4-6.6-2.4-9.3c-1.1-1.5-1.6-3.4-1.4-5.3c0.3-1.9,1.2-3.5,2.8-4.7c1.2-0.9,1.4-2.6,0.5-3.8
		s-2.6-1.4-3.8-0.5c-2.7,2-4.4,4.9-4.9,8.2s0.4,6.6,2.4,9.2C86.6,52.3,87.1,54.2,86.8,56.1z"/>
	<path class="st7" d="M59.2,49.5c1.7,1.3,2.8,3.3,3.1,5.4c0.3,2.2-0.3,4.3-1.7,6c-0.9,1.2-0.7,2.9,0.5,3.8c0.5,0.4,1.1,0.6,1.7,0.6
		c0.8,0,1.6-0.4,2.1-1c2.2-2.9,3.2-6.4,2.8-10c-0.4-3.6-2.3-6.8-5.1-9c-3.6-2.8-4.2-7.9-1.4-11.5c0.9-1.2,0.7-2.9-0.5-3.8
		s-2.9-0.7-3.8,0.5C52.3,36.4,53.3,44.9,59.2,49.5z"/>
	<path class="st7" d="M42,77.4c0.2,0.1,0.5,0.1,0.7,0.1c1.2,0,2.2-0.8,2.6-1.9c1.9-6.6-1.9-13.5-8.5-15.5c-1.8-0.5-3.3-1.7-4.3-3.4
		c-0.9-1.7-1.1-3.6-0.6-5.4c0.4-1.4-0.4-2.9-1.8-3.3c-1.4-0.4-2.9,0.4-3.3,1.8c-0.9,3.2-0.5,6.6,1.1,9.5s4.3,5,7.5,6
		c3.8,1.1,5.9,5,4.9,8.8C39.8,75.5,40.6,77,42,77.4z"/>
</g>
<g id="Traffic_white" class="st0">
	<g class="st1">
		<g>
			<path class="st3" d="M86.7,2.9C40.1,2.9,2.4,40.7,2.4,87.3s37.8,84.3,84.3,84.3c46.6,0,84.3-37.8,84.3-84.3
				C171,40.7,133.3,2.9,86.7,2.9z M121.5,76.4c2.2,0,3.3,3,1.7,4.8L114,91.9v22.7h7.5c2.2,0,3.3,3,1.7,4.8L114,130v11.1
				c0,3-2.5,5.5-5.5,5.5H64.9c-3,0-5.5-2.5-5.5-5.5V130l-9.3-10.6c-1.5-1.8-0.5-4.8,1.7-4.8h7.5V91.9L50,81.3
				c-1.5-1.8-0.5-4.8,1.7-4.8h7.5V53.8l-9.3-10.6c-1.5-1.8-0.5-4.8,1.7-4.8h7.5v-4.9c0-3,2.5-5.5,5.5-5.5h43.6c3,0,5.5,2.5,5.5,5.5
				v4.9h7.5c2.2,0,3.3,3,1.7,4.8L114,53.8v22.7L121.5,76.4L121.5,76.4z"/>
		</g>
		<g>
			<circle class="st3" cx="86.7" cy="51.1" r="12.5"/>
			<circle class="st3" cx="86.7" cy="89.2" r="12.5"/>
			<circle class="st3" cx="86.7" cy="127.3" r="12.5"/>
			<path class="st5" d="M123.3,81.2c1.5-1.8,0.5-4.8-1.7-4.8H114V53.8l9.3-10.6c1.5-1.8,0.5-4.8-1.7-4.8H114v-4.9
				c0-3-2.5-5.5-5.5-5.5H64.9c-3,0-5.5,2.5-5.5,5.5v4.9h-7.5c-2.2,0-3.3,3-1.7,4.8l9.3,10.6v22.7H52c-2.2,0-3.3,3-1.7,4.8l9.3,10.6
				v22.7h-7.5c-2.2,0-3.3,3-1.7,4.8l9.3,10.6v11.1c0,3,2.5,5.5,5.5,5.5h43.6c3,0,5.5-2.5,5.5-5.5V130l9.3-10.6
				c1.5-1.8,0.5-4.8-1.7-4.8H114V91.9L123.3,81.2z M86.7,139.8c-6.9,0-12.5-5.6-12.5-12.5c0-6.9,5.6-12.5,12.5-12.5
				s12.5,5.6,12.5,12.5C99.2,134.2,93.6,139.8,86.7,139.8z M86.7,101.7c-6.9,0-12.5-5.6-12.5-12.5s5.6-12.5,12.5-12.5
				s12.5,5.6,12.5,12.5S93.6,101.7,86.7,101.7z M86.7,63.6c-6.9,0-12.5-5.6-12.5-12.5s5.6-12.5,12.5-12.5s12.5,5.6,12.5,12.5
				S93.6,63.6,86.7,63.6z"/>
		</g>
	</g>
</g>
<g id="Lead_Gen_white" class="st0">
	<g class="st1">
		<path class="st3" d="M86.7,2.4C40.1,2.4,2.4,40.1,2.4,86.7S40.2,171,86.7,171c46.6,0,84.3-37.8,84.3-84.3
			C171,40.1,133.3,2.4,86.7,2.4z M114,86.7l-14.7,5.2L106,106l-14.1-6.7L86.7,114l-5.2-14.7L67.3,106L74,91.9l-14.7-5.2L74,81.5
			l-0.5-1L47.1,54H36.2c-2.5,0-3.7-3-2-4.8l4.8-2.8H28.5c-2.5,0-3.7-3-2-4.8L36,36l5.6-9.4c0.6-0.6,1.3-0.8,2-0.8
			c1.4,0,2.8,1.1,2.8,2.8V39l2.8-4.8c0.6-0.6,1.3-0.8,2-0.8c1.4,0,2.8,1.1,2.8,2.8v10.9l26.5,26.5l1,0.5l5.2-14.7l5.2,14.7l14.1-6.7
			l-6.7,14.1L114,86.7z M43.5,19.2L43.5,19.2L43.5,19.2z M86.7,142.6c-30.8,0-55.9-25.1-55.9-55.9c0-9.5,2.4-18.4,6.6-26.2h7
			l7.4,7.4c-3,5.6-4.8,12-4.8,18.8c0,21.9,17.8,39.7,39.7,39.7s39.7-17.8,39.7-39.7S108.6,47,86.7,47c-6.8,0-13.2,1.7-18.8,4.8
			l-7.4-7.4v-7c7.8-4.2,16.8-6.6,26.2-6.6c30.8,0,55.9,25.1,55.9,55.9S117.5,142.6,86.7,142.6z"/>
		<path class="st5" d="M86.7,30.8c-9.5,0-18.4,2.4-26.2,6.6v7l7.4,7.4c5.6-3,12-4.8,18.8-4.8c21.9,0,39.7,17.8,39.7,39.7
			s-17.8,39.7-39.7,39.7S47,108.6,47,86.7c0-6.8,1.7-13.2,4.8-18.8l-7.4-7.4h-7c-4.2,7.8-6.6,16.8-6.6,26.2
			c0,30.8,25.1,55.9,55.9,55.9s55.9-25.1,55.9-55.9S117.5,30.8,86.7,30.8z"/>
		<line class="st5" x1="43.5" y1="19.2" x2="43.5" y2="19.2"/>
		<path class="st5" d="M91.9,74.1l-5.2-14.7l-5.2,14.7l-1-0.5L54,47.1V36.2c0-1.7-1.4-2.8-2.8-2.8c-0.7,0-1.4,0.3-2,0.8L46.3,39
			V28.5c0-1.7-1.4-2.8-2.8-2.8c-0.7,0-1.4,0.3-2,0.8L36,36l-9.4,5.6c-1.8,1.8-0.5,4.8,2,4.8H39l-4.8,2.8c-1.8,1.8-0.5,4.8,2,4.8
			h10.9l26.5,26.5l0.5,1l-14.7,5.2l14.7,5.2L67.3,106l14.1-6.7l5.2,14.7l5.2-14.7L106,106l-6.7-14.1l14.7-5.2l-14.7-5.2l6.7-14.1
			L91.9,74.1z"/>
	</g>
</g>
<g id="Thought_Lead_White" class="st0">
	<g class="st1">
		<path class="st3" d="M86.7,2.4C40.1,2.4,2.4,40.1,2.4,86.7S40.1,171,86.7,171S171,133.3,171,86.7S133.3,2.4,86.7,2.4z M86.7,31.1
			L86.7,31.1L86.7,31.1L86.7,31.1L86.7,31.1c20.7,0,37.5,16.8,37.5,37.5c0,27-22.9,34.2-22.9,48.2H86.7h-0.1H72.1
			c0-14-22.9-21.2-22.9-48.2C49.2,47.9,66,31.1,86.7,31.1z M96.1,137c-1.4,0-2.6,1.2-2.6,2.6l0,0c0,2.2-1.8,4-4,4h-5.6
			c-2.2,0-4-1.8-4-4l0,0c0-1.4-1.2-2.6-2.6-2.6c-2.9,0-5.2-2.3-5.2-5.2v-6.4h29.2v6.4C101.3,134.7,98.9,137,96.1,137z"/>
		<path class="st5" d="M72.1,116.7h14.6h0.1h14.6c0-14,22.9-21.2,22.9-48.2c0-20.7-16.8-37.5-37.4-37.5l0,0l0,0l0,0l0,0
			c-20.7,0-37.4,16.8-37.4,37.5C49.2,95.5,72.1,102.8,72.1,116.7z"/>
		<path class="st5" d="M101.3,125.5H72.1v6.4c0,2.9,2.3,5.2,5.2,5.2c1.4,0,2.6,1.2,2.6,2.6l0,0c0,2.2,1.8,4,4,4h5.6c2.2,0,4-1.8,4-4
			l0,0c0-1.4,1.2-2.6,2.6-2.6c2.9,0,5.2-2.3,5.2-5.2L101.3,125.5L101.3,125.5z"/>
	</g>
</g>
<g id="Social_White" class="st0">
	<g class="st1">
		<path class="st3" d="M86.7,2.4C40.1,2.4,2.4,40.1,2.4,86.7S40.2,171,86.7,171c46.6,0,84.3-37.8,84.3-84.3
			C171,40.1,133.3,2.4,86.7,2.4z M24.4,79c-0.9,0-1.7-0.7-1.7-1.7V76c0-2.8,1.7-6.1,4.3-8.3c1.7-1.5,3.9-2.6,6.2-2.7
			c0.2,0,0.3,0,0.5,0c3.2,0,6.2-3.8,4.4-4.7c-0.1-0.1-0.2-0.1-0.2-0.2c-3.9-2-6.5-6-6.5-10.6v-5.3c0-6.6,5.4-12,12-12s12,5.4,12,12
			v5.3c0,4.6-2.7,8.6-6.5,10.6c0,0.1-0.1,0.1-0.2,0.2C47,61.2,49.9,65,53.1,65c0.1,0,0.2,0,0.3,0c2.4,0.1,4.7,1.1,6.5,2.7
			c2.6,2.2,4.3,5.5,4.3,8.3v1.3c0,0.9-0.7,1.7-1.7,1.7h-19H24.4z M51.9,84.4l18.2,29.4c-0.5,1.6-0.7,3.3-0.7,5v4L45.5,84.4H51.9z
			 M66,151.8v-1.3c0-2.8,1.7-6.1,4.3-8.3c1.7-1.5,3.9-2.6,6.2-2.7c0.2,0,0.3,0,0.5,0c3.2,0,6.2-3.8,4.4-4.7
			c-0.1-0.1-0.2-0.1-0.2-0.2c-3.9-2-6.5-6-6.5-10.6v-5.3c0-6.6,5.4-12,12-12s12,5.4,12,12v5.3c0,4.6-2.7,8.6-6.5,10.6
			c0,0.1-0.1,0.1-0.2,0.2c-1.7,0.8,1.2,4.7,4.4,4.7c0.1,0,0.2,0,0.3,0c2.4,0.1,4.7,1.1,6.5,2.7c2.6,2.2,4.3,5.5,4.3,8.3v1.3
			c0,0.9-0.7,1.7-1.7,1.7h-19h-19C66.7,153.5,66,152.7,66,151.8z M104.1,122.8v-4c0-1.7-0.3-3.4-0.7-5l18.2-29.4h6.3L104.1,122.8z
			 M129.9,79h-19c-0.9,0-1.7-0.7-1.7-1.7V76c0-2.8,1.7-6.1,4.3-8.3c1.7-1.5,3.9-2.6,6.2-2.7c0.2,0,0.3,0,0.5,0
			c3.2,0,6.2-3.8,4.4-4.7c-0.1-0.1-0.2-0.1-0.2-0.2c-3.9-2-6.5-6-6.5-10.6v-5.3c0-6.6,5.4-12,12-12c6.6,0,12,5.4,12,12v5.3
			c0,4.6-2.7,8.6-6.5,10.6c0,0.1-0.1,0.1-0.2,0.2c-1.7,0.8,1.2,4.7,4.4,4.7c0.1,0,0.2,0,0.3,0c2.4,0.1,4.7,1.1,6.5,2.7
			c2.6,2.2,4.3,5.5,4.3,8.3v1.3c0,0.9-0.7,1.7-1.7,1.7H129.9z M113.2,54.1c0.5,1.9,1.4,3.8,2.6,5.4H57.6c1.2-1.6,2-3.4,2.6-5.4
			H113.2z"/>
		<path class="st5" d="M121.5,84.4l-18.2,29.4c0.5,1.6,0.7,3.3,0.7,5v4l23.8-38.4H121.5z"/>
		<path class="st5" d="M69.3,118.7c0-1.7,0.3-3.4,0.7-5L51.9,84.4h-6.3l23.8,38.4L69.3,118.7L69.3,118.7z"/>
		<path class="st5" d="M57.6,59.5h58.2c-1.2-1.6-2-3.4-2.6-5.4H60.1C59.6,56.1,58.7,57.9,57.6,59.5z"/>
		<path class="st5" d="M86.7,153.5h19c0.9,0,1.7-0.7,1.7-1.7v-1.3c0-2.8-1.7-6.1-4.3-8.3c-1.8-1.6-4-2.6-6.5-2.7c-0.1,0-0.2,0-0.3,0
			c-3.2,0-6.2-3.8-4.4-4.7c0.1-0.1,0.2-0.1,0.2-0.2c3.9-2,6.5-6,6.5-10.6v-5.3c0-6.6-5.4-12-12-12s-12,5.4-12,12v5.3
			c0,4.6,2.7,8.6,6.5,10.6c0,0.1,0.1,0.1,0.2,0.2c1.7,0.8-1.2,4.7-4.4,4.7c-0.2,0-0.3,0-0.5,0c-2.3,0.1-4.5,1.2-6.2,2.7
			c-2.6,2.2-4.3,5.5-4.3,8.3v1.3c0,0.9,0.7,1.7,1.7,1.7H86.7z"/>
		<path class="st5" d="M62.5,79c0.9,0,1.7-0.7,1.7-1.7V76c0-2.8-1.7-6.1-4.3-8.3c-1.8-1.6-4-2.6-6.5-2.7c-0.1,0-0.2,0-0.3,0
			c-3.2,0-6.2-3.8-4.4-4.7c0.1-0.1,0.2-0.1,0.2-0.2c3.9-2,6.5-6,6.5-10.6v-5.3c0-6.6-5.4-12-12-12s-12,5.4-12,12v5.3
			c0,4.6,2.7,8.6,6.5,10.6c0,0.1,0.1,0.1,0.2,0.2c1.7,0.8-1.2,4.7-4.4,4.7c-0.2,0-0.3,0-0.5,0c-2.3,0.1-4.5,1.2-6.2,2.7
			c-2.6,2.2-4.3,5.5-4.3,8.3v1.3c0,0.9,0.7,1.7,1.7,1.7h19H62.5z"/>
		<path class="st5" d="M150.7,77.3V76c0-2.8-1.7-6.1-4.3-8.3c-1.8-1.6-4-2.6-6.5-2.7c-0.1,0-0.2,0-0.3,0c-3.2,0-6.2-3.8-4.4-4.7
			c0.1-0.1,0.2-0.1,0.2-0.2c3.9-2,6.5-6,6.5-10.6v-5.3c0-6.6-5.4-12-12-12c-6.6,0-12,5.4-12,12v5.3c0,4.6,2.7,8.6,6.5,10.6
			c0,0.1,0.1,0.1,0.2,0.2c1.7,0.8-1.2,4.7-4.4,4.7c-0.2,0-0.3,0-0.5,0c-2.3,0.1-4.5,1.2-6.2,2.7c-2.6,2.2-4.3,5.5-4.3,8.3v1.3
			c0,0.9,0.7,1.7,1.7,1.7h19h19C149.9,79,150.7,78.2,150.7,77.3z"/>
	</g>
</g>
<g id="Content_White" class="st0">
	<g class="st1">
		<path class="st5" d="M119.5,107.9h-19.1c-4.4,0-7.9,3.5-7.9,7.9v19.1L119.5,107.9z"/>
		<g>
			<polygon class="st5" points="92.5,134.9 92.7,134.8 92.5,134.8 			"/>
			<polygon class="st5" points="119.5,108 119.5,107.9 119.5,107.9 			"/>
			<path class="st5" d="M86.7,2.4C40.1,2.4,2.4,40.1,2.4,86.7S40.1,171,86.7,171S171,133.3,171,86.7S133.3,2.4,86.7,2.4z M119.5,108
				l-26.9,26.9h-0.1v-19c0-4.4,3.5-7.9,7.9-7.9L119.5,108L119.5,108z M119.5,101.4h-19.1c-7.9,0-14.4,6.5-14.4,14.4v19H61.8
				c-4.4,0-7.9-3.5-7.9-7.9V46.3c0-4.4,3.5-7.9,7.9-7.9h49.9c4.4,0,7.9,3.5,7.9,7.9L119.5,101.4L119.5,101.4z"/>
		</g>
		<path class="st5" d="M65.4,58.3H108c1.8,0,3.2-1.5,3.2-3.2c0-1.8-1.5-3.2-3.2-3.2H65.4c-1.8,0-3.2,1.5-3.2,3.2
			C62.1,56.9,63.6,58.3,65.4,58.3z"/>
		<path class="st5" d="M65.4,74.9H108c1.8,0,3.2-1.5,3.2-3.2c0-1.8-1.5-3.2-3.2-3.2H65.4c-1.8,0-3.2,1.5-3.2,3.2
			C62.1,73.5,63.6,74.9,65.4,74.9z"/>
		<path class="st5" d="M89.9,88.3c0-1.8-1.5-3.2-3.2-3.2H65.4c-1.8,0-3.2,1.5-3.2,3.2c0,1.8,1.5,3.2,3.2,3.2h21.3
			C88.5,91.6,89.9,90.1,89.9,88.3z"/>
	</g>
</g>
<g id="Layer_19" class="st0">
	<path class="st8" d="M47.9,97.1L63.8,89l-3.9-7.5c-13.2,8.3-17.7,26.7-10.5,43.1l10-5.1L47.9,97.1z"/>
	<path class="st8" d="M68.1,86.7c8.2-4.2,15.2-4,20,5.2c0.4,0.8,0.7,1.5,0.9,2.3l6.9-9.2c-9.4-7.5-21.4-10-31.8-5.7l3.9,7.5
		L68.1,86.7z"/>
	<path class="st8" d="M70.5,96.2l-8.8,4.5l5.9,11.5l9.5-4.9c3.3-1.7,4.9-4.7,2.7-8.8C77.5,93.8,73.8,94.4,70.5,96.2z"/>
	<path class="st8" d="M87.8,104.6C87.8,104.6,87.8,104.7,87.8,104.6l17.4-8.9c-1.6-2.6-3.4-5-5.4-7.1L87.8,104.6z"/>
	<path class="st8" d="M86.7,2.4C40.1,2.4,2.4,40.1,2.4,86.7S40.1,171,86.7,171S171,133.3,171,86.7S133.3,2.4,86.7,2.4z M83.9,40.8
		c0.5-3.3,2.2-6.2,4.9-8.2c1.2-0.9,2.9-0.7,3.8,0.5s0.7,2.9-0.5,3.8c-1.5,1.1-2.5,2.8-2.8,4.7s0.2,3.7,1.4,5.3c2,2.7,2.9,6,2.4,9.3
		s-2.2,6.2-4.9,8.2c-0.5,0.4-1.1,0.5-1.6,0.5c-0.8,0-1.6-0.4-2.2-1.1c-0.9-1.2-0.7-2.9,0.5-3.8c1.5-1.1,2.5-2.8,2.8-4.7
		s-0.2-3.7-1.4-5.3C84.3,47.4,83.5,44.1,83.9,40.8z M57.7,29.8c0.9-1.2,2.6-1.4,3.8-0.5s1.4,2.6,0.5,3.8c-2.8,3.6-2.1,8.7,1.4,11.5
		c2.9,2.2,4.7,5.4,5.1,9s-0.5,7.1-2.8,10c-0.5,0.7-1.3,1-2.1,1c-0.6,0-1.2-0.2-1.7-0.6c-1.2-0.9-1.4-2.6-0.5-3.8
		c1.3-1.7,1.9-3.9,1.7-6c-0.3-2.2-1.4-4.1-3.1-5.4C54.2,44.2,53.1,35.7,57.7,29.8z M36.2,64.6c-3.2-0.9-5.9-3-7.5-6
		c-1.6-2.9-2-6.3-1.1-9.5c0.4-1.4,1.9-2.3,3.3-1.8c1.4,0.4,2.3,1.9,1.8,3.3c-0.5,1.8-0.3,3.7,0.6,5.4c0.9,1.7,2.4,2.9,4.3,3.4
		c6.6,1.9,10.4,8.8,8.5,15.5c-0.3,1.2-1.4,1.9-2.6,1.9c-0.2,0-0.5,0-0.7-0.1c-1.4-0.4-2.3-1.9-1.8-3.3C42.1,69.6,40,65.6,36.2,64.6z
		 M140.5,46.4l-13.6,13.9c-1.5,1.5-4,1.7-6.2,0.7l-17.9,23.8c3.1,3.2,5.8,6.9,8,11.1c10.5,20.4,4.7,44.5-13.1,53.6
		c-17.7,9.1-40.7,0-51.3-20.5c-10.5-20.4-4.7-44.5,13.1-53.6C72,69,87.2,71.8,98.8,81.2l17.5-23.3c-1.8-2-2.3-4.7-1.1-6.6l10.2-16.6
		c2.6-4.2,8.1-5.5,12.1-2.4l2.4,1.9C143.8,37.1,143.9,42.8,140.5,46.4z"/>
	<path class="st8" d="M73.3,146.4l-11.5-22.3l-10,5.1c9.2,15.4,26.8,22.4,41.2,16.5l-3.9-7.5L73.3,146.4z"/>
	<path class="st8" d="M101.8,113.7c5.2,10,0,18.1-7.8,22.1l-0.7,0.4l3.9,7.5c13.2-8.3,17.7-26.7,10.5-43.1l-12,6.2
		C98.1,108.2,100.2,110.6,101.8,113.7z"/>
	<path class="st8" d="M81.7,114.3l-10.3,5.3l7,13.5l10.1-5.2c3.7-1.9,6.2-5,3.6-10.1C89.5,112.8,85.7,112.3,81.7,114.3z"/>
	<path class="st7" d="M139.9,34.1l-2.4-1.9c-3.9-3.1-9.5-1.8-12.1,2.4l-10.2,16.6c-1.2,1.9-0.6,4.6,1.1,6.6L98.8,81.2
		C87.2,71.8,72,69,59.5,75.5c-17.7,9.1-23.6,33.2-13.1,53.6s33.5,29.6,51.3,20.5c17.7-9.1,23.6-33.2,13.1-53.6
		c-2.2-4.2-4.9-7.9-8-11.1L120.6,61c2.2,1,4.8,0.8,6.2-0.7l13.6-13.9C143.9,42.8,143.8,37.1,139.9,34.1z M95.9,85L89,94.2
		c-0.3-0.7-0.5-1.5-0.9-2.3c-4.7-9.2-11.8-9.4-20-5.2L68,86.8l-3.9-7.5C74.5,75,86.5,77.5,95.9,85z M77.1,107.3l-9.5,4.9l-5.9-11.5
		l8.8-4.5c3.4-1.7,7-2.4,9.4,2.3C82,102.6,80.4,105.6,77.1,107.3z M59.9,81.4l3.9,7.5l-15.9,8.2l11.5,22.3l-10,5.1
		C42.2,108.1,46.7,89.7,59.9,81.4z M51.8,129.3l10-5.1l11.5,22.3l15.9-8.2l3.9,7.5C78.6,151.7,61,144.7,51.8,129.3z M88.5,128
		l-10.1,5.2l-7-13.5l10.3-5.3c4-2.1,7.8-1.5,10.4,3.6C94.7,123,92.2,126,88.5,128z M97.2,143.6l-3.9-7.5l0.7-0.4
		c7.7-4,12.9-12.1,7.8-22.1c-1.6-3.1-3.7-5.5-6.1-6.9l12-6.2C114.9,117,110.4,135.3,97.2,143.6z M105.2,95.8l-17.5,9
		c0,0,0-0.1,0.1-0.1l12-16C101.8,90.8,103.7,93.1,105.2,95.8z"/>
	<path class="st7" d="M87.7,55.4c-0.3,1.9-1.2,3.5-2.8,4.7c-1.2,0.9-1.4,2.6-0.5,3.8c0.5,0.7,1.3,1.1,2.2,1.1c0.6,0,1.1-0.2,1.6-0.5
		c2.7-2,4.4-4.9,4.9-8.2s-0.4-6.6-2.4-9.3c-1.1-1.5-1.6-3.4-1.4-5.3c0.3-1.9,1.2-3.5,2.8-4.7c1.2-0.9,1.4-2.6,0.5-3.8
		s-2.6-1.4-3.8-0.5c-2.7,2-4.4,4.9-4.9,8.2s0.4,6.6,2.4,9.2C87.4,51.6,87.9,53.5,87.7,55.4z"/>
	<path class="st7" d="M60.1,48.8c1.7,1.3,2.8,3.3,3.1,5.4c0.3,2.2-0.3,4.3-1.7,6c-0.9,1.2-0.7,2.9,0.5,3.8c0.5,0.4,1.1,0.6,1.7,0.6
		c0.8,0,1.6-0.4,2.1-1c2.2-2.9,3.2-6.4,2.8-10c-0.4-3.6-2.3-6.8-5.1-9c-3.6-2.8-4.2-7.9-1.4-11.5c0.9-1.2,0.7-2.9-0.5-3.8
		s-2.9-0.7-3.8,0.5C53.1,35.7,54.2,44.2,60.1,48.8z"/>
	<path class="st7" d="M42.9,76.7c0.2,0.1,0.5,0.1,0.7,0.1c1.2,0,2.2-0.8,2.6-1.9c1.9-6.6-1.9-13.5-8.5-15.5
		c-1.8-0.5-3.3-1.7-4.3-3.4c-0.9-1.7-1.1-3.6-0.6-5.4c0.4-1.4-0.4-2.9-1.8-3.3c-1.4-0.4-2.9,0.4-3.3,1.8c-0.9,3.2-0.5,6.6,1.1,9.5
		s4.3,5,7.5,6c3.8,1.1,5.9,5,4.9,8.8C40.6,74.8,41.5,76.3,42.9,76.7z"/>
</g>
<g id="Layer_20" class="st0">
	<g class="st1">
		<g>
			<path class="st9" d="M86.7,2.4C40.1,2.4,2.4,40.1,2.4,86.7S40.2,171,86.7,171c46.6,0,84.3-37.8,84.3-84.3
				C171,40.1,133.3,2.4,86.7,2.4z M121.5,75.9c2.2,0,3.3,3,1.7,4.8L114,91.3V114h7.5c2.2,0,3.3,3,1.7,4.8l-9.3,10.6v11.1
				c0,3-2.5,5.5-5.5,5.5H64.9c-3,0-5.5-2.5-5.5-5.5v-11.1l-9.3-10.6c-1.5-1.8-0.5-4.8,1.7-4.8h7.5V91.3L50,80.7
				c-1.5-1.8-0.5-4.8,1.7-4.8h7.5V53.2l-9.3-10.6c-1.5-1.8-0.5-4.8,1.7-4.8h7.5v-4.9c0-3,2.5-5.5,5.5-5.5h43.6c3,0,5.5,2.5,5.5,5.5
				v4.9h7.5c2.2,0,3.3,3,1.7,4.8L114,53.2v22.7H121.5z"/>
		</g>
		<g>
			<circle class="st9" cx="86.7" cy="50.5" r="12.5"/>
			<circle class="st9" cx="86.7" cy="88.6" r="12.5"/>
			<circle class="st9" cx="86.7" cy="126.7" r="12.5"/>
			<path class="st5" d="M123.3,80.7c1.5-1.8,0.5-4.8-1.7-4.8H114V53.2l9.3-10.6c1.5-1.8,0.5-4.8-1.7-4.8H114v-4.9
				c0-3-2.5-5.5-5.5-5.5H64.9c-3,0-5.5,2.5-5.5,5.5v4.9h-7.5c-2.2,0-3.3,3-1.7,4.8l9.3,10.6v22.7H52c-2.2,0-3.3,3-1.7,4.8l9.3,10.6
				V114h-7.5c-2.2,0-3.3,3-1.7,4.8l9.3,10.6v11.1c0,3,2.5,5.5,5.5,5.5h43.6c3,0,5.5-2.5,5.5-5.5v-11.1l9.3-10.6
				c1.5-1.8,0.5-4.8-1.7-4.8H114V91.3L123.3,80.7z M86.7,139.2c-6.9,0-12.5-5.6-12.5-12.5c0-6.9,5.6-12.5,12.5-12.5
				s12.5,5.6,12.5,12.5C99.2,133.6,93.6,139.2,86.7,139.2z M86.7,101.1c-6.9,0-12.5-5.6-12.5-12.5s5.6-12.5,12.5-12.5
				s12.5,5.6,12.5,12.5S93.6,101.1,86.7,101.1z M86.7,63c-6.9,0-12.5-5.6-12.5-12.5S79.8,38,86.7,38s12.5,5.6,12.5,12.5
				S93.6,63,86.7,63z"/>
		</g>
	</g>
</g>
<g id="Layer_21" class="st0">
	<g class="st1">
		<path class="st9" d="M86.7,2.4C40.1,2.4,2.4,40.1,2.4,86.7S40.2,171,86.7,171c46.6,0,84.3-37.8,84.3-84.3
			C171,40.1,133.3,2.4,86.7,2.4z M114,86.7l-14.7,5.2L106,106l-14.1-6.7L86.7,114l-5.2-14.7L67.3,106L74,91.9l-14.7-5.2L74,81.5
			l-0.5-1L47.1,54H36.2c-2.5,0-3.7-3-2-4.8l4.8-2.8H28.5c-2.5,0-3.7-3-2-4.8L36,36l5.6-9.4c0.6-0.6,1.3-0.8,2-0.8
			c1.4,0,2.8,1.1,2.8,2.8V39l2.8-4.8c0.6-0.6,1.3-0.8,2-0.8c1.4,0,2.8,1.1,2.8,2.8v10.9l26.5,26.5l1,0.5l5.2-14.7l5.2,14.7l14.1-6.7
			l-6.7,14.1L114,86.7z M43.5,19.2L43.5,19.2L43.5,19.2z M86.7,142.6c-30.8,0-55.9-25.1-55.9-55.9c0-9.5,2.4-18.4,6.6-26.2h7
			l7.4,7.4c-3,5.6-4.8,12-4.8,18.8c0,21.9,17.8,39.7,39.7,39.7s39.7-17.8,39.7-39.7S108.6,47,86.7,47c-6.8,0-13.2,1.7-18.8,4.8
			l-7.4-7.4v-7c7.8-4.2,16.8-6.6,26.2-6.6c30.8,0,55.9,25.1,55.9,55.9S117.5,142.6,86.7,142.6z"/>
		<path class="st5" d="M86.7,30.8c-9.5,0-18.4,2.4-26.2,6.6v7l7.4,7.4c5.6-3,12-4.8,18.8-4.8c21.9,0,39.7,17.8,39.7,39.7
			s-17.8,39.7-39.7,39.7S47,108.6,47,86.7c0-6.8,1.7-13.2,4.8-18.8l-7.4-7.4h-7c-4.2,7.8-6.6,16.8-6.6,26.2
			c0,30.8,25.1,55.9,55.9,55.9s55.9-25.1,55.9-55.9S117.5,30.8,86.7,30.8z"/>
		<line class="st5" x1="43.5" y1="19.2" x2="43.5" y2="19.2"/>
		<path class="st5" d="M91.9,74.1l-5.2-14.7l-5.2,14.7l-1-0.5L54,47.1V36.2c0-1.7-1.4-2.8-2.8-2.8c-0.7,0-1.4,0.3-2,0.8L46.3,39
			V28.5c0-1.7-1.4-2.8-2.8-2.8c-0.7,0-1.4,0.3-2,0.8L36,36l-9.4,5.6c-1.8,1.8-0.5,4.8,2,4.8H39l-4.8,2.8c-1.8,1.8-0.5,4.8,2,4.8
			h10.9l26.5,26.5l0.5,1l-14.7,5.2l14.7,5.2L67.3,106l14.1-6.7l5.2,14.7l5.2-14.7L106,106l-6.7-14.1l14.7-5.2l-14.7-5.2l6.7-14.1
			L91.9,74.1z"/>
	</g>
</g>
<g id="Layer_22" class="st0">
	<g class="st1">
		<path class="st9" d="M86.7,2.4C40.1,2.4,2.4,40.1,2.4,86.7S40.1,171,86.7,171S171,133.3,171,86.7S133.3,2.4,86.7,2.4z M86.7,31.1
			L86.7,31.1L86.7,31.1L86.7,31.1L86.7,31.1c20.7,0,37.5,16.8,37.5,37.5c0,27-22.9,34.2-22.9,48.2H86.7h-0.1H72.1
			c0-14-22.9-21.2-22.9-48.2C49.2,47.9,66,31.1,86.7,31.1z M96.1,137c-1.4,0-2.6,1.2-2.6,2.6l0,0c0,2.2-1.8,4-4,4h-5.6
			c-2.2,0-4-1.8-4-4l0,0c0-1.4-1.2-2.6-2.6-2.6c-2.9,0-5.2-2.3-5.2-5.2v-6.4h29.2v6.4C101.3,134.7,98.9,137,96.1,137z"/>
		<path class="st5" d="M72.1,116.7h14.6h0.1h14.6c0-14,22.9-21.2,22.9-48.2c0-20.7-16.8-37.5-37.4-37.5l0,0l0,0l0,0l0,0
			c-20.7,0-37.4,16.8-37.4,37.5C49.2,95.5,72.1,102.8,72.1,116.7z"/>
		<path class="st5" d="M101.3,125.5H72.1v6.4c0,2.9,2.3,5.2,5.2,5.2c1.4,0,2.6,1.2,2.6,2.6l0,0c0,2.2,1.8,4,4,4h5.6c2.2,0,4-1.8,4-4
			l0,0c0-1.4,1.2-2.6,2.6-2.6c2.9,0,5.2-2.3,5.2-5.2L101.3,125.5L101.3,125.5z"/>
	</g>
</g>
<g id="Layer_23" class="st0">
	<g class="st1">
		<path class="st9" d="M86.7,2.4C40.1,2.4,2.4,40.1,2.4,86.7S40.2,171,86.7,171c46.6,0,84.3-37.8,84.3-84.3
			C171,40.1,133.3,2.4,86.7,2.4z M24.4,79c-0.9,0-1.7-0.7-1.7-1.7V76c0-2.8,1.7-6.1,4.3-8.3c1.7-1.5,3.9-2.6,6.2-2.7
			c0.2,0,0.3,0,0.5,0c3.2,0,6.2-3.8,4.4-4.7c-0.1-0.1-0.2-0.1-0.2-0.2c-3.9-2-6.5-6-6.5-10.6v-5.3c0-6.6,5.4-12,12-12s12,5.4,12,12
			v5.3c0,4.6-2.7,8.6-6.5,10.6c0,0.1-0.1,0.1-0.2,0.2C47,61.2,49.9,65,53.1,65c0.1,0,0.2,0,0.3,0c2.4,0.1,4.7,1.1,6.5,2.7
			c2.6,2.2,4.3,5.5,4.3,8.3v1.3c0,0.9-0.7,1.7-1.7,1.7h-19H24.4z M51.9,84.4l18.2,29.4c-0.5,1.6-0.7,3.3-0.7,5v4L45.5,84.4H51.9z
			 M66,151.8v-1.3c0-2.8,1.7-6.1,4.3-8.3c1.7-1.5,3.9-2.6,6.2-2.7c0.2,0,0.3,0,0.5,0c3.2,0,6.2-3.8,4.4-4.7
			c-0.1-0.1-0.2-0.1-0.2-0.2c-3.9-2-6.5-6-6.5-10.6v-5.3c0-6.6,5.4-12,12-12s12,5.4,12,12v5.3c0,4.6-2.7,8.6-6.5,10.6
			c0,0.1-0.1,0.1-0.2,0.2c-1.7,0.8,1.2,4.7,4.4,4.7c0.1,0,0.2,0,0.3,0c2.4,0.1,4.7,1.1,6.5,2.7c2.6,2.2,4.3,5.5,4.3,8.3v1.3
			c0,0.9-0.7,1.7-1.7,1.7h-19h-19C66.7,153.5,66,152.7,66,151.8z M104.1,122.8v-4c0-1.7-0.3-3.4-0.7-5l18.2-29.4h6.3L104.1,122.8z
			 M129.9,79h-19c-0.9,0-1.7-0.7-1.7-1.7V76c0-2.8,1.7-6.1,4.3-8.3c1.7-1.5,3.9-2.6,6.2-2.7c0.2,0,0.3,0,0.5,0
			c3.2,0,6.2-3.8,4.4-4.7c-0.1-0.1-0.2-0.1-0.2-0.2c-3.9-2-6.5-6-6.5-10.6v-5.3c0-6.6,5.4-12,12-12c6.6,0,12,5.4,12,12v5.3
			c0,4.6-2.7,8.6-6.5,10.6c0,0.1-0.1,0.1-0.2,0.2c-1.7,0.8,1.2,4.7,4.4,4.7c0.1,0,0.2,0,0.3,0c2.4,0.1,4.7,1.1,6.5,2.7
			c2.6,2.2,4.3,5.5,4.3,8.3v1.3c0,0.9-0.7,1.7-1.7,1.7H129.9z M113.2,54.1c0.5,1.9,1.4,3.8,2.6,5.4H57.6c1.2-1.6,2-3.4,2.6-5.4
			H113.2z"/>
		<path class="st5" d="M121.5,84.4l-18.2,29.4c0.5,1.6,0.7,3.3,0.7,5v4l23.8-38.4H121.5z"/>
		<path class="st5" d="M69.3,118.7c0-1.7,0.3-3.4,0.7-5L51.9,84.4h-6.3l23.8,38.4L69.3,118.7L69.3,118.7z"/>
		<path class="st5" d="M57.6,59.5h58.2c-1.2-1.6-2-3.4-2.6-5.4H60.1C59.6,56.1,58.7,57.9,57.6,59.5z"/>
		<path class="st5" d="M86.7,153.5h19c0.9,0,1.7-0.7,1.7-1.7v-1.3c0-2.8-1.7-6.1-4.3-8.3c-1.8-1.6-4-2.6-6.5-2.7c-0.1,0-0.2,0-0.3,0
			c-3.2,0-6.2-3.8-4.4-4.7c0.1-0.1,0.2-0.1,0.2-0.2c3.9-2,6.5-6,6.5-10.6v-5.3c0-6.6-5.4-12-12-12s-12,5.4-12,12v5.3
			c0,4.6,2.7,8.6,6.5,10.6c0,0.1,0.1,0.1,0.2,0.2c1.7,0.8-1.2,4.7-4.4,4.7c-0.2,0-0.3,0-0.5,0c-2.3,0.1-4.5,1.2-6.2,2.7
			c-2.6,2.2-4.3,5.5-4.3,8.3v1.3c0,0.9,0.7,1.7,1.7,1.7H86.7z"/>
		<path class="st5" d="M62.5,79c0.9,0,1.7-0.7,1.7-1.7V76c0-2.8-1.7-6.1-4.3-8.3c-1.8-1.6-4-2.6-6.5-2.7c-0.1,0-0.2,0-0.3,0
			c-3.2,0-6.2-3.8-4.4-4.7c0.1-0.1,0.2-0.1,0.2-0.2c3.9-2,6.5-6,6.5-10.6v-5.3c0-6.6-5.4-12-12-12s-12,5.4-12,12v5.3
			c0,4.6,2.7,8.6,6.5,10.6c0,0.1,0.1,0.1,0.2,0.2c1.7,0.8-1.2,4.7-4.4,4.7c-0.2,0-0.3,0-0.5,0c-2.3,0.1-4.5,1.2-6.2,2.7
			c-2.6,2.2-4.3,5.5-4.3,8.3v1.3c0,0.9,0.7,1.7,1.7,1.7h19H62.5z"/>
		<path class="st5" d="M150.7,77.3V76c0-2.8-1.7-6.1-4.3-8.3c-1.8-1.6-4-2.6-6.5-2.7c-0.1,0-0.2,0-0.3,0c-3.2,0-6.2-3.8-4.4-4.7
			c0.1-0.1,0.2-0.1,0.2-0.2c3.9-2,6.5-6,6.5-10.6v-5.3c0-6.6-5.4-12-12-12c-6.6,0-12,5.4-12,12v5.3c0,4.6,2.7,8.6,6.5,10.6
			c0,0.1,0.1,0.1,0.2,0.2c1.7,0.8-1.2,4.7-4.4,4.7c-0.2,0-0.3,0-0.5,0c-2.3,0.1-4.5,1.2-6.2,2.7c-2.6,2.2-4.3,5.5-4.3,8.3v1.3
			c0,0.9,0.7,1.7,1.7,1.7h19h19C149.9,79,150.7,78.2,150.7,77.3z"/>
	</g>
</g>
<g id="Layer_24" class="st0">
	<g class="st1">
		<path class="st5" d="M119.5,107.9h-19.1c-4.4,0-7.9,3.5-7.9,7.9v19.1L119.5,107.9z"/>
		<g>
			<polygon class="st5" points="92.5,134.9 92.7,134.8 92.5,134.8 			"/>
			<polygon class="st5" points="119.5,108 119.5,107.9 119.5,107.9 			"/>
			<path class="st9" d="M86.7,2.4C40.1,2.4,2.4,40.1,2.4,86.7S40.1,171,86.7,171S171,133.3,171,86.7S133.3,2.4,86.7,2.4z M119.5,108
				l-26.9,26.9h-0.1v-19c0-4.4,3.5-7.9,7.9-7.9L119.5,108L119.5,108z M119.5,101.4h-19.1c-7.9,0-14.4,6.5-14.4,14.4v19H61.8
				c-4.4,0-7.9-3.5-7.9-7.9V46.3c0-4.4,3.5-7.9,7.9-7.9h49.9c4.4,0,7.9,3.5,7.9,7.9L119.5,101.4L119.5,101.4z"/>
		</g>
		<path class="st9" d="M65.4,58.3H108c1.8,0,3.2-1.5,3.2-3.2c0-1.8-1.5-3.2-3.2-3.2H65.4c-1.8,0-3.2,1.5-3.2,3.2
			C62.1,56.9,63.6,58.3,65.4,58.3z"/>
		<path class="st9" d="M65.4,74.9H108c1.8,0,3.2-1.5,3.2-3.2c0-1.8-1.5-3.2-3.2-3.2H65.4c-1.8,0-3.2,1.5-3.2,3.2
			C62.1,73.5,63.6,74.9,65.4,74.9z"/>
		<path class="st9" d="M89.9,88.3c0-1.8-1.5-3.2-3.2-3.2H65.4c-1.8,0-3.2,1.5-3.2,3.2c0,1.8,1.5,3.2,3.2,3.2h21.3
			C88.5,91.6,89.9,90.1,89.9,88.3z"/>
	</g>
</g>
<g id="Pull" class="st0">
	<path class="st8" d="M-654.5,34.6c-2.5-1.2-3.4-4.4-1.8-6.8c1.3-1.9,3.8-2.4,5.9-1.4l0,0l-1.2-0.7l0,0c-2.1-1-3.2-3.3-2.5-5.5
		c0.8-2.7,3.9-4,6.4-2.8l0.2,0.1l-1.2-0.7l-0.2-0.1c-2.3-1.1-3.2-3.9-2.1-6.1l0,0c1.1-2.3,3.9-3.2,6.1-2.1l0.2,0.1V8.5l-0.3-0.1
		c-2.3-1.1-3.2-3.9-2.1-6.1l0,0c1.1-2.3,3.9-3.2,6.1-2.1l8.6,4.2l5.9,3.4l-1-3l-3.6-2.5c-2.6-1.9-3.3-5.5-1.5-8.2
		c0.7-1.1,2.2-1.3,3.3-0.6l9,6.3l0,0c1.1,0.8,1.9,2,2,3.5c0,0,4.9,6.9,5.7,13.1c0.3,2,1.5,3.8,3.4,4.7l9.2,4.5l-11.7,24.2l-10.6-5.2
		c-1.2-0.6-2.6-0.6-3.8,0c-1.8,0.8-3.9,0.8-5.9-0.1l-16.8-7c-0.9-0.4-1.7-0.8-2.6-1.2L-654.5,34.6z"/>
	<path class="st8" d="M-620.7,78.6h-74.1c0-20.5,16.6-37,37-37S-620.7,58.2-620.7,78.6z"/>
	
		<rect x="-669.9" y="16.8" transform="matrix(0.4536 -0.8912 0.8912 0.4536 -365.4079 -553.649)" class="st8" width="71.4" height="8.7"/>
	
		<ellipse transform="matrix(0.9678 -0.2517 0.2517 0.9678 -15.8686 -155.4282)" class="st8" cx="-615.5" cy="-15.7" rx="9.6" ry="9.6"/>
	<path class="st8" d="M-479.3-13.1c-46.6,0-84.3,37.8-84.3,84.3c0,46.6,37.8,84.3,84.3,84.3s84.3-37.8,84.3-84.3
		C-395,24.6-432.7-13.1-479.3-13.1z M-443.5,89.4l-10.6-5.2c-1.2-0.6-2.6-0.6-3.8,0c-1.8,0.8-3.9,0.8-5.9-0.1l-7.7-3.2l-2.1,4.1
		c12.4,6,20.9,18.7,20.9,33.3h-74.1c0-20.5,16.6-37,37-37c2.7,0,5.3,0.3,7.8,0.8l2.3-4.6l-1-0.4c-0.9-0.4-1.7-0.8-2.6-1.2l-3.3-1.6
		c-2.5-1.2-3.4-4.4-1.8-6.8c1.3-1.9,3.8-2.4,5.9-1.4l0,0l-1.2-0.7l0,0c-2.1-1-3.2-3.3-2.5-5.5c0.8-2.7,3.9-4,6.4-2.8l0.2,0.1
		l-1.2-0.7l-0.2-0.1c-2.3-1.1-3.2-3.9-2.1-6.1l0,0c1.1-2.3,3.9-3.2,6.1-2.1l0.2,0.1v-0.1l-0.3-0.1c-2.3-1.1-3.2-3.9-2.1-6.1l0,0
		c1.1-2.3,3.9-3.2,6.1-2.1l8.6,4.2l1.4,0.8l1.1-2.1l-1-0.8c-2.6-1.9-3.3-5.5-1.5-8.2c0.7-1.1,2.2-1.3,3.3-0.6l3,2.1l2.9-5.6
		c-0.7-0.9-1.2-2-1.5-3.2c-1.3-5.1,1.7-10.4,6.9-11.7c5.1-1.3,10.4,1.7,11.7,6.9c1.3,5.1-1.7,10.4-6.9,11.7
		c-0.8,0.2-1.6,0.3-2.4,0.3l-3.5,6.9c0.5,0.7,0.9,1.5,0.9,2.4c0,0,4.9,6.9,5.7,13.1c0.3,2,1.5,3.8,3.4,4.7l9.2,4.5L-443.5,89.4z"/>
	<path class="st10" d="M-516,112.7c0-12.7,12-23,26.8-23s26.8,10.3,26.8,23"/>
	<g class="st1">
		<circle class="st9" cx="90.4" cy="35.2" r="11.3"/>
		<path class="st9" d="M121.4,93.9c0,0,7.6-8.6,2.9-17.8c-4.8-9.2-10.4-18.3-10.4-18.3s-7.8-10.3-18.3-6.6
			c-9.7,3.4-11.2,10.3-11.2,10.3l-29.4,8c0,0-7,1.6-5.6,7.6c1.4,6.1,8.7,4.1,8.7,4.1l23.6-6.9l4.2-2.8h3.4l9.1,16l-19.1,14.6
			c0,0-2.4,1.7-3.2,5.1c-0.8,3.5-6,23.5-6,23.5s-1.2,5.8,4.1,7c4.9,1.1,6.8-2.3,7.3-3.6s5.3-21.1,5.3-21.1s0.1-2.1,1.8-3
			c1.7-0.8,15.3-10.3,15.3-10.3s4.7,0.7,6.6,0.6l7.8,38.2c0,0,1.8,4.7,6.2,4.2c4.4-0.5,5.6-4.2,5.5-5.6
			C129.7,135.7,121.4,93.9,121.4,93.9z M119.5,108L119.5,108L119.5,108L119.5,108z"/>
		<path class="st9" d="M86.7,2.4C40.1,2.4,2.4,40.1,2.4,86.7S40.1,171,86.7,171S171,133.3,171,86.7S133.3,2.4,86.7,2.4z M92.5,134.9
			v-0.1h0.1L92.5,134.9z M126.6,147.5c-6.4,1.9-13-2.3-14.1-8.7l-6.3-34L91.5,115l-5,20.5c-1.5,6-7.6,9.6-13.6,8.1l0,0
			c-6-1.5-9.6-7.6-8.1-13.6l5.4-23.4c0.7-3,2.1-6.4,4.5-8.4l17.1-12.6l-4.4-8.7c0,0-0.1,0-0.1,0.1c-1.1,1-2.5,1.6-3.9,2l-24.1,6.8
			l-1.5,0.4c-6,1.4-12.1-2.3-13.5-8.3c0-0.2-0.8-4.9,1.7-8.9c-1.2-0.8-2.6-1.3-4.2-1.3h-2.3V89h2.3c3.1,0,5.7-1.8,6.9-4.4
			c1.3,0.9,2.7,1.5,4.3,1.8c-1.5,4.1-5.5,7.1-10.1,7.1h-3.3V141h-5.2V32.4h5.2v30.9h3.3c2.5,0,4.9,0.9,6.7,2.4
			c0.8-0.5,1.8-0.9,2.9-1.2l27.2-6.6l5.1-6.8c-7.2-2.5-12.2-9.9-11.1-18.2c1-7.5,7.2-13.5,14.7-14.4c10.1-1.1,18.7,6.8,18.7,16.7
			c0,3.6-1.2,7-3.1,9.7c6.2,0.6,11.9,4.2,15,10.1l10.2,19.4c3.7,7,2.6,15.3-2.1,21.1c0,0.1,0.1,0.2,0.1,0.3l7.1,38.6
			C135.5,140.1,132.2,145.9,126.6,147.5z"/>
		<line class="st5" x1="39.6" y1="89" x2="39.6" y2="89"/>
		<line class="st5" x1="39.6" y1="93.4" x2="39.6" y2="93.4"/>
		<path class="st9" d="M49.7,65.7L49.7,65.7c-1.6,0.9-2.8,2.1-3.6,3.3l0,0C46.9,67.8,48,66.6,49.7,65.7z"/>
		<line class="st5" x1="39.6" y1="63.3" x2="39.6" y2="63.3"/>
		<line class="st5" x1="39.6" y1="67.8" x2="39.6" y2="67.8"/>
	</g>
</g>
<g id="Pull_White" class="st0">
	<g class="st1">
		<circle class="st3" cx="90.4" cy="35.2" r="11.3"/>
		<path class="st3" d="M121.4,93.9c0,0,7.6-8.6,2.9-17.8c-4.8-9.2-10.4-18.3-10.4-18.3s-7.8-10.3-18.3-6.6
			c-9.7,3.4-11.2,10.3-11.2,10.3l-29.4,8c0,0-7,1.6-5.6,7.6c1.4,6.1,8.7,4.1,8.7,4.1l23.6-6.9l4.2-2.8h3.4l9.1,16l-19.1,14.6
			c0,0-2.4,1.7-3.2,5.1c-0.8,3.5-6,23.5-6,23.5s-1.2,5.8,4.1,7c4.9,1.1,6.8-2.3,7.3-3.6s5.3-21.1,5.3-21.1s0.1-2.1,1.8-3
			c1.7-0.8,15.3-10.3,15.3-10.3s4.7,0.7,6.6,0.6l7.8,38.2c0,0,1.8,4.7,6.2,4.2c4.4-0.5,5.6-4.2,5.5-5.6
			C129.7,135.7,121.4,93.9,121.4,93.9z M119.5,108L119.5,108L119.5,108L119.5,108z"/>
		<path class="st3" d="M86.7,2.4C40.1,2.4,2.4,40.1,2.4,86.7S40.1,171,86.7,171S171,133.3,171,86.7S133.3,2.4,86.7,2.4z M92.5,134.9
			v-0.1h0.1L92.5,134.9z M126.6,147.5c-6.4,1.9-13-2.3-14.1-8.7l-6.3-34L91.5,115l-5,20.5c-1.5,6-7.6,9.6-13.6,8.1l0,0
			c-6-1.5-9.6-7.6-8.1-13.6l5.4-23.4c0.7-3,2.1-6.4,4.5-8.4l17.1-12.6l-4.4-8.7c0,0-0.1,0-0.1,0.1c-1.1,1-2.5,1.6-3.9,2l-24.1,6.8
			l-1.5,0.4c-6,1.4-12.1-2.3-13.5-8.3c0-0.2-0.8-4.9,1.7-8.9c-1.2-0.8-2.6-1.3-4.2-1.3h-2.3V89h2.3c3.1,0,5.7-1.8,6.9-4.4
			c1.3,0.9,2.7,1.5,4.3,1.8c-1.5,4.1-5.5,7.1-10.1,7.1h-3.3V141h-5.2V32.4h5.2v30.9h3.3c2.5,0,4.9,0.9,6.7,2.4
			c0.8-0.5,1.8-0.9,2.9-1.2l27.2-6.6l5.1-6.8c-7.2-2.5-12.2-9.9-11.1-18.2c1-7.5,7.2-13.5,14.7-14.4c10.1-1.1,18.7,6.8,18.7,16.7
			c0,3.6-1.2,7-3.1,9.7c6.2,0.6,11.9,4.2,15,10.1l10.2,19.4c3.7,7,2.6,15.3-2.1,21.1c0,0.1,0.1,0.2,0.1,0.3l7.1,38.6
			C135.5,140.1,132.2,145.9,126.6,147.5z"/>
		<line class="st5" x1="39.6" y1="89" x2="39.6" y2="89"/>
		<line class="st5" x1="39.6" y1="93.4" x2="39.6" y2="93.4"/>
		<path class="st3" d="M49.7,65.7L49.7,65.7c-1.6,0.9-2.8,2.1-3.6,3.3l0,0C46.9,67.8,48,66.6,49.7,65.7z"/>
		<line class="st5" x1="39.6" y1="63.3" x2="39.6" y2="63.3"/>
		<line class="st5" x1="39.6" y1="67.8" x2="39.6" y2="67.8"/>
	</g>
</g>
<g id="Push" class="st0">
	<path class="st8" d="M-588,2.4c-46.6,0-84.3,37.8-84.3,84.3S-634.6,171-588,171s84.3-37.8,84.3-84.3S-541.4,2.4-588,2.4z
		 M-599.8,24.7c12.3,0,22.3,10,22.3,22.3c0,9.3-5.7,17.3-13.8,20.6v-7.1c4.5-2.8,7.5-7.8,7.5-13.5c0-8.8-7.1-16-16-16s-16,7.1-16,16
		c0,5.7,3,10.7,7.5,13.5v7.1c-8.1-3.3-13.8-11.3-13.8-20.6C-622.1,34.7-612.1,24.7-599.8,24.7z M-550.6,85.7c0,1.4,0,2.9-0.1,4.3
		l-1.6,27.5c0,3.2-1.4,6.1-3.7,8c-1.5,1.3-2.5,3.2-2.5,5.2v17.9h-40.6v-15.5c0-3.1-1.6-6-4.1-7.7c-7.9-5.2-16-16.4-16-16.4
		c-1.9-1.1-3.1-3-3.4-5.1l0,0l-2.7-16.5c-0.3-2,1-3.8,3-4.1c4.8-0.7,9.4,2.6,10.2,7.4l1.1,6.5l5.5,3.3l-0.7-10.3V48.9
		c0-3.8,3.1-6.9,6.9-6.9l0,0c3.8,0,6.9,3.1,6.9,6.9v27.5h0.1v-0.3c0-3.8,3.1-6.9,6.9-6.9l0,0c3.8,0,6.9,3.1,6.9,6.9v0.3l0.1,2v-0.3
		c0-4.2,3.7-7.5,8-6.9c3.4,0.5,5.8,3.6,5.8,7.1v0.1l0.1,2v-0.1c0-3.4,2.4-6.5,5.8-7.1c4.3-0.7,8,2.7,8,6.9L-550.6,85.7L-550.6,85.7z
		"/>
	<g class="st1">
		<circle class="st9" cx="85.3" cy="35.9" r="11.3"/>
		<path class="st9" d="M138.7,128.7c-1-1-17.5-13.2-17.5-13.2s-1.9-1-2.1-2.8c-0.1-1.8-3.2-17-3.5-18.2c4.6-4,6-10.7,3-16.2
			l-11.3-21c-3.4-6.4-11.5-8.8-17.9-5.4l-1.1,0.6c-4,2.2-6.5,6.1-6.9,10.4l-32,0.2c0,0-7.8-0.3-8,6.4s8,6.6,8,6.6L77,75.5l5.1-1.8
			l3.1,0.8l7.5,14.1c-5.1,10.2-21.2,42.3-21.6,43.4c-0.5,1.4-0.2,5.2,4,6.8c4.2,1.5,7-2.6,7-2.6l19.6-38.6c0.4,0.1,0.9,0.3,1.3,0.4
			l5.1,20.1c0,0,0.6,2.9,3.5,5S131,138,131,138s4.9,3.5,8.1-1C142.2,132.8,139.7,129.7,138.7,128.7z"/>
		<path class="st9" d="M86.7,2.4C40.1,2.4,2.4,40.1,2.4,86.7S40.1,171,86.7,171S171,133.3,171,86.7S133.3,2.4,86.7,2.4z M23.6,113.6
			L23.6,113.6L23.6,113.6L23.6,113.6z M142.6,140.2c-3.9,4.8-11,5.6-15.8,1.7l-18.9-14.7c-2.4-1.9-5-4.6-5.7-7.6l-1.9-9.4l-13,27.4
			c-2.6,6-9.9,8.5-15.8,5.3c-5.1-2.9-7-9.3-4.6-14.6l19.5-42.2l-3.5-6.9c-1.1,0.4-2.3,0.7-3.6,0.7H46.4c-4.6,0-8.5-3.1-9.7-7.4v68.3
			h-5.2V32.3h5.2V66c1.2-4.3,5.1-7.4,9.7-7.4h28.1v-0.1l5.1-6.8c-7.2-2.5-12.2-9.9-11.1-18.2c1-7.5,7.2-13.5,14.7-14.4
			c10.2-1,18.8,6.9,18.8,16.8c0,3.6-1.2,7-3.1,9.7c6.2,0.6,11.9,4.2,15,10.1l10.2,19.4c3.7,7,2.6,15.3-2.1,21.1
			c0,0.1,0.1,0.2,0.1,0.3l-0.3-0.1l2.7,15l16.6,13.1C145.7,128.3,146.5,135.4,142.6,140.2z"/>
	</g>
</g>
<g id="Push_White" class="st0">
	<g class="st1">
		<circle class="st3" cx="85" cy="35.9" r="11.3"/>
		<path class="st3" d="M138.3,128.7c-1-1-17.5-13.2-17.5-13.2s-1.9-1-2.1-2.8c-0.1-1.8-3.2-17-3.5-18.2c4.6-4,6-10.7,3-16.2
			l-11.3-21c-3.4-6.4-11.5-8.8-17.9-5.4l-1.1,0.6c-4,2.2-6.5,6.1-6.9,10.4l-32,0.2c0,0-7.8-0.3-8,6.4s8,6.6,8,6.6l27.5-0.6l5.1-1.8
			l3.1,0.8l7.5,14.1C87.1,98.8,71,130.9,70.6,132c-0.5,1.4-0.2,5.2,4,6.8c4.2,1.5,7-2.6,7-2.6l19.6-38.6c0.4,0.1,0.9,0.3,1.3,0.4
			l5.1,20.1c0,0,0.6,2.9,3.5,5s19.4,14.9,19.4,14.9s4.9,3.5,8.1-1C141.8,132.8,139.4,129.7,138.3,128.7z"/>
		<path class="st3" d="M86.3,2.4C39.8,2.4,2,40.1,2,86.7S39.8,171,86.3,171s84.3-37.8,84.3-84.3S132.9,2.4,86.3,2.4z M23.3,113.6
			L23.3,113.6L23.3,113.6L23.3,113.6z M142.3,140.2c-3.9,4.8-11,5.6-15.8,1.7l-18.9-14.7c-2.4-1.9-5-4.6-5.7-7.6l-1.9-9.4l-13,27.4
			c-2.6,6-9.9,8.5-15.8,5.3c-5.1-2.9-7-9.3-4.6-14.6L86,86.1l-3.5-6.9c-1.1,0.4-2.3,0.7-3.6,0.7H46c-4.6,0-8.5-3.1-9.7-7.4v68.3
			h-5.2V32.3h5.2V66c1.2-4.3,5.1-7.4,9.7-7.4h28.1v-0.1l5.1-6.8C72,49.2,67,41.9,68.1,33.6c1-7.5,7.2-13.5,14.7-14.4
			c10.1-1.1,18.7,6.8,18.7,16.7c0,3.6-1.2,7-3.1,9.7c6.2,0.6,11.9,4.2,15,10.1l10.2,19.4c3.7,7,2.6,15.3-2.1,21.1
			c0,0.1,0.1,0.2,0.1,0.3l-0.3-0.1l2.7,15l16.6,13.1C145.4,128.3,146.2,135.4,142.3,140.2z"/>
	</g>
</g>
<g id="Push_DG" class="st0">
	<g class="st1">
		<circle class="st11" cx="85.3" cy="35.9" r="11.3"/>
		<path class="st11" d="M138.7,128.7c-1-1-17.5-13.2-17.5-13.2s-1.9-1-2.1-2.8c-0.1-1.8-3.2-17-3.5-18.2c4.6-4,6-10.7,3-16.2
			l-11.3-21c-3.4-6.4-11.5-8.8-17.9-5.4l-1.1,0.6c-4,2.2-6.5,6.1-6.9,10.4l-32,0.2c0,0-7.8-0.3-8,6.4s8,6.6,8,6.6L77,75.5l5.1-1.8
			l3.1,0.8l7.5,14.1c-5.1,10.2-21.2,42.3-21.6,43.4c-0.5,1.4-0.2,5.2,4,6.8c4.2,1.5,7-2.6,7-2.6l19.6-38.6c0.4,0.1,0.9,0.3,1.3,0.4
			l5.1,20.1c0,0,0.6,2.9,3.5,5S131,138,131,138s4.9,3.5,8.1-1C142.2,132.8,139.7,129.7,138.7,128.7z"/>
		<path class="st11" d="M86.7,2.4C40.1,2.4,2.4,40.1,2.4,86.7S40.1,171,86.7,171S171,133.3,171,86.7S133.3,2.4,86.7,2.4z
			 M23.6,113.6L23.6,113.6L23.6,113.6L23.6,113.6z M142.6,140.2c-3.9,4.8-11,5.6-15.8,1.7l-18.9-14.7c-2.4-1.9-5-4.6-5.7-7.6
			l-1.9-9.4l-13,27.4c-2.6,6-9.9,8.5-15.8,5.3c-5.1-2.9-7-9.3-4.6-14.6l19.5-42.2l-3.5-6.9c-1.1,0.4-2.3,0.7-3.6,0.7H46.4
			c-4.6,0-8.5-3.1-9.7-7.4v68.3h-5.2V32.3h5.2V66c1.2-4.3,5.1-7.4,9.7-7.4h28.1v-0.1l5.1-6.8c-7.2-2.5-12.2-9.9-11.1-18.2
			c1-7.5,7.2-13.5,14.7-14.4c10.2-1,18.8,6.9,18.8,16.8c0,3.6-1.2,7-3.1,9.7c6.2,0.6,11.9,4.2,15,10.1l10.2,19.4
			c3.7,7,2.6,15.3-2.1,21.1c0,0.1,0.1,0.2,0.1,0.3l-0.3-0.1l2.7,15l16.6,13.1C145.7,128.3,146.5,135.4,142.6,140.2z"/>
	</g>
</g>
<g id="Pull_DG" class="st0">
	<g class="st1">
		<circle class="st11" cx="90.4" cy="35.2" r="11.3"/>
		<path class="st11" d="M121.4,93.9c0,0,7.6-8.6,2.9-17.8c-4.8-9.2-10.4-18.3-10.4-18.3s-7.8-10.3-18.3-6.6
			c-9.7,3.4-11.2,10.3-11.2,10.3l-29.4,8c0,0-7,1.6-5.6,7.6c1.4,6.1,8.7,4.1,8.7,4.1l23.6-6.9l4.2-2.8h3.4l9.1,16l-19.1,14.6
			c0,0-2.4,1.7-3.2,5.1c-0.8,3.5-6,23.5-6,23.5s-1.2,5.8,4.1,7c4.9,1.1,6.8-2.3,7.3-3.6s5.3-21.1,5.3-21.1s0.1-2.1,1.8-3
			c1.7-0.8,15.3-10.3,15.3-10.3s4.7,0.7,6.6,0.6l7.8,38.2c0,0,1.8,4.7,6.2,4.2c4.4-0.5,5.6-4.2,5.5-5.6
			C129.7,135.7,121.4,93.9,121.4,93.9z M119.5,108L119.5,108L119.5,108L119.5,108z"/>
		<path class="st11" d="M86.7,2.4C40.1,2.4,2.4,40.1,2.4,86.7S40.1,171,86.7,171S171,133.3,171,86.7S133.3,2.4,86.7,2.4z
			 M92.5,134.9v-0.1h0.1L92.5,134.9z M126.6,147.5c-6.4,1.9-13-2.3-14.1-8.7l-6.3-34L91.5,115l-5,20.5c-1.5,6-7.6,9.6-13.6,8.1l0,0
			c-6-1.5-9.6-7.6-8.1-13.6l5.4-23.4c0.7-3,2.1-6.4,4.5-8.4l17.1-12.6l-4.4-8.7c0,0-0.1,0-0.1,0.1c-1.1,1-2.5,1.6-3.9,2l-24.1,6.8
			l-1.5,0.4c-6,1.4-12.1-2.3-13.5-8.3c0-0.2-0.8-4.9,1.7-8.9c-1.2-0.8-2.6-1.3-4.2-1.3h-2.3V89h2.3c3.1,0,5.7-1.8,6.9-4.4
			c1.3,0.9,2.7,1.5,4.3,1.8c-1.5,4.1-5.5,7.1-10.1,7.1h-3.3V141h-5.2V32.4h5.2v30.9h3.3c2.5,0,4.9,0.9,6.7,2.4
			c0.8-0.5,1.8-0.9,2.9-1.2l27.2-6.6l5.1-6.8c-7.2-2.5-12.2-9.9-11.1-18.2c1-7.5,7.2-13.5,14.7-14.4c10.1-1.1,18.7,6.8,18.7,16.7
			c0,3.6-1.2,7-3.1,9.7c6.2,0.6,11.9,4.2,15,10.1l10.2,19.4c3.7,7,2.6,15.3-2.1,21.1c0,0.1,0.1,0.2,0.1,0.3l7.1,38.6
			C135.5,140.1,132.2,145.9,126.6,147.5z"/>
		<line class="st5" x1="39.6" y1="89" x2="39.6" y2="89"/>
		<line class="st5" x1="39.6" y1="93.4" x2="39.6" y2="93.4"/>
		<path class="st11" d="M49.7,65.7L49.7,65.7c-1.6,0.9-2.8,2.1-3.6,3.3l0,0C46.9,67.8,48,66.6,49.7,65.7z"/>
		<line class="st5" x1="39.6" y1="63.3" x2="39.6" y2="63.3"/>
		<line class="st5" x1="39.6" y1="67.8" x2="39.6" y2="67.8"/>
	</g>
</g>
<g id="Layer_31" class="st0">
	<path class="st12" d="M47.9,97.1L63.8,89l-3.9-7.5c-13.2,8.3-17.7,26.7-10.5,43.1l10-5.1L47.9,97.1z"/>
	<path class="st12" d="M68.1,86.7c8.2-4.2,15.2-4,20,5.2c0.4,0.8,0.7,1.5,0.9,2.3l6.9-9.2c-9.4-7.5-21.4-10-31.8-5.7l3.9,7.5
		L68.1,86.7z"/>
	<path class="st12" d="M70.5,96.2l-8.8,4.5l5.9,11.5l9.5-4.9c3.3-1.7,4.9-4.7,2.7-8.8C77.5,93.8,73.8,94.4,70.5,96.2z"/>
	<path class="st12" d="M87.8,104.6C87.8,104.6,87.8,104.7,87.8,104.6l17.4-8.9c-1.6-2.6-3.4-5-5.4-7.1L87.8,104.6z"/>
	<path class="st12" d="M86.7,2.4C40.1,2.4,2.4,40.1,2.4,86.7S40.1,171,86.7,171S171,133.3,171,86.7S133.3,2.4,86.7,2.4z M83.9,40.8
		c0.5-3.3,2.2-6.2,4.9-8.2c1.2-0.9,2.9-0.7,3.8,0.5s0.7,2.9-0.5,3.8c-1.5,1.1-2.5,2.8-2.8,4.7s0.2,3.7,1.4,5.3c2,2.7,2.9,6,2.4,9.3
		s-2.2,6.2-4.9,8.2c-0.5,0.4-1.1,0.5-1.6,0.5c-0.8,0-1.6-0.4-2.2-1.1c-0.9-1.2-0.7-2.9,0.5-3.8c1.5-1.1,2.5-2.8,2.8-4.7
		s-0.2-3.7-1.4-5.3C84.3,47.4,83.5,44.1,83.9,40.8z M57.7,29.8c0.9-1.2,2.6-1.4,3.8-0.5s1.4,2.6,0.5,3.8c-2.8,3.6-2.1,8.7,1.4,11.5
		c2.9,2.2,4.7,5.4,5.1,9s-0.5,7.1-2.8,10c-0.5,0.7-1.3,1-2.1,1c-0.6,0-1.2-0.2-1.7-0.6c-1.2-0.9-1.4-2.6-0.5-3.8
		c1.3-1.7,1.9-3.9,1.7-6c-0.3-2.2-1.4-4.1-3.1-5.4C54.2,44.2,53.1,35.7,57.7,29.8z M36.2,64.6c-3.2-0.9-5.9-3-7.5-6
		c-1.6-2.9-2-6.3-1.1-9.5c0.4-1.4,1.9-2.3,3.3-1.8c1.4,0.4,2.3,1.9,1.8,3.3c-0.5,1.8-0.3,3.7,0.6,5.4c0.9,1.7,2.4,2.9,4.3,3.4
		c6.6,1.9,10.4,8.8,8.5,15.5c-0.3,1.2-1.4,1.9-2.6,1.9c-0.2,0-0.5,0-0.7-0.1c-1.4-0.4-2.3-1.9-1.8-3.3C42.1,69.6,40,65.6,36.2,64.6z
		 M140.5,46.4l-13.6,13.9c-1.5,1.5-4,1.7-6.2,0.7l-17.9,23.8c3.1,3.2,5.8,6.9,8,11.1c10.5,20.4,4.7,44.5-13.1,53.6
		c-17.7,9.1-40.7,0-51.3-20.5c-10.5-20.4-4.7-44.5,13.1-53.6C72,69,87.2,71.8,98.8,81.2l17.5-23.3c-1.8-2-2.3-4.7-1.1-6.6l10.2-16.6
		c2.6-4.2,8.1-5.5,12.1-2.4l2.4,1.9C143.8,37.1,143.9,42.8,140.5,46.4z"/>
	<path class="st12" d="M73.3,146.4l-11.5-22.3l-10,5.1c9.2,15.4,26.8,22.4,41.2,16.5l-3.9-7.5L73.3,146.4z"/>
	<path class="st12" d="M101.8,113.7c5.2,10,0,18.1-7.8,22.1l-0.7,0.4l3.9,7.5c13.2-8.3,17.7-26.7,10.5-43.1l-12,6.2
		C98.1,108.2,100.2,110.6,101.8,113.7z"/>
	<path class="st12" d="M81.7,114.3l-10.3,5.3l7,13.5l10.1-5.2c3.7-1.9,6.2-5,3.6-10.1C89.5,112.8,85.7,112.3,81.7,114.3z"/>
	<path class="st7" d="M139.9,34.1l-2.4-1.9c-3.9-3.1-9.5-1.8-12.1,2.4l-10.2,16.6c-1.2,1.9-0.6,4.6,1.1,6.6L98.8,81.2
		C87.2,71.8,72,69,59.5,75.5c-17.7,9.1-23.6,33.2-13.1,53.6s33.5,29.6,51.3,20.5c17.7-9.1,23.6-33.2,13.1-53.6
		c-2.2-4.2-4.9-7.9-8-11.1L120.6,61c2.2,1,4.8,0.8,6.2-0.7l13.6-13.9C143.9,42.8,143.8,37.1,139.9,34.1z M95.9,85L89,94.2
		c-0.3-0.7-0.5-1.5-0.9-2.3c-4.7-9.2-11.8-9.4-20-5.2L68,86.8l-3.9-7.5C74.5,75,86.5,77.5,95.9,85z M77.1,107.3l-9.5,4.9l-5.9-11.5
		l8.8-4.5c3.4-1.7,7-2.4,9.4,2.3C82,102.6,80.4,105.6,77.1,107.3z M59.9,81.4l3.9,7.5l-15.9,8.2l11.5,22.3l-10,5.1
		C42.2,108.1,46.7,89.7,59.9,81.4z M51.8,129.3l10-5.1l11.5,22.3l15.9-8.2l3.9,7.5C78.6,151.7,61,144.7,51.8,129.3z M88.5,128
		l-10.1,5.2l-7-13.5l10.3-5.3c4-2.1,7.8-1.5,10.4,3.6C94.7,123,92.2,126,88.5,128z M97.2,143.6l-3.9-7.5l0.7-0.4
		c7.7-4,12.9-12.1,7.8-22.1c-1.6-3.1-3.7-5.5-6.1-6.9l12-6.2C114.9,117,110.4,135.3,97.2,143.6z M105.2,95.8l-17.5,9
		c0,0,0-0.1,0.1-0.1l12-16C101.8,90.8,103.7,93.1,105.2,95.8z"/>
	<path class="st7" d="M87.7,55.4c-0.3,1.9-1.2,3.5-2.8,4.7c-1.2,0.9-1.4,2.6-0.5,3.8c0.5,0.7,1.3,1.1,2.2,1.1c0.6,0,1.1-0.2,1.6-0.5
		c2.7-2,4.4-4.9,4.9-8.2s-0.4-6.6-2.4-9.3c-1.1-1.5-1.6-3.4-1.4-5.3c0.3-1.9,1.2-3.5,2.8-4.7c1.2-0.9,1.4-2.6,0.5-3.8
		s-2.6-1.4-3.8-0.5c-2.7,2-4.4,4.9-4.9,8.2s0.4,6.6,2.4,9.2C87.4,51.6,87.9,53.5,87.7,55.4z"/>
	<path class="st7" d="M60.1,48.8c1.7,1.3,2.8,3.3,3.1,5.4c0.3,2.2-0.3,4.3-1.7,6c-0.9,1.2-0.7,2.9,0.5,3.8c0.5,0.4,1.1,0.6,1.7,0.6
		c0.8,0,1.6-0.4,2.1-1c2.2-2.9,3.2-6.4,2.8-10c-0.4-3.6-2.3-6.8-5.1-9c-3.6-2.8-4.2-7.9-1.4-11.5c0.9-1.2,0.7-2.9-0.5-3.8
		s-2.9-0.7-3.8,0.5C53.1,35.7,54.2,44.2,60.1,48.8z"/>
	<path class="st7" d="M42.9,76.7c0.2,0.1,0.5,0.1,0.7,0.1c1.2,0,2.2-0.8,2.6-1.9c1.9-6.6-1.9-13.5-8.5-15.5
		c-1.8-0.5-3.3-1.7-4.3-3.4c-0.9-1.7-1.1-3.6-0.6-5.4c0.4-1.4-0.4-2.9-1.8-3.3c-1.4-0.4-2.9,0.4-3.3,1.8c-0.9,3.2-0.5,6.6,1.1,9.5
		s4.3,5,7.5,6c3.8,1.1,5.9,5,4.9,8.8C40.6,74.8,41.5,76.3,42.9,76.7z"/>
</g>
<g id="Layer_32" class="st0">
	<g class="st1">
		<g>
			<path class="st11" d="M86.7,2.4C40.1,2.4,2.4,40.1,2.4,86.7S40.2,171,86.7,171c46.6,0,84.3-37.8,84.3-84.3
				C171,40.1,133.3,2.4,86.7,2.4z M121.5,75.9c2.2,0,3.3,3,1.7,4.8L114,91.3V114h7.5c2.2,0,3.3,3,1.7,4.8l-9.3,10.6v11.1
				c0,3-2.5,5.5-5.5,5.5H64.9c-3,0-5.5-2.5-5.5-5.5v-11.1l-9.3-10.6c-1.5-1.8-0.5-4.8,1.7-4.8h7.5V91.3L50,80.7
				c-1.5-1.8-0.5-4.8,1.7-4.8h7.5V53.2l-9.3-10.6c-1.5-1.8-0.5-4.8,1.7-4.8h7.5v-4.9c0-3,2.5-5.5,5.5-5.5h43.6c3,0,5.5,2.5,5.5,5.5
				v4.9h7.5c2.2,0,3.3,3,1.7,4.8L114,53.2v22.7H121.5z"/>
		</g>
		<g>
			<circle class="st11" cx="86.7" cy="50.5" r="12.5"/>
			<circle class="st11" cx="86.7" cy="88.6" r="12.5"/>
			<circle class="st11" cx="86.7" cy="126.7" r="12.5"/>
			<path class="st5" d="M123.3,80.7c1.5-1.8,0.5-4.8-1.7-4.8H114V53.2l9.3-10.6c1.5-1.8,0.5-4.8-1.7-4.8H114v-4.9
				c0-3-2.5-5.5-5.5-5.5H64.9c-3,0-5.5,2.5-5.5,5.5v4.9h-7.5c-2.2,0-3.3,3-1.7,4.8l9.3,10.6v22.7H52c-2.2,0-3.3,3-1.7,4.8l9.3,10.6
				V114h-7.5c-2.2,0-3.3,3-1.7,4.8l9.3,10.6v11.1c0,3,2.5,5.5,5.5,5.5h43.6c3,0,5.5-2.5,5.5-5.5v-11.1l9.3-10.6
				c1.5-1.8,0.5-4.8-1.7-4.8H114V91.3L123.3,80.7z M86.7,139.2c-6.9,0-12.5-5.6-12.5-12.5c0-6.9,5.6-12.5,12.5-12.5
				s12.5,5.6,12.5,12.5C99.2,133.6,93.6,139.2,86.7,139.2z M86.7,101.1c-6.9,0-12.5-5.6-12.5-12.5s5.6-12.5,12.5-12.5
				s12.5,5.6,12.5,12.5S93.6,101.1,86.7,101.1z M86.7,63c-6.9,0-12.5-5.6-12.5-12.5S79.8,38,86.7,38s12.5,5.6,12.5,12.5
				S93.6,63,86.7,63z"/>
		</g>
	</g>
</g>
<g id="Layer_33">
	<g>
		<path class="st9" d="M86.7,2.4C40.1,2.4,2.4,40.1,2.4,86.7S40.1,171,86.7,171S171,133.3,171,86.7S133.3,2.4,86.7,2.4z M86.7,31.1
			L86.7,31.1L86.7,31.1L86.7,31.1L86.7,31.1c20.7,0,37.5,16.8,37.5,37.5c0,27-22.9,34.2-22.9,48.2H86.7h-0.1H72.1
			c0-14-22.9-21.2-22.9-48.2C49.2,47.9,66,31.1,86.7,31.1z M96.1,137c-1.4,0-2.6,1.2-2.6,2.6l0,0c0,2.2-1.8,4-4,4h-5.6
			c-2.2,0-4-1.8-4-4l0,0c0-1.4-1.2-2.6-2.6-2.6c-2.9,0-5.2-2.3-5.2-5.2v-6.4h29.2v6.4C101.3,134.7,98.9,137,96.1,137z"/>
		<path class="st5" d="M72.1,116.7h14.6h0.1h14.6c0-14,22.9-21.2,22.9-48.2c0-20.7-16.8-37.5-37.4-37.5l0,0l0,0l0,0l0,0
			c-20.7,0-37.4,16.8-37.4,37.5C49.2,95.5,72.1,102.8,72.1,116.7z"/>
		<path class="st5" d="M101.3,125.5H72.1v6.4c0,2.9,2.3,5.2,5.2,5.2c1.4,0,2.6,1.2,2.6,2.6l0,0c0,2.2,1.8,4,4,4h5.6c2.2,0,4-1.8,4-4
			l0,0c0-1.4,1.2-2.6,2.6-2.6c2.9,0,5.2-2.3,5.2-5.2L101.3,125.5L101.3,125.5z"/>
	</g>
</g>
<g id="Layer_34" class="st0">
	<g class="st1">
		<path class="st11" d="M86.7,2.4C40.1,2.4,2.4,40.1,2.4,86.7S40.2,171,86.7,171c46.6,0,84.3-37.8,84.3-84.3
			C171,40.1,133.3,2.4,86.7,2.4z M114,86.7l-14.7,5.2L106,106l-14.1-6.7L86.7,114l-5.2-14.7L67.3,106L74,91.9l-14.7-5.2L74,81.5
			l-0.5-1L47.1,54H36.2c-2.5,0-3.7-3-2-4.8l4.8-2.8H28.5c-2.5,0-3.7-3-2-4.8L36,36l5.6-9.4c0.6-0.6,1.3-0.8,2-0.8
			c1.4,0,2.8,1.1,2.8,2.8V39l2.8-4.8c0.6-0.6,1.3-0.8,2-0.8c1.4,0,2.8,1.1,2.8,2.8v10.9l26.5,26.5l1,0.5l5.2-14.7l5.2,14.7l14.1-6.7
			l-6.7,14.1L114,86.7z M43.5,19.2L43.5,19.2L43.5,19.2z M86.7,142.6c-30.8,0-55.9-25.1-55.9-55.9c0-9.5,2.4-18.4,6.6-26.2h7
			l7.4,7.4c-3,5.6-4.8,12-4.8,18.8c0,21.9,17.8,39.7,39.7,39.7s39.7-17.8,39.7-39.7S108.6,47,86.7,47c-6.8,0-13.2,1.7-18.8,4.8
			l-7.4-7.4v-7c7.8-4.2,16.8-6.6,26.2-6.6c30.8,0,55.9,25.1,55.9,55.9S117.5,142.6,86.7,142.6z"/>
		<path class="st5" d="M86.7,30.8c-9.5,0-18.4,2.4-26.2,6.6v7l7.4,7.4c5.6-3,12-4.8,18.8-4.8c21.9,0,39.7,17.8,39.7,39.7
			s-17.8,39.7-39.7,39.7S47,108.6,47,86.7c0-6.8,1.7-13.2,4.8-18.8l-7.4-7.4h-7c-4.2,7.8-6.6,16.8-6.6,26.2
			c0,30.8,25.1,55.9,55.9,55.9s55.9-25.1,55.9-55.9S117.5,30.8,86.7,30.8z"/>
		<line class="st5" x1="43.5" y1="19.2" x2="43.5" y2="19.2"/>
		<path class="st5" d="M91.9,74.1l-5.2-14.7l-5.2,14.7l-1-0.5L54,47.1V36.2c0-1.7-1.4-2.8-2.8-2.8c-0.7,0-1.4,0.3-2,0.8L46.3,39
			V28.5c0-1.7-1.4-2.8-2.8-2.8c-0.7,0-1.4,0.3-2,0.8L36,36l-9.4,5.6c-1.8,1.8-0.5,4.8,2,4.8H39l-4.8,2.8c-1.8,1.8-0.5,4.8,2,4.8
			h10.9l26.5,26.5l0.5,1l-14.7,5.2l14.7,5.2L67.3,106l14.1-6.7l5.2,14.7l5.2-14.7L106,106l-6.7-14.1l14.7-5.2l-14.7-5.2l6.7-14.1
			L91.9,74.1z"/>
	</g>
</g>
</svg>
