<?xml version="1.0" encoding="utf-8"?>
<!-- Generator: Adobe Illustrator 21.1.0, SVG Export Plug-In . SVG Version: 6.00 Build 0)  -->
<svg version="1.1" id="Layer_1" xmlns="http://www.w3.org/2000/svg" xmlns:xlink="http://www.w3.org/1999/xlink" x="0px" y="0px"
	 viewBox="0 0 297 148" style="enable-background:new 0 0 297 148;" xml:space="preserve">
<style type="text/css">
	.st0{fill:#FFFFFF;}
	.st1{fill:#F05B40;}
</style>
<g>
	<g>
		<g>
			<path class="st0" d="M181.5,50.9c-12.3,0-22.5,9.9-22.5,22.1v40.3h22.6L181.5,50.9"/>
		</g>
		<g>
			<path class="st1" d="M159,41.9c12.3,0,22.5-9.9,22.5-22.2v-8.5H159L159,41.9"/>
		</g>
	</g>
	<path class="st0" d="M251.6,47.6h-12.4h-4.1h-8.4c-3.8,0-6.9-3.1-6.9-6.9c0-3.8,3.1-6.9,6.9-6.9h46.5V11.2h-46.5
		c-16.3,0-29.5,13.2-29.5,29.5c0,16.3,13.2,25.9,29.5,25.9h8.4h4.1h8.4c9,0,14.2,4.9,14.2,12.2c0,7.7-6,12-14,12H200v22.6h51.7
		c18.1,0,32.9-14.7,32.9-32.9C284.5,62.4,269.8,47.6,251.6,47.6z"/>
	<path class="st0" d="M118,11.2v64.7c0,8.2-6.7,14.8-14.8,14.8c-8.2,0-14.8-6.7-14.8-14.8V11.2H65.7v64.7c0,8.2-6.7,14.8-14.8,14.8
		c-8.2,0-14.8-6.7-14.8-14.8V11.2H13.4v64.7c0,20.6,16.8,37.4,37.4,37.4c10.2,0,19.4-4.1,26.1-10.7c6.8,6.6,16,10.7,26.1,10.7
		c20.7,0,37.4-16.8,37.4-37.4V11.2H118z"/>
	<g>
		<path class="st0" d="M16.4,135.2l-2.8-10.6H15l1.6,6.9c0.2,0.7,0.3,1.4,0.4,2.2c0.3-1.1,0.4-1.8,0.5-2l2-7.1h1.7l1.5,5.3
			c0.4,1.3,0.7,2.6,0.8,3.7c0.1-0.7,0.3-1.4,0.5-2.3l1.7-6.8h1.4l-2.9,10.6h-1.3l-2.2-8c-0.2-0.7-0.3-1.1-0.3-1.2
			c-0.1,0.5-0.2,0.9-0.3,1.2l-2.2,8H16.4z"/>
		<path class="st0" d="M28.5,135.2v-10.6h7.6v1.2h-6.2v3.2h5.8v1.2h-5.8v3.6h6.5v1.2H28.5z"/>
		<path class="st0" d="M38.2,135.2v-10.6h1.4v9.3h5.2v1.2H38.2z"/>
		<path class="st0" d="M46.4,135.2v-10.6h1.4v9.3H53v1.2H46.4z"/>
		<path class="st0" d="M54.7,135.2v-10.6h7.6v1.2h-6.2v3.2h5.8v1.2h-5.8v3.6h6.5v1.2H54.7z"/>
		<path class="st0" d="M64,131.8l1.3-0.1c0.1,0.5,0.2,1,0.4,1.3c0.2,0.3,0.6,0.6,1.1,0.8c0.5,0.2,1,0.3,1.6,0.3c0.5,0,1-0.1,1.4-0.2
			c0.4-0.2,0.7-0.4,0.9-0.7c0.2-0.3,0.3-0.6,0.3-0.9c0-0.3-0.1-0.6-0.3-0.9c-0.2-0.2-0.5-0.5-1-0.6c-0.3-0.1-0.9-0.3-1.9-0.5
			c-1-0.2-1.6-0.5-2-0.7c-0.5-0.3-0.9-0.6-1.1-1c-0.2-0.4-0.4-0.8-0.4-1.3c0-0.5,0.2-1,0.5-1.5c0.3-0.5,0.7-0.8,1.3-1.1
			c0.6-0.2,1.2-0.4,1.9-0.4c0.8,0,1.5,0.1,2.1,0.4c0.6,0.3,1.1,0.6,1.4,1.1c0.3,0.5,0.5,1,0.5,1.7l-1.3,0.1
			c-0.1-0.7-0.3-1.2-0.7-1.5c-0.4-0.3-1-0.5-1.8-0.5c-0.8,0-1.5,0.2-1.8,0.5c-0.4,0.3-0.6,0.7-0.6,1.1c0,0.4,0.1,0.7,0.4,0.9
			c0.3,0.2,1,0.5,2.1,0.8c1.1,0.3,1.9,0.5,2.3,0.7c0.6,0.3,1.1,0.6,1.4,1.1c0.3,0.4,0.4,0.9,0.4,1.5c0,0.6-0.2,1.1-0.5,1.6
			c-0.3,0.5-0.8,0.9-1.4,1.2c-0.6,0.3-1.3,0.4-2,0.4c-1,0-1.8-0.1-2.4-0.4c-0.6-0.3-1.2-0.7-1.5-1.3C64.2,133.1,64,132.5,64,131.8z"
			/>
		<path class="st0" d="M74.3,135.2v-10.6h1.4v9.3h5.2v1.2H74.3z"/>
		<path class="st0" d="M82.5,135.2v-10.6h7.6v1.2h-6.2v3.2h5.8v1.2h-5.8v3.6h6.5v1.2H82.5z"/>
		<path class="st0" d="M95.3,135.2v-4.5l-4.1-6.1H93l2.1,3.2c0.4,0.6,0.7,1.2,1.1,1.8c0.3-0.6,0.7-1.2,1.1-1.9l2-3.1h1.6l-4.2,6.1
			v4.5H95.3z"/>
		<path class="st0" d="M106.3,135.2v-10.6h1.4v10.6H106.3z"/>
		<path class="st0" d="M110.1,135.2v-10.6h1.4l5.5,8.3v-8.3h1.3v10.6H117l-5.5-8.3v8.3H110.1z"/>
		<path class="st0" d="M120.8,135.2v-10.6h7.1v1.2h-5.7v3.3h5v1.2h-5v4.8H120.8z"/>
		<path class="st0" d="M129.3,130c0-1.8,0.5-3.1,1.4-4.1c0.9-1,2.2-1.5,3.6-1.5c1,0,1.9,0.2,2.6,0.7c0.8,0.5,1.4,1.1,1.8,1.9
			c0.4,0.8,0.6,1.8,0.6,2.8c0,1.1-0.2,2-0.6,2.9c-0.4,0.8-1,1.5-1.8,1.9c-0.8,0.4-1.6,0.7-2.6,0.7c-1,0-1.9-0.2-2.7-0.7
			c-0.8-0.5-1.4-1.1-1.8-2C129.5,131.8,129.3,130.9,129.3,130z M130.8,130c0,1.3,0.3,2.3,1,3c0.7,0.7,1.5,1.1,2.6,1.1
			c1.1,0,1.9-0.4,2.6-1.1c0.7-0.7,1-1.8,1-3.1c0-0.9-0.1-1.6-0.4-2.2c-0.3-0.6-0.7-1.1-1.3-1.5c-0.6-0.4-1.2-0.5-1.9-0.5
			c-1,0-1.8,0.3-2.6,1C131.1,127.3,130.8,128.4,130.8,130z"/>
		<path class="st0" d="M141.2,135.2v-10.6h4.7c0.9,0,1.7,0.1,2.1,0.3c0.5,0.2,0.9,0.5,1.2,1c0.3,0.5,0.4,1,0.4,1.6
			c0,0.7-0.2,1.4-0.7,1.9c-0.5,0.5-1.2,0.8-2.2,1c0.4,0.2,0.7,0.4,0.8,0.5c0.4,0.4,0.8,0.8,1.2,1.4l1.8,2.9h-1.8l-1.4-2.2
			c-0.4-0.6-0.7-1.1-1-1.5c-0.3-0.3-0.5-0.6-0.7-0.7c-0.2-0.1-0.4-0.2-0.6-0.3c-0.2,0-0.4,0-0.8,0h-1.6v4.7H141.2z M142.6,129.3h3
			c0.6,0,1.1-0.1,1.5-0.2c0.4-0.1,0.6-0.3,0.8-0.6c0.2-0.3,0.3-0.6,0.3-0.9c0-0.5-0.2-0.9-0.5-1.2c-0.4-0.3-0.9-0.5-1.7-0.5h-3.3
			V129.3z"/>
		<path class="st0" d="M151.8,135.2v-10.6h2.1l2.5,7.5c0.2,0.7,0.4,1.2,0.5,1.6c0.1-0.4,0.3-0.9,0.6-1.7l2.5-7.3h1.9v10.6h-1.3v-8.8
			l-3.1,8.8h-1.3l-3.1-9v9H151.8z"/>
		<path class="st0" d="M163,135.2l4.1-10.6h1.5l4.3,10.6h-1.6L170,132h-4.4l-1.2,3.2H163z M166,130.8h3.6l-1.1-2.9
			c-0.3-0.9-0.6-1.6-0.7-2.2c-0.1,0.7-0.3,1.4-0.6,2L166,130.8z"/>
		<path class="st0" d="M175.6,135.2v-9.3h-3.5v-1.2h8.4v1.2H177v9.3H175.6z"/>
		<path class="st0" d="M182.1,135.2v-10.6h1.4v10.6H182.1z"/>
		<path class="st0" d="M185.6,130c0-1.8,0.5-3.1,1.4-4.1c0.9-1,2.2-1.5,3.6-1.5c1,0,1.9,0.2,2.6,0.7c0.8,0.5,1.4,1.1,1.8,1.9
			c0.4,0.8,0.6,1.8,0.6,2.8c0,1.1-0.2,2-0.6,2.9c-0.4,0.8-1,1.5-1.8,1.9c-0.8,0.4-1.6,0.7-2.6,0.7c-1,0-1.9-0.2-2.7-0.7
			c-0.8-0.5-1.4-1.1-1.8-2C185.8,131.8,185.6,130.9,185.6,130z M187,130c0,1.3,0.3,2.3,1,3c0.7,0.7,1.5,1.1,2.6,1.1
			c1,0,1.9-0.4,2.6-1.1c0.7-0.7,1-1.8,1-3.1c0-0.9-0.1-1.6-0.4-2.2c-0.3-0.6-0.7-1.1-1.3-1.5c-0.6-0.4-1.2-0.5-1.9-0.5
			c-1,0-1.8,0.3-2.6,1C187.4,127.3,187,128.4,187,130z"/>
		<path class="st0" d="M197.4,135.2v-10.6h1.4l5.5,8.3v-8.3h1.3v10.6h-1.4l-5.5-8.3v8.3H197.4z"/>
		<path class="st0" d="M211.7,131.8l1.3-0.1c0.1,0.5,0.2,1,0.4,1.3c0.2,0.3,0.6,0.6,1.1,0.8c0.5,0.2,1,0.3,1.6,0.3
			c0.5,0,1-0.1,1.4-0.2c0.4-0.2,0.7-0.4,0.9-0.7c0.2-0.3,0.3-0.6,0.3-0.9c0-0.3-0.1-0.6-0.3-0.9c-0.2-0.2-0.5-0.5-0.9-0.6
			c-0.3-0.1-0.9-0.3-1.9-0.5c-1-0.2-1.6-0.5-2-0.7c-0.5-0.3-0.9-0.6-1.1-1c-0.2-0.4-0.4-0.8-0.4-1.3c0-0.5,0.2-1,0.5-1.5
			c0.3-0.5,0.7-0.8,1.3-1.1c0.6-0.2,1.2-0.4,1.9-0.4c0.8,0,1.5,0.1,2.1,0.4c0.6,0.3,1.1,0.6,1.4,1.1c0.3,0.5,0.5,1,0.5,1.7l-1.3,0.1
			c-0.1-0.7-0.3-1.2-0.7-1.5c-0.4-0.3-1-0.5-1.8-0.5c-0.8,0-1.5,0.2-1.8,0.5c-0.4,0.3-0.6,0.7-0.6,1.1c0,0.4,0.1,0.7,0.4,0.9
			c0.3,0.2,1,0.5,2.1,0.8c1.1,0.3,1.9,0.5,2.3,0.7c0.6,0.3,1.1,0.6,1.4,1.1c0.3,0.4,0.4,0.9,0.4,1.5c0,0.6-0.2,1.1-0.5,1.6
			c-0.3,0.5-0.8,0.9-1.4,1.2c-0.6,0.3-1.3,0.4-2,0.4c-1,0-1.8-0.1-2.4-0.4c-0.6-0.3-1.2-0.7-1.5-1.3
			C211.9,133.1,211.7,132.5,211.7,131.8z"/>
		<path class="st0" d="M222.1,135.2v-10.6h7.6v1.2h-6.2v3.2h5.8v1.2h-5.8v3.6h6.5v1.2H222.1z"/>
		<path class="st0" d="M231.9,135.2v-10.6h4.7c0.9,0,1.7,0.1,2.1,0.3c0.5,0.2,0.9,0.5,1.2,1c0.3,0.5,0.4,1,0.4,1.6
			c0,0.7-0.2,1.4-0.7,1.9c-0.5,0.5-1.2,0.8-2.2,1c0.4,0.2,0.6,0.4,0.8,0.5c0.4,0.4,0.8,0.8,1.2,1.4l1.8,2.9h-1.8L238,133
			c-0.4-0.6-0.7-1.1-1-1.5c-0.3-0.3-0.5-0.6-0.7-0.7c-0.2-0.1-0.4-0.2-0.6-0.3c-0.2,0-0.4,0-0.8,0h-1.6v4.7H231.9z M233.3,129.3h3
			c0.6,0,1.1-0.1,1.5-0.2c0.4-0.1,0.6-0.3,0.8-0.6c0.2-0.3,0.3-0.6,0.3-0.9c0-0.5-0.2-0.9-0.5-1.2c-0.4-0.3-0.9-0.5-1.7-0.5h-3.3
			V129.3z"/>
		<path class="st0" d="M245.3,135.2l-4.1-10.6h1.5l2.7,7.7c0.2,0.6,0.4,1.2,0.6,1.7c0.2-0.6,0.4-1.2,0.6-1.7l2.9-7.7h1.4l-4.1,10.6
			H245.3z"/>
		<path class="st0" d="M252.3,135.2v-10.6h1.4v10.6H252.3z"/>
		<path class="st0" d="M263.7,131.5l1.4,0.4c-0.3,1.1-0.8,2-1.6,2.6c-0.8,0.6-1.7,0.9-2.8,0.9c-1.1,0-2.1-0.2-2.8-0.7
			c-0.7-0.5-1.3-1.1-1.6-2c-0.4-0.9-0.6-1.8-0.6-2.8c0-1.1,0.2-2.1,0.6-2.9c0.4-0.8,1-1.4,1.8-1.9c0.8-0.4,1.6-0.6,2.6-0.6
			c1.1,0,1.9,0.3,2.7,0.8c0.7,0.5,1.2,1.3,1.5,2.3l-1.4,0.3c-0.2-0.8-0.6-1.3-1.1-1.7c-0.5-0.4-1.1-0.5-1.8-0.5
			c-0.8,0-1.5,0.2-2,0.6c-0.5,0.4-0.9,0.9-1.1,1.6c-0.2,0.7-0.3,1.3-0.3,2c0,0.9,0.1,1.7,0.4,2.4c0.3,0.7,0.7,1.2,1.2,1.5
			c0.6,0.3,1.1,0.5,1.8,0.5c0.8,0,1.4-0.2,2-0.7C263.1,133,263.5,132.3,263.7,131.5z"/>
		<path class="st0" d="M266.8,135.2v-10.6h7.6v1.2h-6.2v3.2h5.8v1.2h-5.8v3.6h6.5v1.2H266.8z"/>
		<path class="st0" d="M276.2,131.8l1.3-0.1c0.1,0.5,0.2,1,0.4,1.3c0.2,0.3,0.6,0.6,1.1,0.8c0.5,0.2,1,0.3,1.6,0.3
			c0.5,0,1-0.1,1.4-0.2c0.4-0.2,0.7-0.4,0.9-0.7c0.2-0.3,0.3-0.6,0.3-0.9c0-0.3-0.1-0.6-0.3-0.9c-0.2-0.2-0.5-0.5-1-0.6
			c-0.3-0.1-0.9-0.3-1.9-0.5c-1-0.2-1.6-0.5-2-0.7c-0.5-0.3-0.9-0.6-1.1-1c-0.2-0.4-0.4-0.8-0.4-1.3c0-0.5,0.2-1,0.5-1.5
			c0.3-0.5,0.7-0.8,1.3-1.1c0.6-0.2,1.2-0.4,1.9-0.4c0.8,0,1.5,0.1,2.1,0.4c0.6,0.3,1.1,0.6,1.4,1.1c0.3,0.5,0.5,1,0.5,1.7l-1.3,0.1
			c-0.1-0.7-0.3-1.2-0.7-1.5c-0.4-0.3-1-0.5-1.8-0.5c-0.8,0-1.5,0.2-1.8,0.5c-0.4,0.3-0.6,0.7-0.6,1.1c0,0.4,0.1,0.7,0.4,0.9
			c0.3,0.2,1,0.5,2.1,0.8c1.1,0.3,1.9,0.5,2.3,0.7c0.6,0.3,1.1,0.6,1.4,1.1c0.3,0.4,0.4,0.9,0.4,1.5c0,0.6-0.2,1.1-0.5,1.6
			c-0.3,0.5-0.8,0.9-1.4,1.2c-0.6,0.3-1.3,0.4-2,0.4c-1,0-1.8-0.1-2.4-0.4c-0.6-0.3-1.2-0.7-1.5-1.3
			C276.4,133.1,276.2,132.5,276.2,131.8z"/>
	</g>
</g>
</svg>
